  0
SECTION
  2
HEADER
  9
$ACADVER
  1
AC1018
  9
$ACADMAINTVER
 70
     0
  9
$DWGCODEPAGE
  3
ANSI_1252
  9
$INSBASE
 10
0.0
 20
0.0
 30
0.0
  9
$EXTMIN
 10
1.000000000000000E+20
 20
1.000000000000000E+20
 30
1.000000000000000E+20
  9
$EXTMAX
 10
-1.000000000000000E+20
 20
-1.000000000000000E+20
 30
-1.000000000000000E+20
  9
$LIMMIN
 10
0.0
 20
0.0
  9
$LIMMAX
 10
12.0
 20
9.0
  9
$ORTHOMODE
 70
     0
  9
$REGENMODE
 70
     1
  9
$FILLMODE
 70
     1
  9
$QTEXTMODE
 70
     0
  9
$MIRRTEXT
 70
     1
  9
$LTSCALE
 40
1.0
  9
$ATTMODE
 70
     1
  9
$TEXTSIZE
 40
0.2
  9
$TRACEWID
 40
0.05
  9
$TEXTSTYLE
  7
Standard
  9
$CLAYER
  8
0
  9
$CELTYPE
  6
ByLayer
  9
$CECOLOR
 62
   256
  9
$CELTSCALE
 40
1.0
  9
$DISPSILH
 70
     0
  9
$DIMSCALE
 40
1.0
  9
$DIMASZ
 40
0.18
  9
$DIMEXO
 40
0.0625
  9
$DIMDLI
 40
0.38
  9
$DIMRND
 40
0.0
  9
$DIMDLE
 40
0.0
  9
$DIMEXE
 40
0.18
  9
$DIMTP
 40
0.0
  9
$DIMTM
 40
0.0
  9
$DIMTXT
 40
0.18
  9
$DIMCEN
 40
0.09
  9
$DIMTSZ
 40
0.0
  9
$DIMTOL
 70
     0
  9
$DIMLIM
 70
     0
  9
$DIMTIH
 70
     1
  9
$DIMTOH
 70
     1
  9
$DIMSE1
 70
     0
  9
$DIMSE2
 70
     0
  9
$DIMTAD
 70
     0
  9
$DIMZIN
 70
     0
  9
$DIMBLK
  1

  9
$DIMASO
 70
     1
  9
$DIMSHO
 70
     1
  9
$DIMPOST
  1

  9
$DIMAPOST
  1

  9
$DIMALT
 70
     0
  9
$DIMALTD
 70
     2
  9
$DIMALTF
 40
25.4
  9
$DIMLFAC
 40
1.0
  9
$DIMTOFL
 70
     0
  9
$DIMTVP
 40
0.0
  9
$DIMTIX
 70
     0
  9
$DIMSOXD
 70
     0
  9
$DIMSAH
 70
     0
  9
$DIMBLK1
  1

  9
$DIMBLK2
  1

  9
$DIMSTYLE
  2
Standard
  9
$DIMCLRD
 70
     0
  9
$DIMCLRE
 70
     0
  9
$DIMCLRT
 70
     0
  9
$DIMTFAC
 40
1.0
  9
$DIMGAP
 40
0.09
  9
$DIMJUST
 70
     0
  9
$DIMSD1
 70
     0
  9
$DIMSD2
 70
     0
  9
$DIMTOLJ
 70
     1
  9
$DIMTZIN
 70
     0
  9
$DIMALTZ
 70
     0
  9
$DIMALTTZ
 70
     0
  9
$DIMUPT
 70
     0
  9
$DIMDEC
 70
     4
  9
$DIMTDEC
 70
     4
  9
$DIMALTU
 70
     2
  9
$DIMALTTD
 70
     2
  9
$DIMTXSTY
  7
Standard
  9
$DIMAUNIT
 70
     0
  9
$DIMADEC
 70
     0
  9
$DIMALTRND
 40
0.0
  9
$DIMAZIN
 70
     0
  9
$DIMDSEP
 70
    46
  9
$DIMATFIT
 70
     3
  9
$DIMFRAC
 70
     0
  9
$DIMLDRBLK
  1

  9
$DIMLUNIT
 70
     2
  9
$DIMLWD
 70
    -2
  9
$DIMLWE
 70
    -2
  9
$DIMTMOVE
 70
     0
  9
$LUNITS
 70
     2
  9
$LUPREC
 70
     4
  9
$SKETCHINC
 40
0.1
  9
$FILLETRAD
 40
0.5
  9
$AUNITS
 70
     0
  9
$AUPREC
 70
     0
  9
$MENU
  1
.
  9
$ELEVATION
 40
0.0
  9
$PELEVATION
 40
0.0
  9
$THICKNESS
 40
0.0
  9
$LIMCHECK
 70
     0
  9
$CHAMFERA
 40
0.5
  9
$CHAMFERB
 40
0.5
  9
$CHAMFERC
 40
1.0
  9
$CHAMFERD
 40
0.0
  9
$SKPOLY
 70
     0
  9
$TDCREATE
 40
2459815.978861435
  9
$TDUCREATE
 40
2459815.937194768
  9
$TDUPDATE
 40
2459815.978861447
  9
$TDUUPDATE
 40
2459815.93719478
  9
$TDINDWG
 40
0.0000000116
  9
$TDUSRTIMER
 40
0.0000000116
  9
$USRTIMER
 70
     1
  9
$ANGBASE
 50
0.0
  9
$ANGDIR
 70
     0
  9
$PDMODE
 70
     0
  9
$PDSIZE
 40
0.0
  9
$PLINEWID
 40
0.0
  9
$SPLFRAME
 70
     0
  9
$SPLINETYPE
 70
     6
  9
$SPLINESEGS
 70
     8
  9
$HANDSEED
  5
17D
  9
$SURFTAB1
 70
     6
  9
$SURFTAB2
 70
     6
  9
$SURFTYPE
 70
     6
  9
$SURFU
 70
     6
  9
$SURFV
 70
     6
  9
$UCSBASE
  2

  9
$UCSNAME
  2

  9
$UCSORG
 10
0.0
 20
0.0
 30
0.0
  9
$UCSXDIR
 10
1.0
 20
0.0
 30
0.0
  9
$UCSYDIR
 10
0.0
 20
1.0
 30
0.0
  9
$UCSORTHOREF
  2

  9
$UCSORTHOVIEW
 70
     0
  9
$UCSORGTOP
 10
0.0
 20
0.0
 30
0.0
  9
$UCSORGBOTTOM
 10
0.0
 20
0.0
 30
0.0
  9
$UCSORGLEFT
 10
0.0
 20
0.0
 30
0.0
  9
$UCSORGRIGHT
 10
0.0
 20
0.0
 30
0.0
  9
$UCSORGFRONT
 10
0.0
 20
0.0
 30
0.0
  9
$UCSORGBACK
 10
0.0
 20
0.0
 30
0.0
  9
$PUCSBASE
  2

  9
$PUCSNAME
  2

  9
$PUCSORG
 10
0.0
 20
0.0
 30
0.0
  9
$PUCSXDIR
 10
1.0
 20
0.0
 30
0.0
  9
$PUCSYDIR
 10
0.0
 20
1.0
 30
0.0
  9
$PUCSORTHOREF
  2

  9
$PUCSORTHOVIEW
 70
     0
  9
$PUCSORGTOP
 10
0.0
 20
0.0
 30
0.0
  9
$PUCSORGBOTTOM
 10
0.0
 20
0.0
 30
0.0
  9
$PUCSORGLEFT
 10
0.0
 20
0.0
 30
0.0
  9
$PUCSORGRIGHT
 10
0.0
 20
0.0
 30
0.0
  9
$PUCSORGFRONT
 10
0.0
 20
0.0
 30
0.0
  9
$PUCSORGBACK
 10
0.0
 20
0.0
 30
0.0
  9
$USERI1
 70
     0
  9
$USERI2
 70
     0
  9
$USERI3
 70
     0
  9
$USERI4
 70
     0
  9
$USERI5
 70
     0
  9
$USERR1
 40
0.0
  9
$USERR2
 40
0.0
  9
$USERR3
 40
0.0
  9
$USERR4
 40
0.0
  9
$USERR5
 40
0.0
  9
$WORLDVIEW
 70
     1
  9
$SHADEDGE
 70
     3
  9
$SHADEDIF
 70
    70
  9
$TILEMODE
 70
     1
  9
$MAXACTVP
 70
    64
  9
$PINSBASE
 10
0.0
 20
0.0
 30
0.0
  9
$PLIMCHECK
 70
     0
  9
$PEXTMIN
 10
1.000000000000000E+20
 20
1.000000000000000E+20
 30
1.000000000000000E+20
  9
$PEXTMAX
 10
-1.000000000000000E+20
 20
-1.000000000000000E+20
 30
-1.000000000000000E+20
  9
$PLIMMIN
 10
0.0
 20
0.0
  9
$PLIMMAX
 10
12.0
 20
9.0
  9
$UNITMODE
 70
     0
  9
$VISRETAIN
 70
     1
  9
$PLINEGEN
 70
     0
  9
$PSLTSCALE
 70
     1
  9
$TREEDEPTH
 70
  3020
  9
$CMLSTYLE
  2
Standard
  9
$CMLJUST
 70
     0
  9
$CMLSCALE
 40
1.0
  9
$PROXYGRAPHICS
 70
     1
  9
$MEASUREMENT
 70
     0
  9
$CELWEIGHT
370
    -1
  9
$ENDCAPS
280
     0
  9
$JOINSTYLE
280
     0
  9
$LWDISPLAY
290
     1
  9
$INSUNITS
 70
     1
  9
$HYPERLINKBASE
  1

  9
$STYLESHEET
  1

  9
$XEDIT
290
     1
  9
$CEPSNTYPE
380
     0
  9
$PSTYLEMODE
290
     1
  9
$FINGERPRINTGUID
  2
{3EFF5CE4-5846-4E81-B6F3-4DA8B7D0EA49}
  9
$VERSIONGUID
  2
{FAEB1C32-E019-11D5-929B-00C0DF256EC4}
  9
$EXTNAMES
290
     1
  9
$PSVPSCALE
 40
0.0
  9
$OLESTARTUP
290
     0
  9
$SORTENTS
280
   127
  9
$INDEXCTL
280
     0
  9
$HIDETEXT
280
     1
  9
$XCLIPFRAME
290
     0
  9
$HALOGAP
280
     0
  9
$OBSCOLOR
 70
   257
  9
$OBSLTYPE
280
     0
  9
$INTERSECTIONDISPLAY
280
     0
  9
$INTERSECTIONCOLOR
 70
   257
  9
$DIMASSOC
280
     2
  9
$PROJECTNAME
  1

  0
ENDSEC
  0
SECTION
  2
CLASSES
  0
CLASS
  1
ACDBDICTIONARYWDFLT
  2
AcDbDictionaryWithDefault
  3
ObjectDBX Classes
 90
        0
 91
        3
280
     0
281
     0
  0
CLASS
  1
VISUALSTYLE
  2
AcDbVisualStyle
  3
ObjectDBX Classes
 90
     4095
 91
        3
280
     0
281
     0
  0
ENDSEC
  0
SECTION
  2
TABLES
  0
TABLE
  2
VPORT
  5
8
330
0
100
AcDbSymbolTable
 70
     1
  0
VPORT
  5
29
330
8
100
AcDbSymbolTableRecord
100
AcDbViewportTableRecord
  2
*Active
 70
     0
 10
0.0
 20
0.0
 11
1.0
 21
1.0
 12
0.0
 22
0.0
 13
0.0
 23
0.0
 14
0.5
 24
0.5
 15
0.5
 25
0.5
 16
0.0
 26
0.0
 36
1.0
 17
149.9992851730037
 27
-100.00009763125
 37
0.0
 40
200.0001952625
 41
1.499991387269696
 42
50.0
 43
0.0
 44
0.0
 50
0.0
 51
0.0
 71
     0
 72
   100
 73
     1
 74
     3
 75
     0
 76
     0
 77
     0
 78
     0
281
     0
 65
     1
110
0.0
120
0.0
130
0.0
111
1.0
121
0.0
131
0.0
112
0.0
122
1.0
132
0.0
 79
     0
146
0.0
  0
ENDTAB
  0
TABLE
  2
LTYPE
  5
5
330
0
100
AcDbSymbolTable
 70
     1
  0
LTYPE
  5
14
330
5
100
AcDbSymbolTableRecord
100
AcDbLinetypeTableRecord
  2
ByBlock
 70
     0
  3

 72
    65
 73
     0
 40
0.0
  0
LTYPE
  5
15
330
5
100
AcDbSymbolTableRecord
100
AcDbLinetypeTableRecord
  2
ByLayer
 70
     0
  3

 72
    65
 73
     0
 40
0.0
  0
LTYPE
  5
16
330
5
100
AcDbSymbolTableRecord
100
AcDbLinetypeTableRecord
  2
Continuous
 70
     0
  3
Solid line
 72
    65
 73
     0
 40
0.0
  0
ENDTAB
  0
TABLE
  2
LAYER
  5
2
330
0
100
AcDbSymbolTable
 70
     2
  0
LAYER
  5
10
330
2
100
AcDbSymbolTableRecord
100
AcDbLayerTableRecord
  2
0
 70
     0
 62
     7
  6
Continuous
370
    -3
390
F
  0
LAYER
  5
3B
330
2
100
AcDbSymbolTableRecord
100
AcDbLayerTableRecord
  2
Layer 1
 70
     0
 62
     7
  6
Continuous
370
    -3
390
F
  0
ENDTAB
  0
TABLE
  2
STYLE
  5
3
330
0
100
AcDbSymbolTable
 70
     1
  0
STYLE
  5
11
330
3
100
AcDbSymbolTableRecord
100
AcDbTextStyleTableRecord
  2
Standard
 70
     0
 40
0.0
 41
1.0
 50
0.0
 71
     0
 42
0.2
  3
txt
  4

  0
ENDTAB
  0
TABLE
  2
VIEW
  5
6
330
0
100
AcDbSymbolTable
 70
     0
  0
ENDTAB
  0
TABLE
  2
UCS
  5
7
330
0
100
AcDbSymbolTable
 70
     0
  0
ENDTAB
  0
TABLE
  2
APPID
  5
9
330
0
100
AcDbSymbolTable
 70
     1
  0
APPID
  5
12
330
9
100
AcDbSymbolTableRecord
100
AcDbRegAppTableRecord
  2
ACAD
 70
     0
  0
ENDTAB
  0
TABLE
  2
DIMSTYLE
  5
A
330
0
100
AcDbSymbolTable
 70
     1
100
AcDbDimStyleTable
  0
DIMSTYLE
105
27
330
A
100
AcDbSymbolTableRecord
100
AcDbDimStyleTableRecord
  2
Standard
 70
     0
340
11
  0
ENDTAB
  0
TABLE
  2
BLOCK_RECORD
  5
1
330
0
100
AcDbSymbolTable
 70
     5
  0
BLOCK_RECORD
  5
1F
330
1
100
AcDbSymbolTableRecord
100
AcDbBlockTableRecord
  2
*Model_Space
340
22
  0
BLOCK_RECORD
  5
1B
330
1
100
AcDbSymbolTableRecord
100
AcDbBlockTableRecord
  2
*Paper_Space
340
1E
  0
BLOCK_RECORD
  5
23
330
1
100
AcDbSymbolTableRecord
100
AcDbBlockTableRecord
  2
*Paper_Space0
340
26
  0
BLOCK_RECORD
  5
165
330
1
100
AcDbSymbolTableRecord
100
AcDbBlockTableRecord
  2
block 2
340
0
102
{BLKREFS
331
166
102
}
  0
BLOCK_RECORD
  5
169
330
1
100
AcDbSymbolTableRecord
100
AcDbBlockTableRecord
  2
block 3
340
0
102
{BLKREFS
331
16A
102
}
  0
BLOCK_RECORD
  5
16D
330
1
100
AcDbSymbolTableRecord
100
AcDbBlockTableRecord
  2
block 4
340
0
102
{BLKREFS
331
16E
102
}
  0
BLOCK_RECORD
  5
171
330
1
100
AcDbSymbolTableRecord
100
AcDbBlockTableRecord
  2
block 5
340
0
102
{BLKREFS
331
172
102
}
  0
ENDTAB
  0
ENDSEC
  0
SECTION
  2
BLOCKS
  0
BLOCK
  5
20
330
1F
100
AcDbEntity
  8
0
100
AcDbBlockBegin
  2
*Model_Space
 70
     0
 71
     0
 10
0.0
 20
0.0
 30
0.0
  3
*Model_Space
  1

  0
ENDBLK
  5
21
330
1F
100
AcDbEntity
  8
0
100
AcDbBlockEnd
  0
BLOCK
  5
1C
330
1B
100
AcDbEntity
 67
     1
  8
0
100
AcDbBlockBegin
  2
*Paper_Space
 70
     0
 71
     0
 10
0.0
 20
0.0
 30
0.0
  3
*Paper_Space
  1

  0
ENDBLK
  5
1D
330
1B
100
AcDbEntity
 67
     1
  8
0
100
AcDbBlockEnd
  0
BLOCK
  5
24
330
23
100
AcDbEntity
  8
0
100
AcDbBlockBegin
  2
*Paper_Space0
 70
     0
 71
     0
 10
0.0
 20
0.0
 30
0.0
  3
*Paper_Space0
  1

  0
ENDBLK
  5
25
330
23
100
AcDbEntity
  8
0
100
AcDbBlockEnd
  0
BLOCK
  5
167
330
165
100
AcDbEntity
  8
0
100
AcDbBlockBegin
  2
block 2
 70
     0
 71
     0
 10
0.0
 20
0.0
 30
0.0
  3
block 2
  1

  0
INSERT
  5
16A
330
165
100
AcDbEntity
  8
Layer 1
100
AcDbBlockReference
  2
block 3
 10
0.0
 20
0.0
 30
0.0
  0
INSERT
  5
16E
330
165
100
AcDbEntity
  8
Layer 1
100
AcDbBlockReference
  2
block 4
 10
0.0
 20
0.0
 30
0.0
  0
INSERT
  5
172
330
165
100
AcDbEntity
  8
Layer 1
100
AcDbBlockReference
  2
block 5
 10
0.0
 20
0.0
 30
0.0
  0
ENDBLK
  5
168
330
165
100
AcDbEntity
  8
0
100
AcDbBlockEnd
  0
BLOCK
  5
16B
330
169
100
AcDbEntity
  8
0
100
AcDbBlockBegin
  2
block 3
 70
     0
 71
     0
 10
0.0
 20
0.0
 30
0.0
  3
block 3
  1

  0
ENDBLK
  5
16C
330
169
100
AcDbEntity
  8
0
100
AcDbBlockEnd
  0
BLOCK
  5
16F
330
16D
100
AcDbEntity
  8
0
100
AcDbBlockBegin
  2
block 4
 70
     0
 71
     0
 10
0.0
 20
0.0
 30
0.0
  3
block 4
  1

  0
ENDBLK
  5
170
330
16D
100
AcDbEntity
  8
0
100
AcDbBlockEnd
  0
BLOCK
  5
173
330
171
100
AcDbEntity
  8
0
100
AcDbBlockBegin
  2
block 5
 70
     0
 71
     0
 10
0.0
 20
0.0
 30
0.0
  3
block 5
  1

  0
SPLINE
  5
175
330
171
100
AcDbEntity
  8
Layer 1
 62
   250
420
  1842203
370
    18
100
AcDbSpline
210
0.0
220
0.0
230
1.0
 70
    11
 71
     3
 72
    32
 73
    28
 74
     0
 42
0.0000000001
 43
0.0000000001
 40
0.0
 40
0.0
 40
0.0
 40
0.0
 40
1.0
 40
1.0
 40
1.0
 40
2.0
 40
2.0
 40
2.0
 40
3.0
 40
3.0
 40
3.0
 40
4.0
 40
4.0
 40
4.0
 40
5.0
 40
5.0
 40
5.0
 40
6.0
 40
6.0
 40
6.0
 40
7.0
 40
7.0
 40
7.0
 40
8.0
 40
8.0
 40
8.0
 40
9.0
 40
9.0
 40
9.0
 40
9.0
 10
151.4594888944268
 20
-97.90100095208726
 30
0.0
 10
150.918264393694
 20
-98.57934025313294
 30
0.0
 10
150.2481933218129
 20
-99.16225040923722
 30
0.0
 10
149.4725300733089
 20
-99.61011282231969
 30
0.0
 10
147.2895453190804
 20
-100.8706732603726
 30
0.0
 10
144.6001315285201
 20
-100.8706732603726
 30
0.0
 10
142.4171467742916
 20
-99.61011282231969
 30
0.0
 10
141.6628431177961
 20
-99.17465275298412
 30
0.0
 10
141.0084472303729
 20
-98.61137964114577
 30
0.0
 10
140.4753187040305
 20
-97.9568114989483
 30
0.0
 10
143.2982299446442
 20
-95.029169355583
 30
0.0
 10
145.6315931168039
 20
-95.74264863057823
 30
0.0
 10
145.6315931168039
 20
-94.70188528448425
 30
0.0
 10
145.6315931168039
 20
-93.6173692257276
 30
0.0
 10
141.6027262015785
 20
-92.90388995073236
 30
0.0
 10
141.6027262015785
 20
-92.15113658720527
 30
0.0
 10
141.6027262015785
 20
-91.40113930006639
 30
0.0
 10
143.9770860100127
 20
-90.83132050680607
 30
0.0
 10
145.9947061809492
 20
-90.82821992086934
 30
0.0
 10
148.0121540971116
 20
-90.83132050680607
 30
0.0
 10
150.38668616032
 20
-91.40113930006639
 30
0.0
 10
150.38668616032
 20
-92.15113658720527
 30
0.0
 10
150.38668616032
 20
-92.90388995073236
 30
0.0
 10
146.3578192450946
 20
-93.6173692257276
 30
0.0
 10
146.3578192450946
 20
-94.70188528448425
 30
0.0
 10
146.3578192450946
 20
-95.73541393005921
 30
0.0
 10
148.6610378317584
 20
-95.03812660384465
 30
0.0
 10
151.4594888944268
 20
-97.90100095208726
 30
0.0
  0
SPLINE
  5
176
330
171
100
AcDbEntity
  8
Layer 1
 62
   250
420
  1842203
370
    18
100
AcDbSpline
210
0.0
220
0.0
230
1.0
 70
    11
 71
     3
 72
    44
 73
    40
 74
     0
 42
0.0000000001
 43
0.0000000001
 40
0.0
 40
0.0
 40
0.0
 40
0.0
 40
1.0
 40
1.0
 40
1.0
 40
2.0
 40
2.0
 40
2.0
 40
3.0
 40
3.0
 40
3.0
 40
4.0
 40
4.0
 40
4.0
 40
5.0
 40
5.0
 40
5.0
 40
6.0
 40
6.0
 40
6.0
 40
7.0
 40
7.0
 40
7.0
 40
8.0
 40
8.0
 40
8.0
 40
9.0
 40
9.0
 40
9.0
 40
10.0
 40
10.0
 40
10.0
 40
11.0
 40
11.0
 40
11.0
 40
12.0
 40
12.0
 40
12.0
 40
13.0
 40
13.0
 40
13.0
 40
13.0
 10
152.0458441460163
 20
-97.04351668580857
 30
0.0
 10
150.5458495717386
 20
-95.78536781459533
 30
0.0
 10
149.1488633524697
 20
-95.00470917763772
 30
0.0
 10
147.8557467620812
 20
-94.70188528448425
 30
0.0
 10
148.4975680509833
 20
-94.1840874330512
 30
0.0
 10
152.1082003742993
 20
-92.86668291949167
 30
0.0
 10
152.1082003742993
 20
-92.16147187366103
 30
0.0
 10
152.1082003742993
 20
-91.45901690421859
 30
0.0
 10
148.9898721958255
 20
-89.77746579786813
 30
0.0
 10
146.0112426392784
 20
-89.76506345412123
 30
0.0
 10
146.0055582317278
 20
-89.76506345412123
 30
0.0
 10
146.0002183337257
 20
-89.76506345412123
 30
0.0
 10
145.9947061809492
 20
-89.76506345412123
 30
0.0
 10
145.9890217733986
 20
-89.76506345412123
 30
0.0
 10
145.9836818753965
 20
-89.76506345412123
 30
0.0
 10
145.9779974678458
 20
-89.76506345412123
 30
0.0
 10
142.9993679112988
 20
-89.77746579786813
 30
0.0
 10
139.8810397328249
 20
-91.45901690421859
 30
0.0
 10
139.8810397328249
 20
-92.16147187366103
 30
0.0
 10
139.8810397328249
 20
-92.86668291949167
 30
0.0
 10
143.491672056141
 20
-94.1840874330512
 30
0.0
 10
144.133493345043
 20
-94.70188528448425
 30
0.0
 10
142.8212564747114
 20
-95.00918780176855
 30
0.0
 10
141.4022216443369
 20
-95.8084499543465
 30
0.0
 10
139.8769056182426
 20
-97.09967174221815
 30
0.0
 10
139.241285501214
 20
-96.02790253675691
 30
0.0
 10
138.88954125217
 20
-94.7893907098096
 30
0.0
 10
138.88954125217
 20
-93.49989146968059
 30
0.0
 10
138.88954125217
 20
-90.9794596126718
 30
0.0
 10
140.234162020063
 20
-88.65057506464292
 30
0.0
 10
142.4171467742916
 20
-87.39001462659
 30
0.0
 10
144.6001315285201
 20
-86.12979869808561
 30
0.0
 10
147.2895453190804
 20
-86.12979869808561
 30
0.0
 10
149.4725300733089
 20
-87.39001462659
 30
0.0
 10
151.655170317989
 20
-88.65057506464292
 30
0.0
 10
153.0001355954305
 20
-90.9794596126718
 30
0.0
 10
153.0001355954305
 20
-93.49989146968059
 30
0.0
 10
153.0001355954305
 20
-94.76665307960695
 30
0.0
 10
152.6604491805849
 20
-95.98518335273982
 30
0.0
 10
152.0458441460163
 20
-97.04351668580857
 30
0.0
  0
ENDBLK
  5
174
330
171
100
AcDbEntity
  8
0
100
AcDbBlockEnd
  0
ENDSEC
  0
SECTION
  2
ENTITIES
  0
SPLINE
  5
3C
330
1F
100
AcDbEntity
  8
Layer 1
 62
   250
420
  1842203
370
    18
100
AcDbSpline
210
0.0
220
0.0
230
1.0
 70
    11
 71
     3
 72
    17
 73
    13
 74
     0
 42
0.0000000001
 43
0.0000000001
 40
0.0
 40
0.0
 40
0.0
 40
0.0
 40
1.0
 40
1.0
 40
1.0
 40
2.0
 40
2.0
 40
2.0
 40
3.0
 40
3.0
 40
3.0
 40
4.0
 40
4.0
 40
4.0
 40
4.0
 10
24.84999049942986
 20
-23.49985757876046
 30
0.0
 10
24.84999049942986
 20
-22.75433891575239
 30
0.0
 10
24.24554849654278
 20
-22.14989691286531
 30
0.0
 10
23.49985757876046
 20
-22.14989691286531
 30
0.0
 10
22.75433891575239
 20
-22.14989691286531
 30
0.0
 10
22.14989691286531
 20
-22.75433891575239
 30
0.0
 10
22.14989691286531
 20
-23.49985757876046
 30
0.0
 10
22.14989691286531
 20
-24.24554849654278
 30
0.0
 10
22.75433891575239
 20
-24.84999049942986
 30
0.0
 10
23.49985757876046
 20
-24.84999049942986
 30
0.0
 10
24.24554849654278
 20
-24.84999049942986
 30
0.0
 10
24.84999049942986
 20
-24.24554849654278
 30
0.0
 10
24.84999049942986
 20
-23.49985757876046
 30
0.0
  0
SPLINE
  5
3D
330
1F
100
AcDbEntity
  8
Layer 1
 62
   250
420
  1842203
370
    18
100
AcDbSpline
210
0.0
220
0.0
230
1.0
 70
    11
 71
     3
 72
    17
 73
    13
 74
     0
 42
0.0000000001
 43
0.0000000001
 40
0.0
 40
0.0
 40
0.0
 40
0.0
 40
1.0
 40
1.0
 40
1.0
 40
2.0
 40
2.0
 40
2.0
 40
3.0
 40
3.0
 40
3.0
 40
4.0
 40
4.0
 40
4.0
 40
4.0
 10
24.84999049942986
 20
-72.49996742979168
 30
0.0
 10
24.84999049942986
 20
-71.75444876678361
 30
0.0
 10
24.24554849654278
 20
-71.15000676389653
 30
0.0
 10
23.49985757876046
 20
-71.15000676389653
 30
0.0
 10
22.75433891575239
 20
-71.15000676389653
 30
0.0
 10
22.14989691286531
 20
-71.75444876678361
 30
0.0
 10
22.14989691286531
 20
-72.49996742979168
 30
0.0
 10
22.14989691286531
 20
-73.24565834757401
 30
0.0
 10
22.75433891575239
 20
-73.85010035046109
 30
0.0
 10
23.49985757876046
 20
-73.85010035046109
 30
0.0
 10
24.24554849654278
 20
-73.85010035046109
 30
0.0
 10
24.84999049942986
 20
-73.24565834757401
 30
0.0
 10
24.84999049942986
 20
-72.49996742979168
 30
0.0
  0
SPLINE
  5
3E
330
1F
100
AcDbEntity
  8
Layer 1
 62
   250
420
  1842203
370
    18
100
AcDbSpline
210
0.0
220
0.0
230
1.0
 70
    11
 71
     3
 72
    17
 73
    13
 74
     0
 42
0.0000000001
 43
0.0000000001
 40
0.0
 40
0.0
 40
0.0
 40
0.0
 40
1.0
 40
1.0
 40
1.0
 40
2.0
 40
2.0
 40
2.0
 40
3.0
 40
3.0
 40
3.0
 40
4.0
 40
4.0
 40
4.0
 40
4.0
 10
82.85006779612776
 20
-23.49985757876046
 30
0.0
 10
82.85006779612776
 20
-22.75433891575239
 30
0.0
 10
82.24562579324068
 20
-22.14989691286531
 30
0.0
 10
81.49993487545835
 20
-22.14989691286531
 30
0.0
 10
80.7544162124503
 20
-22.14989691286531
 30
0.0
 10
80.14997420956321
 20
-22.75433891575239
 30
0.0
 10
80.14997420956321
 20
-23.49985757876046
 30
0.0
 10
80.14997420956321
 20
-24.24554849654278
 30
0.0
 10
80.7544162124503
 20
-24.84999049942986
 30
0.0
 10
81.49993487545835
 20
-24.84999049942986
 30
0.0
 10
82.24562579324068
 20
-24.84999049942986
 30
0.0
 10
82.85006779612776
 20
-24.24554849654278
 30
0.0
 10
82.85006779612776
 20
-23.49985757876046
 30
0.0
  0
SPLINE
  5
3F
330
1F
100
AcDbEntity
  8
Layer 1
 62
   250
420
  1842203
370
    18
100
AcDbSpline
210
0.0
220
0.0
230
1.0
 70
    11
 71
     3
 72
    17
 73
    13
 74
     0
 42
0.0000000001
 43
0.0000000001
 40
0.0
 40
0.0
 40
0.0
 40
0.0
 40
1.0
 40
1.0
 40
1.0
 40
2.0
 40
2.0
 40
2.0
 40
3.0
 40
3.0
 40
3.0
 40
4.0
 40
4.0
 40
4.0
 40
4.0
 10
82.85006779612776
 20
-72.49996742979168
 30
0.0
 10
82.85006779612776
 20
-71.75444876678361
 30
0.0
 10
82.24562579324068
 20
-71.15000676389653
 30
0.0
 10
81.49993487545835
 20
-71.15000676389653
 30
0.0
 10
80.7544162124503
 20
-71.15000676389653
 30
0.0
 10
80.14997420956321
 20
-71.75444876678361
 30
0.0
 10
80.14997420956321
 20
-72.49996742979168
 30
0.0
 10
80.14997420956321
 20
-73.24565834757401
 30
0.0
 10
80.7544162124503
 20
-73.85010035046109
 30
0.0
 10
81.49993487545835
 20
-73.85010035046109
 30
0.0
 10
82.24562579324068
 20
-73.85010035046109
 30
0.0
 10
82.85006779612776
 20
-73.24565834757401
 30
0.0
 10
82.85006779612776
 20
-72.49996742979168
 30
0.0
  0
SPLINE
  5
40
330
1F
100
AcDbEntity
  8
Layer 1
 62
   250
420
  1842203
370
    18
100
AcDbSpline
210
0.0
220
0.0
230
1.0
 70
    11
 71
     3
 72
   125
 73
   121
 74
     0
 42
0.0000000001
 43
0.0000000001
 40
0.0
 40
0.0
 40
0.0
 40
0.0
 40
1.0
 40
1.0
 40
1.0
 40
2.0
 40
2.0
 40
2.0
 40
3.0
 40
3.0
 40
3.0
 40
4.0
 40
4.0
 40
4.0
 40
5.0
 40
5.0
 40
5.0
 40
6.0
 40
6.0
 40
6.0
 40
7.0
 40
7.0
 40
7.0
 40
8.0
 40
8.0
 40
8.0
 40
9.0
 40
9.0
 40
9.0
 40
10.0
 40
10.0
 40
10.0
 40
11.0
 40
11.0
 40
11.0
 40
12.0
 40
12.0
 40
12.0
 40
13.0
 40
13.0
 40
13.0
 40
14.0
 40
14.0
 40
14.0
 40
15.0
 40
15.0
 40
15.0
 40
16.0
 40
16.0
 40
16.0
 40
17.0
 40
17.0
 40
17.0
 40
18.0
 40
18.0
 40
18.0
 40
19.0
 40
19.0
 40
19.0
 40
20.0
 40
20.0
 40
20.0
 40
21.0
 40
21.0
 40
21.0
 40
22.0
 40
22.0
 40
22.0
 40
23.0
 40
23.0
 40
23.0
 40
24.0
 40
24.0
 40
24.0
 40
25.0
 40
25.0
 40
25.0
 40
26.0
 40
26.0
 40
26.0
 40
27.0
 40
27.0
 40
27.0
 40
28.0
 40
28.0
 40
28.0
 40
29.0
 40
29.0
 40
29.0
 40
30.0
 40
30.0
 40
30.0
 40
31.0
 40
31.0
 40
31.0
 40
32.0
 40
32.0
 40
32.0
 40
33.0
 40
33.0
 40
33.0
 40
34.0
 40
34.0
 40
34.0
 40
35.0
 40
35.0
 40
35.0
 40
36.0
 40
36.0
 40
36.0
 40
37.0
 40
37.0
 40
37.0
 40
38.0
 40
38.0
 40
38.0
 40
39.0
 40
39.0
 40
39.0
 40
40.0
 40
40.0
 40
40.0
 40
40.0
 10
14.00000677818403
 20
-19.99998507529514
 30
0.0
 10
14.00000677818403
 20
-14.00000677818403
 30
0.0
 10
14.00000677818403
 20
-14.00000677818403
 30
0.0
 10
19.99998507529514
 20
-14.00000677818403
 30
0.0
 10
21.1322157065225
 20
-14.00000677818403
 30
0.0
 10
30.00006374032985
 20
-14.00000677818403
 30
0.0
 10
30.00006374032985
 20
-14.00000677818403
 30
0.0
 10
30.00006374032985
 20
-14.00000677818403
 30
0.0
 10
30.00006374032985
 20
-16.00005696214582
 30
0.0
 10
30.00006374032985
 20
-16.00005696214582
 30
0.0
 10
30.00006374032985
 20
-16.00005696214582
 30
0.0
 10
35.0001030728472
 20
-15.99988470737156
 30
0.0
 10
35.0001030728472
 20
-15.99988470737156
 30
0.0
 10
35.0001030728472
 20
-15.99988470737156
 30
0.0
 10
35.0001030728472
 20
-14.00000677818403
 30
0.0
 10
35.0001030728472
 20
-14.00000677818403
 30
0.0
 10
35.0001030728472
 20
-14.00000677818403
 30
0.0
 10
59.99978297111117
 20
-14.00000677818403
 30
0.0
 10
59.99978297111117
 20
-14.00000677818403
 30
0.0
 10
59.99978297111117
 20
-14.00000677818403
 30
0.0
 10
60.00012748065969
 20
-16.00005696214582
 30
0.0
 10
60.00012748065969
 20
-16.00005696214582
 30
0.0
 10
60.00012748065969
 20
-16.00005696214582
 30
0.0
 10
64.99999455840278
 20
-16.00005696214582
 30
0.0
 10
64.99999455840278
 20
-16.00005696214582
 30
0.0
 10
64.99999455840278
 20
-16.00005696214582
 30
0.0
 10
65.0003390679513
 20
-14.00000677818403
 30
0.0
 10
65.0003390679513
 20
-14.00000677818403
 30
0.0
 10
65.0003390679513
 20
-14.00000677818403
 30
0.0
 10
90.00001896621528
 20
-14.00000677818403
 30
0.0
 10
90.00001896621528
 20
-14.00000677818403
 30
0.0
 10
90.00001896621528
 20
-14.00000677818403
 30
0.0
 10
90.00001896621528
 20
-16.00005696214582
 30
0.0
 10
90.00001896621528
 20
-16.00005696214582
 30
0.0
 10
90.00001896621528
 20
-16.00005696214582
 30
0.0
 10
95.00005829873263
 20
-16.00005696214582
 30
0.0
 10
95.00005829873263
 20
-16.00005696214582
 30
0.0
 10
95.00005829873263
 20
-16.00005696214582
 30
0.0
 10
95.00005829873263
 20
-14.00000677818403
 30
0.0
 10
95.00005829873263
 20
-14.00000677818403
 30
0.0
 10
95.00005829873263
 20
-14.00000677818403
 30
0.0
 10
104.6526990840799
 20
-14.00000677818403
 30
0.0
 10
104.9999647089931
 20
-14.00000677818403
 30
0.0
 10
110.9999430061042
 20
-14.00000677818403
 30
0.0
 10
110.9999430061042
 20
-14.00000677818403
 30
0.0
 10
110.9999430061042
 20
-19.99998507529514
 30
0.0
 10
110.9999430061042
 20
-22.00003525925694
 30
0.0
 10
110.9999430061042
 20
-73.00002303947569
 30
0.0
 10
110.9999430061042
 20
-76.00001218803125
 30
0.0
 10
110.9999430061042
 20
-81.99999048514236
 30
0.0
 10
110.9999430061042
 20
-81.99999048514236
 30
0.0
 10
104.9999647089931
 20
-81.99999048514236
 30
0.0
 10
104.7160888410085
 20
-82.00016273991663
 30
0.0
 10
95.0002305535069
 20
-82.00016273991663
 30
0.0
 10
95.0002305535069
 20
-82.00016273991663
 30
0.0
 10
95.0002305535069
 20
-82.00016273991663
 30
0.0
 10
95.00005829873263
 20
-79.99994030118057
 30
0.0
 10
95.00005829873263
 20
-79.99994030118057
 30
0.0
 10
95.00005829873263
 20
-79.99994030118057
 30
0.0
 10
90.00001896621528
 20
-79.99994030118057
 30
0.0
 10
90.00001896621528
 20
-79.99994030118057
 30
0.0
 10
90.00001896621528
 20
-79.99994030118057
 30
0.0
 10
90.00001896621528
 20
-82.00016273991663
 30
0.0
 10
90.00001896621528
 20
-82.00016273991663
 30
0.0
 10
90.00001896621528
 20
-82.00016273991663
 30
0.0
 10
64.99999455840278
 20
-82.00016273991663
 30
0.0
 10
64.99999455840278
 20
-81.99999048514236
 30
0.0
 10
64.99999455840278
 20
-81.99999048514236
 30
0.0
 10
64.99999455840278
 20
-80.00011255595484
 30
0.0
 10
64.99999455840278
 20
-80.00011255595484
 30
0.0
 10
64.99999455840278
 20
-80.00011255595484
 30
0.0
 10
59.99995522588543
 20
-80.00011255595484
 30
0.0
 10
59.99995522588543
 20
-80.00011255595484
 30
0.0
 10
59.99995522588543
 20
-80.00011255595484
 30
0.0
 10
59.99978297111117
 20
-81.99999048514236
 30
0.0
 10
59.99978297111117
 20
-81.99999048514236
 30
0.0
 10
59.99978297111117
 20
-81.99999048514236
 30
0.0
 10
34.99993081807293
 20
-81.99999048514236
 30
0.0
 10
34.99993081807293
 20
-81.99999048514236
 30
0.0
 10
34.99993081807293
 20
-81.99999048514236
 30
0.0
 10
35.0001030728472
 20
-80.00011255595484
 30
0.0
 10
35.0001030728472
 20
-80.00011255595484
 30
0.0
 10
35.0001030728472
 20
-80.00011255595484
 30
0.0
 10
30.00006374032985
 20
-80.00011255595484
 30
0.0
 10
30.00006374032985
 20
-80.00011255595484
 30
0.0
 10
30.00006374032985
 20
-80.00011255595484
 30
0.0
 10
30.00023599510411
 20
-81.99999048514236
 30
0.0
 10
30.00023599510411
 20
-81.99999048514236
 30
0.0
 10
30.00023599510411
 20
-81.99999048514236
 30
0.0
 10
20.30728759257943
 20
-81.99999048514236
 30
0.0
 10
19.99998507529514
 20
-81.99999048514236
 30
0.0
 10
14.00000677818403
 20
-81.99999048514236
 30
0.0
 10
14.00000677818403
 20
-81.99999048514236
 30
0.0
 10
14.00000677818403
 20
-76.00001218803125
 30
0.0
 10
14.00000677818403
 20
-72.83775904212042
 30
0.0
 10
14.00000677818403
 20
-60.23611652139931
 30
0.0
 10
14.00000677818403
 20
-57.99990504192364
 30
0.0
 10
14.00000677818403
 20
-55.99985485796184
 30
0.0
 10
14.00000677818403
 20
-55.99985485796184
 30
0.0
 10
16.00005696214582
 20
-55.99985485796184
 30
0.0
 10
18.00010714610761
 20
-55.99985485796184
 30
0.0
 10
21.76387396374306
 20
-56.00002711273611
 30
0.0
 10
23.99991318844447
 20
-56.00002711273611
 30
0.0
 10
25.99996337240626
 20
-56.00002711273611
 30
0.0
 10
25.99996337240626
 20
-56.00019936751037
 30
0.0
 10
25.99996337240626
 20
-54.00014918354858
 30
0.0
 10
25.99996337240626
 20
-52.58593748685352
 30
0.0
 10
25.99996337240626
 20
-43.41423203124714
 30
0.0
 10
25.99996337240626
 20
-42.00002033455208
 30
0.0
 10
25.99996337240626
 20
-40.00014240536455
 30
0.0
 10
25.99996337240626
 20
-40.00014240536455
 30
0.0
 10
23.99991318844447
 20
-40.00014240536455
 30
0.0
 10
21.76387396374306
 20
-40.00014240536455
 30
0.0
 10
16.99999592673959
 20
-40.00014240536455
 30
0.0
 10
16.00005696214582
 20
-40.00014240536455
 30
0.0
 10
14.00000677818403
 20
-40.00014240536455
 30
0.0
 10
14.00000677818403
 20
-40.00014240536455
 30
0.0
 10
14.00000677818403
 20
-38.00009222140276
 30
0.0
 10
14.00000677818403
 20
-35.76405299670135
 30
0.0
 10
14.00000677818403
 20
-19.99998507529514
 30
0.0
 10
14.00000677818403
 20
-19.99998507529514
 30
0.0
  0
POLYLINE
  5
41
330
1F
100
AcDbEntity
  8
Layer 1
 62
   250
420
  1842203
370
    18
100
AcDb2dPolyline
 66
     1
 10
0.0
 20
0.0
 30
0.0
  0
VERTEX
  5
42
330
41
100
AcDbEntity
  8
Layer 1
 62
   250
420
  1842203
370
    18
100
AcDbVertex
100
AcDb2dVertex
 10
30.00006374032985
 20
-19.99998507529514
 30
0.0
  0
VERTEX
  5
17A
330
41
100
AcDbEntity
  8
0
100
AcDbVertex
100
AcDb2dVertex
 10
30.00006374032985
 20
-19.99998507529514
 30
0.0
  0
SEQEND
  5
43
330
41
100
AcDbEntity
  8
Layer 1
370
    18
  0
POLYLINE
  5
44
330
1F
100
AcDbEntity
  8
Layer 1
 62
   250
420
  1842203
370
    18
100
AcDb2dPolyline
 66
     1
 10
0.0
 20
0.0
 30
0.0
  0
VERTEX
  5
45
330
44
100
AcDbEntity
  8
Layer 1
 62
   250
420
  1842203
370
    18
100
AcDbVertex
100
AcDb2dVertex
 10
30.00006374032985
 20
-47.9999986316632
 30
0.0
  0
VERTEX
  5
17B
330
44
100
AcDbEntity
  8
0
100
AcDbVertex
100
AcDb2dVertex
 10
30.00006374032985
 20
-47.9999986316632
 30
0.0
  0
SEQEND
  5
46
330
44
100
AcDbEntity
  8
Layer 1
370
    18
  0
POLYLINE
  5
47
330
1F
100
AcDbEntity
  8
Layer 1
 62
   250
420
  1842203
370
    18
100
AcDb2dPolyline
 66
     1
 10
0.0
 20
0.0
 30
0.0
  0
VERTEX
  5
48
330
47
100
AcDbEntity
  8
Layer 1
 62
   250
420
  1842203
370
    18
100
AcDbVertex
100
AcDb2dVertex
 10
40.00014240536455
 20
-16.99999592673959
 30
0.0
  0
VERTEX
  5
49
330
47
100
AcDbEntity
  8
Layer 1
 62
   250
420
  1842203
370
    18
100
AcDbVertex
100
AcDb2dVertex
 10
50.00004881562499
 20
-16.99999592673959
 30
0.0
  0
VERTEX
  5
4A
330
47
100
AcDbEntity
  8
Layer 1
 62
   250
420
  1842203
370
    18
100
AcDbVertex
100
AcDb2dVertex
 10
50.00004881562499
 20
-19.99998507529514
 30
0.0
  0
VERTEX
  5
4B
330
47
100
AcDbEntity
  8
Layer 1
 62
   250
420
  1842203
370
    18
100
AcDbVertex
100
AcDb2dVertex
 10
40.00014240536455
 20
-19.99998507529514
 30
0.0
  0
VERTEX
  5
4C
330
47
100
AcDbEntity
  8
Layer 1
 62
   250
420
  1842203
370
    18
100
AcDbVertex
100
AcDb2dVertex
 10
40.00014240536455
 20
-16.99999592673959
 30
0.0
  0
SEQEND
  5
4D
330
47
100
AcDbEntity
  8
Layer 1
370
    18
  0
POLYLINE
  5
4E
330
1F
100
AcDbEntity
  8
Layer 1
 62
   250
420
  1842203
370
    18
100
AcDb2dPolyline
 66
     1
 10
0.0
 20
0.0
 30
0.0
  0
VERTEX
  5
4F
330
4E
100
AcDbEntity
  8
Layer 1
 62
   250
420
  1842203
370
    18
100
AcDbVertex
100
AcDb2dVertex
 10
85.00015188847219
 20
-16.99999592673959
 30
0.0
  0
VERTEX
  5
50
330
4E
100
AcDbEntity
  8
Layer 1
 62
   250
420
  1842203
370
    18
100
AcDbVertex
100
AcDb2dVertex
 10
85.00015188847219
 20
-19.99998507529514
 30
0.0
  0
VERTEX
  5
51
330
4E
100
AcDbEntity
  8
Layer 1
 62
   250
420
  1842203
370
    18
100
AcDbVertex
100
AcDb2dVertex
 10
75.00007322343748
 20
-19.99998507529514
 30
0.0
  0
VERTEX
  5
52
330
4E
100
AcDbEntity
  8
Layer 1
 62
   250
420
  1842203
370
    18
100
AcDbVertex
100
AcDb2dVertex
 10
75.00007322343748
 20
-16.99999592673959
 30
0.0
  0
VERTEX
  5
53
330
4E
100
AcDbEntity
  8
Layer 1
 62
   250
420
  1842203
370
    18
100
AcDbVertex
100
AcDb2dVertex
 10
85.00015188847219
 20
-16.99999592673959
 30
0.0
  0
SEQEND
  5
54
330
4E
100
AcDbEntity
  8
Layer 1
370
    18
  0
POLYLINE
  5
55
330
1F
100
AcDbEntity
  8
Layer 1
 62
   250
420
  1842203
370
    18
100
AcDb2dPolyline
 66
     1
 10
0.0
 20
0.0
 30
0.0
  0
VERTEX
  5
56
330
55
100
AcDbEntity
  8
Layer 1
 62
   250
420
  1842203
370
    18
100
AcDbVertex
100
AcDb2dVertex
 10
17.00016818151385
 20
-32.00011392429164
 30
0.0
  0
VERTEX
  5
57
330
55
100
AcDbEntity
  8
Layer 1
 62
   250
420
  1842203
370
    18
100
AcDbVertex
100
AcDb2dVertex
 10
20.00015733006941
 20
-32.00011392429164
 30
0.0
  0
VERTEX
  5
58
330
55
100
AcDbEntity
  8
Layer 1
 62
   250
420
  1842203
370
    18
100
AcDbVertex
100
AcDb2dVertex
 10
20.00015733006941
 20
-36.99998100203473
 30
0.0
  0
VERTEX
  5
59
330
55
100
AcDbEntity
  8
Layer 1
 62
   250
420
  1842203
370
    18
100
AcDbVertex
100
AcDb2dVertex
 10
17.00016818151385
 20
-36.99998100203473
 30
0.0
  0
VERTEX
  5
5A
330
55
100
AcDbEntity
  8
Layer 1
 62
   250
420
  1842203
370
    18
100
AcDbVertex
100
AcDb2dVertex
 10
17.00016818151385
 20
-32.00011392429164
 30
0.0
  0
SEQEND
  5
5B
330
55
100
AcDbEntity
  8
Layer 1
370
    18
  0
POLYLINE
  5
5C
330
1F
100
AcDbEntity
  8
Layer 1
 62
   250
420
  1842203
370
    18
100
AcDb2dPolyline
 66
     1
 10
0.0
 20
0.0
 30
0.0
  0
VERTEX
  5
5D
330
5C
100
AcDbEntity
  8
Layer 1
 62
   250
420
  1842203
370
    18
100
AcDbVertex
100
AcDb2dVertex
 10
19.99998507529514
 20
-64.00005559380902
 30
0.0
  0
VERTEX
  5
5E
330
5C
100
AcDbEntity
  8
Layer 1
 62
   250
420
  1842203
370
    18
100
AcDbVertex
100
AcDb2dVertex
 10
16.99999592673959
 20
-64.00005559380902
 30
0.0
  0
VERTEX
  5
5F
330
5C
100
AcDbEntity
  8
Layer 1
 62
   250
420
  1842203
370
    18
100
AcDbVertex
100
AcDb2dVertex
 10
16.99999592673959
 20
-59.00001626129166
 30
0.0
  0
VERTEX
  5
60
330
5C
100
AcDbEntity
  8
Layer 1
 62
   250
420
  1842203
370
    18
100
AcDbVertex
100
AcDb2dVertex
 10
19.99998507529514
 20
-59.00001626129166
 30
0.0
  0
VERTEX
  5
61
330
5C
100
AcDbEntity
  8
Layer 1
 62
   250
420
  1842203
370
    18
100
AcDbVertex
100
AcDb2dVertex
 10
19.99998507529514
 20
-64.00005559380902
 30
0.0
  0
SEQEND
  5
62
330
5C
100
AcDbEntity
  8
Layer 1
370
    18
  0
POLYLINE
  5
63
330
1F
100
AcDbEntity
  8
Layer 1
 62
   250
420
  1842203
370
    18
100
AcDb2dPolyline
 66
     1
 10
0.0
 20
0.0
 30
0.0
  0
VERTEX
  5
64
330
63
100
AcDbEntity
  8
Layer 1
 62
   250
420
  1842203
370
    18
100
AcDbVertex
100
AcDb2dVertex
 10
100.00009763125
 20
-16.99999592673959
 30
0.0
  0
VERTEX
  5
65
330
63
100
AcDbEntity
  8
Layer 1
 62
   250
420
  1842203
370
    18
100
AcDbVertex
100
AcDb2dVertex
 10
108.0001261123229
 20
-16.99999592673959
 30
0.0
  0
VERTEX
  5
66
330
63
100
AcDbEntity
  8
Layer 1
 62
   250
420
  1842203
370
    18
100
AcDbVertex
100
AcDb2dVertex
 10
108.0001261123229
 20
-25.0000244078125
 30
0.0
  0
VERTEX
  5
67
330
63
100
AcDbEntity
  8
Layer 1
 62
   250
420
  1842203
370
    18
100
AcDbVertex
100
AcDb2dVertex
 10
105.0001369637673
 20
-25.0000244078125
 30
0.0
  0
VERTEX
  5
68
330
63
100
AcDbEntity
  8
Layer 1
 62
   250
420
  1842203
370
    18
100
AcDbVertex
100
AcDb2dVertex
 10
105.0003092185416
 20
-19.99998507529514
 30
0.0
  0
VERTEX
  5
69
330
63
100
AcDbEntity
  8
Layer 1
 62
   250
420
  1842203
370
    18
100
AcDbVertex
100
AcDb2dVertex
 10
100.00009763125
 20
-19.99998507529514
 30
0.0
  0
VERTEX
  5
6A
330
63
100
AcDbEntity
  8
Layer 1
 62
   250
420
  1842203
370
    18
100
AcDbVertex
100
AcDb2dVertex
 10
100.00009763125
 20
-16.99999592673959
 30
0.0
  0
SEQEND
  5
6B
330
63
100
AcDbEntity
  8
Layer 1
370
    18
  0
POLYLINE
  5
6C
330
1F
100
AcDbEntity
  8
Layer 1
 62
   250
420
  1842203
370
    18
100
AcDb2dPolyline
 66
     1
 10
0.0
 20
0.0
 30
0.0
  0
VERTEX
  5
6D
330
6C
100
AcDbEntity
  8
Layer 1
 62
   250
420
  1842203
370
    18
100
AcDbVertex
100
AcDb2dVertex
 10
105.0001369637673
 20
-36.99998100203473
 30
0.0
  0
VERTEX
  5
6E
330
6C
100
AcDbEntity
  8
Layer 1
 62
   250
420
  1842203
370
    18
100
AcDbVertex
100
AcDb2dVertex
 10
108.0001261123229
 20
-36.99998100203473
 30
0.0
  0
VERTEX
  5
6F
330
6C
100
AcDbEntity
  8
Layer 1
 62
   250
420
  1842203
370
    18
100
AcDbVertex
100
AcDb2dVertex
 10
108.0001261123229
 20
-42.00002033455208
 30
0.0
  0
VERTEX
  5
70
330
6C
100
AcDbEntity
  8
Layer 1
 62
   250
420
  1842203
370
    18
100
AcDbVertex
100
AcDb2dVertex
 10
105.0001369637673
 20
-42.00002033455208
 30
0.0
  0
VERTEX
  5
71
330
6C
100
AcDbEntity
  8
Layer 1
 62
   250
420
  1842203
370
    18
100
AcDbVertex
100
AcDb2dVertex
 10
105.0001369637673
 20
-36.99998100203473
 30
0.0
  0
SEQEND
  5
72
330
6C
100
AcDbEntity
  8
Layer 1
370
    18
  0
POLYLINE
  5
73
330
1F
100
AcDbEntity
  8
Layer 1
 62
   250
420
  1842203
370
    18
100
AcDb2dPolyline
 66
     1
 10
0.0
 20
0.0
 30
0.0
  0
VERTEX
  5
74
330
73
100
AcDbEntity
  8
Layer 1
 62
   250
420
  1842203
370
    18
100
AcDbVertex
100
AcDb2dVertex
 10
105.0001369637673
 20
-54.00014918354858
 30
0.0
  0
VERTEX
  5
75
330
73
100
AcDbEntity
  8
Layer 1
 62
   250
420
  1842203
370
    18
100
AcDbVertex
100
AcDb2dVertex
 10
108.0001261123229
 20
-54.00014918354858
 30
0.0
  0
VERTEX
  5
76
330
73
100
AcDbEntity
  8
Layer 1
 62
   250
420
  1842203
370
    18
100
AcDbVertex
100
AcDb2dVertex
 10
107.9999538575486
 20
-59.00001626129166
 30
0.0
  0
VERTEX
  5
77
330
73
100
AcDbEntity
  8
Layer 1
 62
   250
420
  1842203
370
    18
100
AcDbVertex
100
AcDb2dVertex
 10
104.9999647089931
 20
-59.00001626129166
 30
0.0
  0
VERTEX
  5
78
330
73
100
AcDbEntity
  8
Layer 1
 62
   250
420
  1842203
370
    18
100
AcDbVertex
100
AcDb2dVertex
 10
105.0001369637673
 20
-54.00014918354858
 30
0.0
  0
SEQEND
  5
79
330
73
100
AcDbEntity
  8
Layer 1
370
    18
  0
POLYLINE
  5
7A
330
1F
100
AcDbEntity
  8
Layer 1
 62
   250
420
  1842203
370
    18
100
AcDb2dPolyline
 66
     1
 10
0.0
 20
0.0
 30
0.0
  0
VERTEX
  5
7B
330
7A
100
AcDbEntity
  8
Layer 1
 62
   250
420
  1842203
370
    18
100
AcDbVertex
100
AcDb2dVertex
 10
105.0001369637673
 20
-71.00014511028816
 30
0.0
  0
VERTEX
  5
7C
330
7A
100
AcDbEntity
  8
Layer 1
 62
   250
420
  1842203
370
    18
100
AcDbVertex
100
AcDb2dVertex
 10
108.0001261123229
 20
-71.00014511028816
 30
0.0
  0
VERTEX
  5
7D
330
7A
100
AcDbEntity
  8
Layer 1
 62
   250
420
  1842203
370
    18
100
AcDbVertex
100
AcDb2dVertex
 10
107.9999538575486
 20
-79.0000013365868
 30
0.0
  0
VERTEX
  5
7E
330
7A
100
AcDbEntity
  8
Layer 1
 62
   250
420
  1842203
370
    18
100
AcDbVertex
100
AcDb2dVertex
 10
100.00009763125
 20
-79.00017359136108
 30
0.0
  0
VERTEX
  5
7F
330
7A
100
AcDbEntity
  8
Layer 1
 62
   250
420
  1842203
370
    18
100
AcDbVertex
100
AcDb2dVertex
 10
100.00009763125
 20
-76.00018444280552
 30
0.0
  0
VERTEX
  5
80
330
7A
100
AcDbEntity
  8
Layer 1
 62
   250
420
  1842203
370
    18
100
AcDbVertex
100
AcDb2dVertex
 10
105.0001369637673
 20
-76.00018444280552
 30
0.0
  0
VERTEX
  5
81
330
7A
100
AcDbEntity
  8
Layer 1
 62
   250
420
  1842203
370
    18
100
AcDbVertex
100
AcDb2dVertex
 10
105.0001369637673
 20
-71.00014511028816
 30
0.0
  0
SEQEND
  5
82
330
7A
100
AcDbEntity
  8
Layer 1
370
    18
  0
POLYLINE
  5
83
330
1F
100
AcDbEntity
  8
Layer 1
 62
   250
420
  1842203
370
    18
100
AcDb2dPolyline
 66
     1
 10
0.0
 20
0.0
 30
0.0
  0
VERTEX
  5
84
330
83
100
AcDbEntity
  8
Layer 1
 62
   250
420
  1842203
370
    18
100
AcDbVertex
100
AcDb2dVertex
 10
85.00015188847219
 20
-76.00001218803125
 30
0.0
  0
VERTEX
  5
85
330
83
100
AcDbEntity
  8
Layer 1
 62
   250
420
  1842203
370
    18
100
AcDbVertex
100
AcDb2dVertex
 10
85.00015188847219
 20
-79.0000013365868
 30
0.0
  0
VERTEX
  5
86
330
83
100
AcDbEntity
  8
Layer 1
 62
   250
420
  1842203
370
    18
100
AcDbVertex
100
AcDb2dVertex
 10
75.00007322343748
 20
-79.0000013365868
 30
0.0
  0
VERTEX
  5
87
330
83
100
AcDbEntity
  8
Layer 1
 62
   250
420
  1842203
370
    18
100
AcDbVertex
100
AcDb2dVertex
 10
75.00007322343748
 20
-76.00001218803125
 30
0.0
  0
VERTEX
  5
88
330
83
100
AcDbEntity
  8
Layer 1
 62
   250
420
  1842203
370
    18
100
AcDbVertex
100
AcDb2dVertex
 10
85.00015188847219
 20
-76.00001218803125
 30
0.0
  0
SEQEND
  5
89
330
83
100
AcDbEntity
  8
Layer 1
370
    18
  0
POLYLINE
  5
8A
330
1F
100
AcDbEntity
  8
Layer 1
 62
   250
420
  1842203
370
    18
100
AcDb2dPolyline
 66
     1
 10
0.0
 20
0.0
 30
0.0
  0
VERTEX
  5
8B
330
8A
100
AcDbEntity
  8
Layer 1
 62
   250
420
  1842203
370
    18
100
AcDbVertex
100
AcDb2dVertex
 10
19.99998507529514
 20
-25.0000244078125
 30
0.0
  0
VERTEX
  5
8C
330
8A
100
AcDbEntity
  8
Layer 1
 62
   250
420
  1842203
370
    18
100
AcDbVertex
100
AcDb2dVertex
 10
16.99999592673959
 20
-25.0000244078125
 30
0.0
  0
VERTEX
  5
8D
330
8A
100
AcDbEntity
  8
Layer 1
 62
   250
420
  1842203
370
    18
100
AcDbVertex
100
AcDb2dVertex
 10
16.99999592673959
 20
-16.99999592673959
 30
0.0
  0
VERTEX
  5
8E
330
8A
100
AcDbEntity
  8
Layer 1
 62
   250
420
  1842203
370
    18
100
AcDbVertex
100
AcDb2dVertex
 10
25.0000244078125
 20
-16.99999592673959
 30
0.0
  0
VERTEX
  5
8F
330
8A
100
AcDbEntity
  8
Layer 1
 62
   250
420
  1842203
370
    18
100
AcDbVertex
100
AcDb2dVertex
 10
25.0000244078125
 20
-19.99998507529514
 30
0.0
  0
VERTEX
  5
90
330
8A
100
AcDbEntity
  8
Layer 1
 62
   250
420
  1842203
370
    18
100
AcDbVertex
100
AcDb2dVertex
 10
19.99998507529514
 20
-19.99998507529514
 30
0.0
  0
VERTEX
  5
91
330
8A
100
AcDbEntity
  8
Layer 1
 62
   250
420
  1842203
370
    18
100
AcDbVertex
100
AcDb2dVertex
 10
19.99998507529514
 20
-25.0000244078125
 30
0.0
  0
SEQEND
  5
92
330
8A
100
AcDbEntity
  8
Layer 1
370
    18
  0
POLYLINE
  5
93
330
1F
100
AcDbEntity
  8
Layer 1
 62
   250
420
  1842203
370
    18
100
AcDb2dPolyline
 66
     1
 10
0.0
 20
0.0
 30
0.0
  0
VERTEX
  5
94
330
93
100
AcDbEntity
  8
Layer 1
 62
   250
420
  1842203
370
    18
100
AcDbVertex
100
AcDb2dVertex
 10
16.99999592673959
 20
-71.00014511028816
 30
0.0
  0
VERTEX
  5
95
330
93
100
AcDbEntity
  8
Layer 1
 62
   250
420
  1842203
370
    18
100
AcDbVertex
100
AcDb2dVertex
 10
19.99998507529514
 20
-71.00014511028816
 30
0.0
  0
VERTEX
  5
96
330
93
100
AcDbEntity
  8
Layer 1
 62
   250
420
  1842203
370
    18
100
AcDbVertex
100
AcDb2dVertex
 10
20.00015733006941
 20
-76.00018444280552
 30
0.0
  0
VERTEX
  5
97
330
93
100
AcDbEntity
  8
Layer 1
 62
   250
420
  1842203
370
    18
100
AcDbVertex
100
AcDb2dVertex
 10
25.0000244078125
 20
-76.00018444280552
 30
0.0
  0
VERTEX
  5
98
330
93
100
AcDbEntity
  8
Layer 1
 62
   250
420
  1842203
370
    18
100
AcDbVertex
100
AcDb2dVertex
 10
25.0000244078125
 20
-79.00017359136108
 30
0.0
  0
VERTEX
  5
99
330
93
100
AcDbEntity
  8
Layer 1
 62
   250
420
  1842203
370
    18
100
AcDbVertex
100
AcDb2dVertex
 10
16.99999592673959
 20
-79.0000013365868
 30
0.0
  0
VERTEX
  5
9A
330
93
100
AcDbEntity
  8
Layer 1
 62
   250
420
  1842203
370
    18
100
AcDbVertex
100
AcDb2dVertex
 10
16.99999592673959
 20
-71.00014511028816
 30
0.0
  0
SEQEND
  5
9B
330
93
100
AcDbEntity
  8
Layer 1
370
    18
  0
SPLINE
  5
9C
330
1F
100
AcDbEntity
  8
Layer 1
 62
   250
420
  1842203
370
    18
100
AcDbSpline
210
0.0
220
0.0
230
1.0
 70
    11
 71
     3
 72
   125
 73
   121
 74
     0
 42
0.0000000001
 43
0.0000000001
 40
0.0
 40
0.0
 40
0.0
 40
0.0
 40
1.0
 40
1.0
 40
1.0
 40
2.0
 40
2.0
 40
2.0
 40
3.0
 40
3.0
 40
3.0
 40
4.0
 40
4.0
 40
4.0
 40
5.0
 40
5.0
 40
5.0
 40
6.0
 40
6.0
 40
6.0
 40
7.0
 40
7.0
 40
7.0
 40
8.0
 40
8.0
 40
8.0
 40
9.0
 40
9.0
 40
9.0
 40
10.0
 40
10.0
 40
10.0
 40
11.0
 40
11.0
 40
11.0
 40
12.0
 40
12.0
 40
12.0
 40
13.0
 40
13.0
 40
13.0
 40
14.0
 40
14.0
 40
14.0
 40
15.0
 40
15.0
 40
15.0
 40
16.0
 40
16.0
 40
16.0
 40
17.0
 40
17.0
 40
17.0
 40
18.0
 40
18.0
 40
18.0
 40
19.0
 40
19.0
 40
19.0
 40
20.0
 40
20.0
 40
20.0
 40
21.0
 40
21.0
 40
21.0
 40
22.0
 40
22.0
 40
22.0
 40
23.0
 40
23.0
 40
23.0
 40
24.0
 40
24.0
 40
24.0
 40
25.0
 40
25.0
 40
25.0
 40
26.0
 40
26.0
 40
26.0
 40
27.0
 40
27.0
 40
27.0
 40
28.0
 40
28.0
 40
28.0
 40
29.0
 40
29.0
 40
29.0
 40
30.0
 40
30.0
 40
30.0
 40
31.0
 40
31.0
 40
31.0
 40
32.0
 40
32.0
 40
32.0
 40
33.0
 40
33.0
 40
33.0
 40
34.0
 40
34.0
 40
34.0
 40
35.0
 40
35.0
 40
35.0
 40
36.0
 40
36.0
 40
36.0
 40
37.0
 40
37.0
 40
37.0
 40
38.0
 40
38.0
 40
38.0
 40
39.0
 40
39.0
 40
39.0
 40
40.0
 40
40.0
 40
40.0
 40
40.0
 10
216.0002522246458
 20
-19.00004611070138
 30
0.0
 10
216.0002522246458
 20
-19.00004611070138
 30
0.0
 10
230.0004312576041
 20
-19.00004611070138
 30
0.0
 10
230.0004312576041
 20
-19.00004611070138
 30
0.0
 10
230.0004312576041
 20
-19.00004611070138
 30
0.0
 10
230.0004312576041
 20
-16.00005696214582
 30
0.0
 10
230.0004312576041
 20
-16.00005696214582
 30
0.0
 10
230.0004312576041
 20
-16.00005696214582
 30
0.0
 10
244.0006102905623
 20
-16.00005696214582
 30
0.0
 10
244.0006102905623
 20
-16.00005696214582
 30
0.0
 10
244.0006102905623
 20
-16.00005696214582
 30
0.0
 10
244.0006102905623
 20
-24.00025769799299
 30
0.0
 10
244.0006102905623
 20
-24.00025769799299
 30
0.0
 10
244.0006102905623
 20
-24.00025769799299
 30
0.0
 10
241.0006211420068
 20
-24.00025769799299
 30
0.0
 10
241.0006211420068
 20
-24.00025769799299
 30
0.0
 10
241.0006211420068
 20
-24.00025769799299
 30
0.0
 10
241.0006211420068
 20
-31.00000270492361
 30
0.0
 10
241.0006211420068
 20
-31.00000270492361
 30
0.0
 10
241.0006211420068
 20
-31.00000270492361
 30
0.0
 10
244.0006102905623
 20
-31.00000270492361
 30
0.0
 10
244.0006102905623
 20
-31.00000270492361
 30
0.0
 10
244.0006102905623
 20
-31.00000270492361
 30
0.0
 10
244.0006102905623
 20
-36.00021429221523
 30
0.0
 10
244.0006102905623
 20
-36.00021429221523
 30
0.0
 10
244.0006102905623
 20
-36.00021429221523
 30
0.0
 10
241.0006211420068
 20
-36.00021429221523
 30
0.0
 10
241.0006211420068
 20
-36.00021429221523
 30
0.0
 10
241.0006211420068
 20
-36.00021429221523
 30
0.0
 10
241.0006211420068
 20
-39.00020344077078
 30
0.0
 10
241.0006211420068
 20
-39.00020344077078
 30
0.0
 10
241.0006211420068
 20
-39.00020344077078
 30
0.0
 10
237.2365098148228
 20
-39.00020344077078
 30
0.0
 10
235.0006428448957
 20
-39.00020344077078
 30
0.0
 10
233.0004204061596
 20
-39.00020344077078
 30
0.0
 10
233.0004204061596
 20
-39.00020344077078
 30
0.0
 10
233.0004204061596
 20
-41.00042587950684
 30
0.0
 10
233.0004204061596
 20
-43.0006483182429
 30
0.0
 10
233.0004204061596
 20
-50.76451550380193
 30
0.0
 10
233.0004204061596
 20
-53.00038247372908
 30
0.0
 10
233.0004204061596
 20
-55.00060491246513
 30
0.0
 10
233.0004204061596
 20
-55.00060491246513
 30
0.0
 10
235.0006428448957
 20
-55.00060491246513
 30
0.0
 10
236.4151990511393
 20
-55.00060491246513
 30
0.0
 10
241.0006211420068
 20
-54.99991589336808
 30
0.0
 10
241.0006211420068
 20
-54.99991589336808
 30
0.0
 10
241.0006211420068
 20
-54.99991589336808
 30
0.0
 10
241.0006211420068
 20
-58.00059406102068
 30
0.0
 10
241.0006211420068
 20
-58.00059406102068
 30
0.0
 10
241.0006211420068
 20
-58.00059406102068
 30
0.0
 10
244.0006102905623
 20
-58.00059406102068
 30
0.0
 10
244.0006102905623
 20
-58.00059406102068
 30
0.0
 10
244.0006102905623
 20
-58.00059406102068
 30
0.0
 10
244.0006102905623
 20
-63.00011662921525
 30
0.0
 10
244.0006102905623
 20
-63.00011662921525
 30
0.0
 10
244.0006102905623
 20
-63.00011662921525
 30
0.0
 10
241.0006211420068
 20
-63.00011662921525
 30
0.0
 10
241.0006211420068
 20
-63.00011662921525
 30
0.0
 10
241.0006211420068
 20
-63.00011662921525
 30
0.0
 10
241.0006211420068
 20
-70.00055065524292
 30
0.0
 10
241.0006211420068
 20
-70.00055065524292
 30
0.0
 10
241.0006211420068
 20
-70.00055065524292
 30
0.0
 10
244.0006102905623
 20
-70.00055065524292
 30
0.0
 10
244.0006102905623
 20
-70.00055065524292
 30
0.0
 10
244.0006102905623
 20
-70.00055065524292
 30
0.0
 10
244.0006102905623
 20
-78.00006237199304
 30
0.0
 10
244.0006102905623
 20
-78.00006237199304
 30
0.0
 10
244.0006102905623
 20
-78.00006237199304
 30
0.0
 10
230.0004312576041
 20
-78.00006237199304
 30
0.0
 10
230.0004312576041
 20
-78.00006237199304
 30
0.0
 10
230.0004312576041
 20
-78.00006237199304
 30
0.0
 10
230.0004312576041
 20
-75.00007322343748
 30
0.0
 10
230.0004312576041
 20
-75.00007322343748
 30
0.0
 10
230.0004312576041
 20
-75.00007322343748
 30
0.0
 10
216.0002522246458
 20
-75.00007322343748
 30
0.0
 10
216.0002522246458
 20
-75.00007322343748
 30
0.0
 10
216.0002522246458
 20
-75.00007322343748
 30
0.0
 10
216.0002522246458
 20
-70.00055065524292
 30
0.0
 10
216.0002522246458
 20
-70.00055065524292
 30
0.0
 10
216.0002522246458
 20
-70.00055065524292
 30
0.0
 10
219.0002413732013
 20
-70.00055065524292
 30
0.0
 10
219.0002413732013
 20
-70.00055065524292
 30
0.0
 10
219.0002413732013
 20
-70.00055065524292
 30
0.0
 10
219.0002413732013
 20
-56.00037162228463
 30
0.0
 10
219.0002413732013
 20
-56.00037162228463
 30
0.0
 10
219.0002413732013
 20
-56.00037162228463
 30
0.0
 10
216.0002522246458
 20
-56.00037162228463
 30
0.0
 10
216.0002522246458
 20
-56.00037162228463
 30
0.0
 10
216.0002522246458
 20
-56.00037162228463
 30
0.0
 10
216.0002522246458
 20
-45.99994844770141
 30
0.0
 10
216.0002522246458
 20
-45.99994844770141
 30
0.0
 10
216.0002522246458
 20
-45.99994844770141
 30
0.0
 10
219.0002413732013
 20
-45.99994844770141
 30
0.0
 10
219.0002413732013
 20
-45.99994844770141
 30
0.0
 10
219.0002413732013
 20
-45.99994844770141
 30
0.0
 10
219.0002413732013
 20
-42.00019258932635
 30
0.0
 10
219.0002413732013
 20
-42.00019258932635
 30
0.0
 10
219.0002413732013
 20
-42.00019258932635
 30
0.0
 10
221.2505777441665
 20
-42.00019258932635
 30
0.0
 10
222.0002305217569
 20
-42.00019258932635
 30
0.0
 10
224.000452960493
 20
-42.00019258932635
 30
0.0
 10
224.0001084509444
 20
-41.99950357022929
 30
0.0
 10
224.0001084509444
 20
-39.99997015059029
 30
0.0
 10
224.0001084509444
 20
-38.99951442167374
 30
0.0
 10
224.000452960493
 20
-28.99943575663903
 30
0.0
 10
224.000452960493
 20
-27.99966904681953
 30
0.0
 10
224.000452960493
 20
-25.99944660808347
 30
0.0
 10
224.000452960493
 20
-25.999791117632
 30
0.0
 10
222.0002305217569
 20
-25.999791117632
 30
0.0
 10
221.2505777441665
 20
-25.999791117632
 30
0.0
 10
219.0002413732013
 20
-25.999791117632
 30
0.0
 10
219.0002413732013
 20
-25.999791117632
 30
0.0
 10
219.0002413732013
 20
-25.999791117632
 30
0.0
 10
219.0002413732013
 20
-24.00025769799299
 30
0.0
 10
219.0002413732013
 20
-24.00025769799299
 30
0.0
 10
219.0002413732013
 20
-24.00025769799299
 30
0.0
 10
216.0002522246458
 20
-24.00025769799299
 30
0.0
 10
216.0002522246458
 20
-24.00025769799299
 30
0.0
 10
216.0002522246458
 20
-24.00025769799299
 30
0.0
 10
216.0002522246458
 20
-19.00004611070138
 30
0.0
 10
216.0002522246458
 20
-19.00004611070138
 30
0.0
  0
POLYLINE
  5
9D
330
1F
100
AcDbEntity
  8
Layer 1
 62
   250
420
  1842203
370
    18
100
AcDb2dPolyline
 66
     1
 10
0.0
 20
0.0
 30
0.0
  0
VERTEX
  5
9E
330
9D
100
AcDbEntity
  8
Layer 1
 62
   250
420
  1842203
370
    18
100
AcDbVertex
100
AcDb2dVertex
 10
160.9999918217292
 20
-84.0007296882012
 30
0.0
  0
VERTEX
  5
9F
330
9D
100
AcDbEntity
  8
Layer 1
 62
   250
420
  1842203
370
    18
100
AcDbVertex
100
AcDb2dVertex
 10
158.9997693829931
 20
-84.00004066910417
 30
0.0
  0
VERTEX
  5
A0
330
9D
100
AcDbEntity
  8
Layer 1
 62
   250
420
  1842203
370
    18
100
AcDbVertex
100
AcDb2dVertex
 10
158.9997693829931
 20
-103.999853489625
 30
0.0
  0
VERTEX
  5
A1
330
9D
100
AcDbEntity
  8
Layer 1
 62
   250
420
  1842203
370
    18
100
AcDbVertex
100
AcDb2dVertex
 10
142.4998290659375
 20
-103.999853489625
 30
0.0
  0
VERTEX
  5
A2
330
9D
100
AcDbEntity
  8
Layer 1
 62
   250
420
  1842203
370
    18
100
AcDbVertex
100
AcDb2dVertex
 10
142.499484556389
 20
-102.999742270257
 30
0.0
  0
VERTEX
  5
A3
330
9D
100
AcDbEntity
  8
Layer 1
 62
   250
420
  1842203
370
    18
100
AcDbVertex
100
AcDb2dVertex
 10
106.9996703834063
 20
-102.999742270257
 30
0.0
  0
VERTEX
  5
A4
330
9D
100
AcDbEntity
  8
Layer 1
 62
   250
420
  1842203
370
    18
100
AcDbVertex
100
AcDb2dVertex
 10
107.0003594025034
 20
-84.00004066910417
 30
0.0
  0
VERTEX
  5
A5
330
9D
100
AcDbEntity
  8
Layer 1
 62
   250
420
  1842203
370
    18
100
AcDbVertex
100
AcDb2dVertex
 10
105.0001369637673
 20
-84.0007296882012
 30
0.0
  0
SEQEND
  5
A6
330
9D
100
AcDbEntity
  8
Layer 1
370
    18
  0
POLYLINE
  5
A7
330
1F
100
AcDbEntity
  8
Layer 1
 62
   250
420
  1842203
370
    18
100
AcDb2dPolyline
 66
     1
 10
0.0
 20
0.0
 30
0.0
  0
VERTEX
  5
A8
330
A7
100
AcDbEntity
  8
Layer 1
 62
   250
420
  1842203
370
    18
100
AcDbVertex
100
AcDb2dVertex
 10
102.0001478152118
 20
-112.0010877541178
 30
0.0
  0
VERTEX
  5
A9
330
A7
100
AcDbEntity
  8
Layer 1
 62
   250
420
  1842203
370
    18
100
AcDbVertex
100
AcDb2dVertex
 10
110.0003485510589
 20
-112.0010877541178
 30
0.0
  0
VERTEX
  5
AA
330
A7
100
AcDbEntity
  8
Layer 1
 62
   250
420
  1842203
370
    18
100
AcDbVertex
100
AcDb2dVertex
 10
110.0003485510589
 20
-109.0010986055622
 30
0.0
  0
VERTEX
  5
AB
330
A7
100
AcDbEntity
  8
Layer 1
 62
   250
420
  1842203
370
    18
100
AcDbVertex
100
AcDb2dVertex
 10
122.0003051452812
 20
-109.0004095864652
 30
0.0
  0
VERTEX
  5
AC
330
A7
100
AcDbEntity
  8
Layer 1
 62
   250
420
  1842203
370
    18
100
AcDbVertex
100
AcDb2dVertex
 10
122.0003051452812
 20
-112.0003987350207
 30
0.0
  0
VERTEX
  5
AD
330
A7
100
AcDbEntity
  8
Layer 1
 62
   250
420
  1842203
370
    18
100
AcDbVertex
100
AcDb2dVertex
 10
126.9996554587015
 20
-112.0003987350207
 30
0.0
  0
VERTEX
  5
AE
330
A7
100
AcDbEntity
  8
Layer 1
 62
   250
420
  1842203
370
    18
100
AcDbVertex
100
AcDb2dVertex
 10
126.9996554587015
 20
-109.0004095864652
 30
0.0
  0
VERTEX
  5
AF
330
A7
100
AcDbEntity
  8
Layer 1
 62
   250
420
  1842203
370
    18
100
AcDbVertex
100
AcDb2dVertex
 10
138.9996120529237
 20
-109.0010986055622
 30
0.0
  0
VERTEX
  5
B0
330
A7
100
AcDbEntity
  8
Layer 1
 62
   250
420
  1842203
370
    18
100
AcDbVertex
100
AcDb2dVertex
 10
138.9996120529237
 20
-112.0010877541178
 30
0.0
  0
VERTEX
  5
B1
330
A7
100
AcDbEntity
  8
Layer 1
 62
   250
420
  1842203
370
    18
100
AcDbVertex
100
AcDb2dVertex
 10
143.9998236402153
 20
-112.0010877541178
 30
0.0
  0
VERTEX
  5
B2
330
A7
100
AcDbEntity
  8
Layer 1
 62
   250
420
  1842203
370
    18
100
AcDbVertex
100
AcDb2dVertex
 10
143.9998236402153
 20
-109.0010986055622
 30
0.0
  0
VERTEX
  5
B3
330
A7
100
AcDbEntity
  8
Layer 1
 62
   250
420
  1842203
370
    18
100
AcDbVertex
100
AcDb2dVertex
 10
155.9997802344376
 20
-109.0010986055622
 30
0.0
  0
VERTEX
  5
B4
330
A7
100
AcDbEntity
  8
Layer 1
 62
   250
420
  1842203
370
    18
100
AcDbVertex
100
AcDb2dVertex
 10
155.9997802344376
 20
-112.0010877541178
 30
0.0
  0
VERTEX
  5
B5
330
A7
100
AcDbEntity
  8
Layer 1
 62
   250
420
  1842203
370
    18
100
AcDbVertex
100
AcDb2dVertex
 10
163.9999809702847
 20
-112.0010877541178
 30
0.0
  0
SEQEND
  5
B6
330
A7
100
AcDbEntity
  8
Layer 1
370
    18
  0
POLYLINE
  5
B7
330
1F
100
AcDbEntity
  8
Layer 1
 62
   250
420
  1842203
370
    18
100
AcDb2dPolyline
 66
     1
 10
0.0
 20
0.0
 30
0.0
  0
VERTEX
  5
B8
330
B7
100
AcDbEntity
  8
Layer 1
 62
   250
420
  1842203
370
    18
100
AcDbVertex
100
AcDb2dVertex
 10
184.0004828099027
 20
-112.0010877541178
 30
0.0
  0
VERTEX
  5
B9
330
B7
100
AcDbEntity
  8
Layer 1
 62
   250
420
  1842203
370
    18
100
AcDbVertex
100
AcDb2dVertex
 10
184.0004828099027
 20
-109.0010986055622
 30
0.0
  0
VERTEX
  5
BA
330
B7
100
AcDbEntity
  8
Layer 1
 62
   250
420
  1842203
370
    18
100
AcDbVertex
100
AcDb2dVertex
 10
169.0001925575764
 20
-109.0010986055622
 30
0.0
  0
VERTEX
  5
BB
330
B7
100
AcDbEntity
  8
Layer 1
 62
   250
420
  1842203
370
    18
100
AcDbVertex
100
AcDb2dVertex
 10
169.0001925575764
 20
-112.0010877541178
 30
0.0
  0
VERTEX
  5
BC
330
B7
100
AcDbEntity
  8
Layer 1
 62
   250
420
  1842203
370
    18
100
AcDbVertex
100
AcDb2dVertex
 10
164.0003254798333
 20
-112.0007432445693
 30
0.0
  0
VERTEX
  5
BD
330
B7
100
AcDbEntity
  8
Layer 1
 62
   250
420
  1842203
370
    18
100
AcDbVertex
100
AcDb2dVertex
 10
164.0003254798333
 20
-98.00125323070803
 30
0.0
  0
VERTEX
  5
BE
330
B7
100
AcDbEntity
  8
Layer 1
 62
   250
420
  1842203
370
    18
100
AcDbVertex
100
AcDb2dVertex
 10
161.0003363312777
 20
-98.00125323070803
 30
0.0
  0
VERTEX
  5
BF
330
B7
100
AcDbEntity
  8
Layer 1
 62
   250
420
  1842203
370
    18
100
AcDbVertex
100
AcDb2dVertex
 10
161.0003363312777
 20
-84.00107419774973
 30
0.0
  0
VERTEX
  5
C0
330
B7
100
AcDbEntity
  8
Layer 1
 62
   250
420
  1842203
370
    18
100
AcDbVertex
100
AcDb2dVertex
 10
169.0001925575764
 20
-84.00107419774973
 30
0.0
  0
VERTEX
  5
C1
330
B7
100
AcDbEntity
  8
Layer 1
 62
   250
420
  1842203
370
    18
100
AcDbVertex
100
AcDb2dVertex
 10
169.0001925575764
 20
-87.00106334630529
 30
0.0
  0
VERTEX
  5
C2
330
B7
100
AcDbEntity
  8
Layer 1
 62
   250
420
  1842203
370
    18
100
AcDbVertex
100
AcDb2dVertex
 10
184.0004828099027
 20
-87.00106334630529
 30
0.0
  0
VERTEX
  5
C3
330
B7
100
AcDbEntity
  8
Layer 1
 62
   250
420
  1842203
370
    18
100
AcDbVertex
100
AcDb2dVertex
 10
184.0004828099027
 20
-84.00107419774973
 30
0.0
  0
VERTEX
  5
C4
330
B7
100
AcDbEntity
  8
Layer 1
 62
   250
420
  1842203
370
    18
100
AcDbVertex
100
AcDb2dVertex
 10
194.0002169653888
 20
-84.00107419774973
 30
0.0
  0
VERTEX
  5
C5
330
B7
100
AcDbEntity
  8
Layer 1
 62
   250
420
  1842203
370
    18
100
AcDbVertex
100
AcDb2dVertex
 10
194.0002169653888
 20
-87.00106334630529
 30
0.0
  0
VERTEX
  5
C6
330
B7
100
AcDbEntity
  8
Layer 1
 62
   250
420
  1842203
370
    18
100
AcDbVertex
100
AcDb2dVertex
 10
219.0002413732013
 20
-87.00106334630529
 30
0.0
  0
VERTEX
  5
C7
330
B7
100
AcDbEntity
  8
Layer 1
 62
   250
420
  1842203
370
    18
100
AcDbVertex
100
AcDb2dVertex
 10
219.0002413732013
 20
-84.00107419774973
 30
0.0
  0
VERTEX
  5
C8
330
B7
100
AcDbEntity
  8
Layer 1
 62
   250
420
  1842203
370
    18
100
AcDbVertex
100
AcDb2dVertex
 10
229.0003200382361
 20
-84.00107419774973
 30
0.0
  0
VERTEX
  5
C9
330
B7
100
AcDbEntity
  8
Layer 1
 62
   250
420
  1842203
370
    18
100
AcDbVertex
100
AcDb2dVertex
 10
229.0003200382361
 20
-87.00106334630529
 30
0.0
  0
VERTEX
  5
CA
330
B7
100
AcDbEntity
  8
Layer 1
 62
   250
420
  1842203
370
    18
100
AcDbVertex
100
AcDb2dVertex
 10
244.0002657810138
 20
-87.00106334630529
 30
0.0
  0
VERTEX
  5
CB
330
B7
100
AcDbEntity
  8
Layer 1
 62
   250
420
  1842203
370
    18
100
AcDbVertex
100
AcDb2dVertex
 10
244.0002657810138
 20
-84.00107419774973
 30
0.0
  0
VERTEX
  5
CC
330
B7
100
AcDbEntity
  8
Layer 1
 62
   250
420
  1842203
370
    18
100
AcDbVertex
100
AcDb2dVertex
 10
252.000466516861
 20
-84.00107419774973
 30
0.0
  0
VERTEX
  5
CD
330
B7
100
AcDbEntity
  8
Layer 1
 62
   250
420
  1842203
370
    18
100
AcDbVertex
100
AcDb2dVertex
 10
252.000466516861
 20
-98.00125323070803
 30
0.0
  0
VERTEX
  5
CE
330
B7
100
AcDbEntity
  8
Layer 1
 62
   250
420
  1842203
370
    18
100
AcDbVertex
100
AcDb2dVertex
 10
249.0004773683054
 20
-98.00125323070803
 30
0.0
  0
VERTEX
  5
CF
330
B7
100
AcDbEntity
  8
Layer 1
 62
   250
420
  1842203
370
    18
100
AcDbVertex
100
AcDb2dVertex
 10
249.0004773683054
 20
-112.0007432445693
 30
0.0
  0
VERTEX
  5
D0
330
B7
100
AcDbEntity
  8
Layer 1
 62
   250
420
  1842203
370
    18
100
AcDbVertex
100
AcDb2dVertex
 10
244.0002657810138
 20
-112.0010877541178
 30
0.0
  0
VERTEX
  5
D1
330
B7
100
AcDbEntity
  8
Layer 1
 62
   250
420
  1842203
370
    18
100
AcDbVertex
100
AcDb2dVertex
 10
244.0002657810138
 20
-109.0010986055622
 30
0.0
  0
VERTEX
  5
D2
330
B7
100
AcDbEntity
  8
Layer 1
 62
   250
420
  1842203
370
    18
100
AcDbVertex
100
AcDb2dVertex
 10
229.0003200382361
 20
-109.0010986055622
 30
0.0
  0
VERTEX
  5
D3
330
B7
100
AcDbEntity
  8
Layer 1
 62
   250
420
  1842203
370
    18
100
AcDbVertex
100
AcDb2dVertex
 10
229.0003200382361
 20
-112.0010877541178
 30
0.0
  0
VERTEX
  5
D4
330
B7
100
AcDbEntity
  8
Layer 1
 62
   250
420
  1842203
370
    18
100
AcDbVertex
100
AcDb2dVertex
 10
219.0002413732013
 20
-112.0010877541178
 30
0.0
  0
VERTEX
  5
D5
330
B7
100
AcDbEntity
  8
Layer 1
 62
   250
420
  1842203
370
    18
100
AcDbVertex
100
AcDb2dVertex
 10
219.0002413732013
 20
-109.0010986055622
 30
0.0
  0
VERTEX
  5
D6
330
B7
100
AcDbEntity
  8
Layer 1
 62
   250
420
  1842203
370
    18
100
AcDbVertex
100
AcDb2dVertex
 10
194.0002169653888
 20
-109.0010986055622
 30
0.0
  0
VERTEX
  5
D7
330
B7
100
AcDbEntity
  8
Layer 1
 62
   250
420
  1842203
370
    18
100
AcDbVertex
100
AcDb2dVertex
 10
194.0002169653888
 20
-112.0010877541178
 30
0.0
  0
VERTEX
  5
D8
330
B7
100
AcDbEntity
  8
Layer 1
 62
   250
420
  1842203
370
    18
100
AcDbVertex
100
AcDb2dVertex
 10
184.0004828099027
 20
-112.0010877541178
 30
0.0
  0
SEQEND
  5
D9
330
B7
100
AcDbEntity
  8
Layer 1
370
    18
  0
SPLINE
  5
DA
330
1F
100
AcDbEntity
  8
Layer 1
 62
   250
420
  1842203
370
    18
100
AcDbSpline
210
0.0
220
0.0
230
1.0
 70
    11
 71
     3
 72
    17
 73
    13
 74
     0
 42
0.0000000001
 43
0.0000000001
 40
0.0
 40
0.0
 40
0.0
 40
0.0
 40
1.0
 40
1.0
 40
1.0
 40
2.0
 40
2.0
 40
2.0
 40
3.0
 40
3.0
 40
3.0
 40
4.0
 40
4.0
 40
4.0
 40
4.0
 10
202.1502793548444
 20
-72.50031193934021
 30
0.0
 10
202.1502793548444
 20
-73.24583060234826
 30
0.0
 10
202.7545491029572
 20
-73.85044486000962
 30
0.0
 10
203.5000677659653
 20
-73.85044486000962
 30
0.0
 10
204.2455864289733
 20
-73.85044486000962
 30
0.0
 10
204.8502006866347
 20
-73.24583060234826
 30
0.0
 10
204.8502006866347
 20
-72.50031193934021
 30
0.0
 10
204.8502006866347
 20
-71.75444876678361
 30
0.0
 10
204.2455864289733
 20
-71.1501790186708
 30
0.0
 10
203.5000677659653
 20
-71.1501790186708
 30
0.0
 10
202.7545491029572
 20
-71.1501790186708
 30
0.0
 10
202.1502793548444
 20
-71.75444876678361
 30
0.0
 10
202.1502793548444
 20
-72.50031193934021
 30
0.0
  0
SPLINE
  5
DB
330
1F
100
AcDbEntity
  8
Layer 1
 62
   250
420
  1842203
370
    18
100
AcDbSpline
210
0.0
220
0.0
230
1.0
 70
    11
 71
     3
 72
    17
 73
    13
 74
     0
 42
0.0000000001
 43
0.0000000001
 40
0.0
 40
0.0
 40
0.0
 40
0.0
 40
1.0
 40
1.0
 40
1.0
 40
2.0
 40
2.0
 40
2.0
 40
3.0
 40
3.0
 40
3.0
 40
4.0
 40
4.0
 40
4.0
 40
4.0
 10
202.1502793548444
 20
-23.50037434308324
 30
0.0
 10
202.1502793548444
 20
-24.2458930060913
 30
0.0
 10
202.7545491029572
 20
-24.85016275420413
 30
0.0
 10
203.5000677659653
 20
-24.85016275420413
 30
0.0
 10
204.2455864289733
 20
-24.85016275420413
 30
0.0
 10
204.8502006866347
 20
-24.2458930060913
 30
0.0
 10
204.8502006866347
 20
-23.50037434308324
 30
0.0
 10
204.8502006866347
 20
-22.75451117052665
 30
0.0
 10
204.2455864289733
 20
-22.14989691286531
 30
0.0
 10
203.5000677659653
 20
-22.14989691286531
 30
0.0
 10
202.7545491029572
 20
-22.14989691286531
 30
0.0
 10
202.1502793548444
 20
-22.75451117052665
 30
0.0
 10
202.1502793548444
 20
-23.50037434308324
 30
0.0
  0
SPLINE
  5
DC
330
1F
100
AcDbEntity
  8
Layer 1
 62
   250
420
  1842203
370
    18
100
AcDbSpline
210
0.0
220
0.0
230
1.0
 70
    11
 71
     3
 72
    17
 73
    13
 74
     0
 42
0.0000000001
 43
0.0000000001
 40
0.0
 40
0.0
 40
0.0
 40
0.0
 40
1.0
 40
1.0
 40
1.0
 40
2.0
 40
2.0
 40
2.0
 40
3.0
 40
3.0
 40
3.0
 40
4.0
 40
4.0
 40
4.0
 40
4.0
 10
144.1500298033722
 20
-72.50031193934021
 30
0.0
 10
144.1500298033722
 20
-73.24583060234826
 30
0.0
 10
144.7546440610336
 20
-73.85044486000962
 30
0.0
 10
145.5001627240416
 20
-73.85044486000962
 30
0.0
 10
146.2456813870497
 20
-73.85044486000962
 30
0.0
 10
146.8499511351625
 20
-73.24583060234826
 30
0.0
 10
146.8499511351625
 20
-72.50031193934021
 30
0.0
 10
146.8499511351625
 20
-71.75444876678361
 30
0.0
 10
146.2456813870497
 20
-71.1501790186708
 30
0.0
 10
145.5001627240416
 20
-71.1501790186708
 30
0.0
 10
144.7546440610336
 20
-71.1501790186708
 30
0.0
 10
144.1500298033722
 20
-71.75444876678361
 30
0.0
 10
144.1500298033722
 20
-72.50031193934021
 30
0.0
  0
SPLINE
  5
DD
330
1F
100
AcDbEntity
  8
Layer 1
 62
   250
420
  1842203
370
    18
100
AcDbSpline
210
0.0
220
0.0
230
1.0
 70
    11
 71
     3
 72
    17
 73
    13
 74
     0
 42
0.0000000001
 43
0.0000000001
 40
0.0
 40
0.0
 40
0.0
 40
0.0
 40
1.0
 40
1.0
 40
1.0
 40
2.0
 40
2.0
 40
2.0
 40
3.0
 40
3.0
 40
3.0
 40
4.0
 40
4.0
 40
4.0
 40
4.0
 10
144.1500298033722
 20
-23.50037434308324
 30
0.0
 10
144.1500298033722
 20
-24.2458930060913
 30
0.0
 10
144.7546440610336
 20
-24.85016275420413
 30
0.0
 10
145.5001627240416
 20
-24.85016275420413
 30
0.0
 10
146.2456813870497
 20
-24.85016275420413
 30
0.0
 10
146.8499511351625
 20
-24.2458930060913
 30
0.0
 10
146.8499511351625
 20
-23.50037434308324
 30
0.0
 10
146.8499511351625
 20
-22.75451117052665
 30
0.0
 10
146.2456813870497
 20
-22.14989691286531
 30
0.0
 10
145.5001627240416
 20
-22.14989691286531
 30
0.0
 10
144.7546440610336
 20
-22.14989691286531
 30
0.0
 10
144.1500298033722
 20
-22.75451117052665
 30
0.0
 10
144.1500298033722
 20
-23.50037434308324
 30
0.0
  0
SPLINE
  5
DE
330
1F
100
AcDbEntity
  8
Layer 1
 62
   250
420
  1842203
370
    18
100
AcDbSpline
210
0.0
220
0.0
230
1.0
 70
    11
 71
     3
 72
   125
 73
   121
 74
     0
 42
0.0000000001
 43
0.0000000001
 40
0.0
 40
0.0
 40
0.0
 40
0.0
 40
1.0
 40
1.0
 40
1.0
 40
2.0
 40
2.0
 40
2.0
 40
3.0
 40
3.0
 40
3.0
 40
4.0
 40
4.0
 40
4.0
 40
5.0
 40
5.0
 40
5.0
 40
6.0
 40
6.0
 40
6.0
 40
7.0
 40
7.0
 40
7.0
 40
8.0
 40
8.0
 40
8.0
 40
9.0
 40
9.0
 40
9.0
 40
10.0
 40
10.0
 40
10.0
 40
11.0
 40
11.0
 40
11.0
 40
12.0
 40
12.0
 40
12.0
 40
13.0
 40
13.0
 40
13.0
 40
14.0
 40
14.0
 40
14.0
 40
15.0
 40
15.0
 40
15.0
 40
16.0
 40
16.0
 40
16.0
 40
17.0
 40
17.0
 40
17.0
 40
18.0
 40
18.0
 40
18.0
 40
19.0
 40
19.0
 40
19.0
 40
20.0
 40
20.0
 40
20.0
 40
21.0
 40
21.0
 40
21.0
 40
22.0
 40
22.0
 40
22.0
 40
23.0
 40
23.0
 40
23.0
 40
24.0
 40
24.0
 40
24.0
 40
25.0
 40
25.0
 40
25.0
 40
26.0
 40
26.0
 40
26.0
 40
27.0
 40
27.0
 40
27.0
 40
28.0
 40
28.0
 40
28.0
 40
29.0
 40
29.0
 40
29.0
 40
30.0
 40
30.0
 40
30.0
 40
31.0
 40
31.0
 40
31.0
 40
32.0
 40
32.0
 40
32.0
 40
33.0
 40
33.0
 40
33.0
 40
34.0
 40
34.0
 40
34.0
 40
35.0
 40
35.0
 40
35.0
 40
36.0
 40
36.0
 40
36.0
 40
37.0
 40
37.0
 40
37.0
 40
38.0
 40
38.0
 40
38.0
 40
39.0
 40
39.0
 40
39.0
 40
40.0
 40
40.0
 40
40.0
 40
40.0
 10
213.0002630760902
 20
-76.00018444280552
 30
0.0
 10
213.0002630760902
 20
-82.00016273991663
 30
0.0
 10
213.0002630760902
 20
-82.00016273991663
 30
0.0
 10
207.0002847789791
 20
-82.00016273991663
 30
0.0
 10
206.1524467800591
 20
-82.00016273991663
 30
0.0
 10
197.0005506234929
 20
-82.00016273991663
 30
0.0
 10
197.0005506234929
 20
-82.00016273991663
 30
0.0
 10
197.0005506234929
 20
-82.00016273991663
 30
0.0
 10
197.0005506234929
 20
-80.0002848107291
 30
0.0
 10
197.0005506234929
 20
-80.0002848107291
 30
0.0
 10
197.0005506234929
 20
-80.0002848107291
 30
0.0
 10
192.0003390362013
 20
-80.0002848107291
 30
0.0
 10
192.0003390362013
 20
-80.0002848107291
 30
0.0
 10
192.0003390362013
 20
-80.0002848107291
 30
0.0
 10
192.0006835457498
 20
-82.00016273991663
 30
0.0
 10
192.0006835457498
 20
-82.00016273991663
 30
0.0
 10
192.0006835457498
 20
-82.00016273991663
 30
0.0
 10
167.0006591379373
 20
-82.00016273991663
 30
0.0
 10
167.0006591379373
 20
-82.00016273991663
 30
0.0
 10
167.0006591379373
 20
-82.00016273991663
 30
0.0
 10
167.0003146283888
 20
-80.0002848107291
 30
0.0
 10
167.0003146283888
 20
-80.0002848107291
 30
0.0
 10
167.0003146283888
 20
-80.0002848107291
 30
0.0
 10
162.0004475506457
 20
-80.0002848107291
 30
0.0
 10
162.0004475506457
 20
-80.0002848107291
 30
0.0
 10
162.0004475506457
 20
-80.0002848107291
 30
0.0
 10
162.0004475506457
 20
-82.00016273991663
 30
0.0
 10
162.0004475506457
 20
-82.00016273991663
 30
0.0
 10
162.0004475506457
 20
-82.00016273991663
 30
0.0
 10
137.0004231428332
 20
-82.00016273991663
 30
0.0
 10
137.0004231428332
 20
-82.00016273991663
 30
0.0
 10
137.0004231428332
 20
-82.00016273991663
 30
0.0
 10
137.0004231428332
 20
-80.0002848107291
 30
0.0
 10
137.0004231428332
 20
-80.0002848107291
 30
0.0
 10
137.0004231428332
 20
-80.0002848107291
 30
0.0
 10
132.0005560650901
 20
-80.0002848107291
 30
0.0
 10
132.0005560650901
 20
-80.0002848107291
 30
0.0
 10
132.0005560650901
 20
-80.0002848107291
 30
0.0
 10
132.0005560650901
 20
-82.00016273991663
 30
0.0
 10
132.0005560650901
 20
-82.00016273991663
 30
0.0
 10
132.0005560650901
 20
-82.00016273991663
 30
0.0
 10
122.1565402255373
 20
-82.00016273991663
 30
0.0
 10
122.0001328905069
 20
-82.00016273991663
 30
0.0
 10
116.0001545933958
 20
-82.00016273991663
 30
0.0
 10
116.0001545933958
 20
-82.00016273991663
 30
0.0
 10
116.0001545933958
 20
-76.00018444280552
 30
0.0
 10
116.0001545933958
 20
-73.99996200406946
 30
0.0
 10
116.0001545933958
 20
-23.00014647862496
 30
0.0
 10
116.0001545933958
 20
-20.00015733006941
 30
0.0
 10
116.0001545933958
 20
-14.00017903295829
 30
0.0
 10
116.0001545933958
 20
-14.00017903295829
 30
0.0
 10
122.0001328905069
 20
-14.00017903295829
 30
0.0
 10
122.1675645310901
 20
-14.00017903295829
 30
0.0
 10
133.0006672844582
 20
-14.00017903295829
 30
0.0
 10
133.0006672844582
 20
-14.00017903295829
 30
0.0
 10
133.0006672844582
 20
-14.00017903295829
 30
0.0
 10
133.0006672844582
 20
-16.00040147169435
 30
0.0
 10
133.0006672844582
 20
-16.00040147169435
 30
0.0
 10
133.0006672844582
 20
-16.00040147169435
 30
0.0
 10
138.0005343622013
 20
-16.00040147169435
 30
0.0
 10
138.0005343622013
 20
-16.00040147169435
 30
0.0
 10
138.0005343622013
 20
-16.00040147169435
 30
0.0
 10
138.0005343622013
 20
-14.00017903295829
 30
0.0
 10
138.0005343622013
 20
-14.00017903295829
 30
0.0
 10
138.0005343622013
 20
-14.00017903295829
 30
0.0
 10
162.0004475506457
 20
-14.00017903295829
 30
0.0
 10
162.0004475506457
 20
-14.00017903295829
 30
0.0
 10
162.0004475506457
 20
-14.00017903295829
 30
0.0
 10
162.0004475506457
 20
-16.00040147169435
 30
0.0
 10
162.0004475506457
 20
-16.00040147169435
 30
0.0
 10
162.0004475506457
 20
-16.00040147169435
 30
0.0
 10
167.0003146283888
 20
-16.00040147169435
 30
0.0
 10
167.0003146283888
 20
-16.00040147169435
 30
0.0
 10
167.0003146283888
 20
-16.00040147169435
 30
0.0
 10
167.0006591379373
 20
-14.00017903295829
 30
0.0
 10
167.0006591379373
 20
-14.00017903295829
 30
0.0
 10
167.0006591379373
 20
-14.00017903295829
 30
0.0
 10
192.0006835457498
 20
-14.00017903295829
 30
0.0
 10
192.0006835457498
 20
-14.00017903295829
 30
0.0
 10
192.0006835457498
 20
-14.00017903295829
 30
0.0
 10
192.0003390362013
 20
-16.00040147169435
 30
0.0
 10
192.0003390362013
 20
-16.00040147169435
 30
0.0
 10
192.0003390362013
 20
-16.00040147169435
 30
0.0
 10
197.0005506234929
 20
-16.00040147169435
 30
0.0
 10
197.0005506234929
 20
-16.00040147169435
 30
0.0
 10
197.0005506234929
 20
-16.00040147169435
 30
0.0
 10
197.0005506234929
 20
-14.00017903295829
 30
0.0
 10
197.0005506234929
 20
-14.00017903295829
 30
0.0
 10
197.0005506234929
 20
-14.00017903295829
 30
0.0
 10
206.5834282252639
 20
-14.00017903295829
 30
0.0
 10
207.0002847789791
 20
-14.00017903295829
 30
0.0
 10
213.0002630760902
 20
-14.00017903295829
 30
0.0
 10
213.0002630760902
 20
-14.00017903295829
 30
0.0
 10
213.0002630760902
 20
-20.00015733006941
 30
0.0
 10
213.0002630760902
 20
-23.16241047598023
 30
0.0
 10
213.0002630760902
 20
-22.76432969265961
 30
0.0
 10
213.0002630760902
 20
-25.00019666258676
 30
0.0
 10
213.0002630760902
 20
-27.00041910132281
 30
0.0
 10
213.0002630760902
 20
-27.00024684654855
 30
0.0
 10
211.0003851469027
 20
-27.00024684654855
 30
0.0
 10
209.0005072177152
 20
-27.00024684654855
 30
0.0
 10
201.2366400321561
 20
-27.00024684654855
 30
0.0
 10
199.0000840431319
 20
-27.00024684654855
 30
0.0
 10
197.0005506234929
 20
-27.00024684654855
 30
0.0
 10
197.0005506234929
 20
-27.00041910132281
 30
0.0
 10
197.0005506234929
 20
-29.00029703051034
 30
0.0
 10
197.0005506234929
 20
-30.41485323675393
 30
0.0
 10
197.0005506234929
 20
-39.58621418281178
 30
0.0
 10
197.0005506234929
 20
-41.00042587950684
 30
0.0
 10
197.0005506234929
 20
-43.00030380869437
 30
0.0
 10
197.0005506234929
 20
-43.00030380869437
 30
0.0
 10
199.0004285526805
 20
-43.00030380869437
 30
0.0
 10
201.2366400321561
 20
-43.00030380869437
 30
0.0
 10
210.0006184370832
 20
-43.00030380869437
 30
0.0
 10
211.0007296564512
 20
-43.00030380869437
 30
0.0
 10
213.0006075856387
 20
-43.00030380869437
 30
0.0
 10
213.0002630760902
 20
-43.00013155392011
 30
0.0
 10
213.0002630760902
 20
-45.00035399265617
 30
0.0
 10
213.0002630760902
 20
-47.23622096258331
 30
0.0
 10
213.0002630760902
 20
-76.00018444280552
 30
0.0
 10
213.0002630760902
 20
-76.00018444280552
 30
0.0
  0
POLYLINE
  5
DF
330
1F
100
AcDbEntity
  8
Layer 1
 62
   250
420
  1842203
370
    18
100
AcDb2dPolyline
 66
     1
 10
0.0
 20
0.0
 30
0.0
  0
VERTEX
  5
E0
330
DF
100
AcDbEntity
  8
Layer 1
 62
   250
420
  1842203
370
    18
100
AcDbVertex
100
AcDb2dVertex
 10
187.0001274489097
 20
-79.00017359136108
 30
0.0
  0
VERTEX
  5
E1
330
DF
100
AcDbEntity
  8
Layer 1
 62
   250
420
  1842203
370
    18
100
AcDbVertex
100
AcDb2dVertex
 10
177.000048783875
 20
-79.00017359136108
 30
0.0
  0
VERTEX
  5
E2
330
DF
100
AcDbEntity
  8
Layer 1
 62
   250
420
  1842203
370
    18
100
AcDbVertex
100
AcDb2dVertex
 10
177.000048783875
 20
-76.00018444280552
 30
0.0
  0
VERTEX
  5
E3
330
DF
100
AcDbEntity
  8
Layer 1
 62
   250
420
  1842203
370
    18
100
AcDbVertex
100
AcDb2dVertex
 10
187.0001274489097
 20
-76.00018444280552
 30
0.0
  0
VERTEX
  5
E4
330
DF
100
AcDbEntity
  8
Layer 1
 62
   250
420
  1842203
370
    18
100
AcDbVertex
100
AcDb2dVertex
 10
187.0001274489097
 20
-79.00017359136108
 30
0.0
  0
SEQEND
  5
E5
330
DF
100
AcDbEntity
  8
Layer 1
370
    18
  0
POLYLINE
  5
E6
330
1F
100
AcDbEntity
  8
Layer 1
 62
   250
420
  1842203
370
    18
100
AcDb2dPolyline
 66
     1
 10
0.0
 20
0.0
 30
0.0
  0
VERTEX
  5
E7
330
E6
100
AcDbEntity
  8
Layer 1
 62
   250
420
  1842203
370
    18
100
AcDbVertex
100
AcDb2dVertex
 10
141.9999457110278
 20
-79.00017359136108
 30
0.0
  0
VERTEX
  5
E8
330
E6
100
AcDbEntity
  8
Layer 1
 62
   250
420
  1842203
370
    18
100
AcDbVertex
100
AcDb2dVertex
 10
141.9999457110278
 20
-76.00018444280552
 30
0.0
  0
VERTEX
  5
E9
330
E6
100
AcDbEntity
  8
Layer 1
 62
   250
420
  1842203
370
    18
100
AcDbVertex
100
AcDb2dVertex
 10
151.999679866514
 20
-76.00018444280552
 30
0.0
  0
VERTEX
  5
EA
330
E6
100
AcDbEntity
  8
Layer 1
 62
   250
420
  1842203
370
    18
100
AcDbVertex
100
AcDb2dVertex
 10
151.999679866514
 20
-79.00017359136108
 30
0.0
  0
VERTEX
  5
EB
330
E6
100
AcDbEntity
  8
Layer 1
 62
   250
420
  1842203
370
    18
100
AcDbVertex
100
AcDb2dVertex
 10
141.9999457110278
 20
-79.00017359136108
 30
0.0
  0
SEQEND
  5
EC
330
E6
100
AcDbEntity
  8
Layer 1
370
    18
  0
POLYLINE
  5
ED
330
1F
100
AcDbEntity
  8
Layer 1
 62
   250
420
  1842203
370
    18
100
AcDb2dPolyline
 66
     1
 10
0.0
 20
0.0
 30
0.0
  0
VERTEX
  5
EE
330
ED
100
AcDbEntity
  8
Layer 1
 62
   250
420
  1842203
370
    18
100
AcDbVertex
100
AcDb2dVertex
 10
207.0002847789791
 20
-47.00023192184369
 30
0.0
  0
VERTEX
  5
EF
330
ED
100
AcDbEntity
  8
Layer 1
 62
   250
420
  1842203
370
    18
100
AcDbVertex
100
AcDb2dVertex
 10
210.0002739275347
 20
-47.00023192184369
 30
0.0
  0
VERTEX
  5
F0
330
ED
100
AcDbEntity
  8
Layer 1
 62
   250
420
  1842203
370
    18
100
AcDbVertex
100
AcDb2dVertex
 10
210.0002739275347
 20
-57.0003105868784
 30
0.0
  0
VERTEX
  5
F1
330
ED
100
AcDbEntity
  8
Layer 1
 62
   250
420
  1842203
370
    18
100
AcDbVertex
100
AcDb2dVertex
 10
207.0002847789791
 20
-57.0003105868784
 30
0.0
  0
VERTEX
  5
F2
330
ED
100
AcDbEntity
  8
Layer 1
 62
   250
420
  1842203
370
    18
100
AcDbVertex
100
AcDb2dVertex
 10
207.0002847789791
 20
-47.00023192184369
 30
0.0
  0
SEQEND
  5
F3
330
ED
100
AcDbEntity
  8
Layer 1
370
    18
  0
POLYLINE
  5
F4
330
1F
100
AcDbEntity
  8
Layer 1
 62
   250
420
  1842203
370
    18
100
AcDb2dPolyline
 66
     1
 10
0.0
 20
0.0
 30
0.0
  0
VERTEX
  5
F5
330
F4
100
AcDbEntity
  8
Layer 1
 62
   250
420
  1842203
370
    18
100
AcDbVertex
100
AcDb2dVertex
 10
141.9999457110278
 20
-20.00015733006941
 30
0.0
  0
VERTEX
  5
F6
330
F4
100
AcDbEntity
  8
Layer 1
 62
   250
420
  1842203
370
    18
100
AcDbVertex
100
AcDb2dVertex
 10
141.9999457110278
 20
-17.00016818151385
 30
0.0
  0
VERTEX
  5
F7
330
F4
100
AcDbEntity
  8
Layer 1
 62
   250
420
  1842203
370
    18
100
AcDbVertex
100
AcDb2dVertex
 10
151.999679866514
 20
-17.00016818151385
 30
0.0
  0
VERTEX
  5
F8
330
F4
100
AcDbEntity
  8
Layer 1
 62
   250
420
  1842203
370
    18
100
AcDbVertex
100
AcDb2dVertex
 10
151.999679866514
 20
-20.00015733006941
 30
0.0
  0
VERTEX
  5
F9
330
F4
100
AcDbEntity
  8
Layer 1
 62
   250
420
  1842203
370
    18
100
AcDbVertex
100
AcDb2dVertex
 10
141.9999457110278
 20
-20.00015733006941
 30
0.0
  0
SEQEND
  5
FA
330
F4
100
AcDbEntity
  8
Layer 1
370
    18
  0
POLYLINE
  5
FB
330
1F
100
AcDbEntity
  8
Layer 1
 62
   250
420
  1842203
370
    18
100
AcDb2dPolyline
 66
     1
 10
0.0
 20
0.0
 30
0.0
  0
VERTEX
  5
FC
330
FB
100
AcDbEntity
  8
Layer 1
 62
   250
420
  1842203
370
    18
100
AcDbVertex
100
AcDb2dVertex
 10
36.99998100203473
 20
-112.0010877541178
 30
0.0
  0
VERTEX
  5
FD
330
FB
100
AcDbEntity
  8
Layer 1
 62
   250
420
  1842203
370
    18
100
AcDbVertex
100
AcDb2dVertex
 10
36.99998100203473
 20
-109.0010986055622
 30
0.0
  0
VERTEX
  5
FE
330
FB
100
AcDbEntity
  8
Layer 1
 62
   250
420
  1842203
370
    18
100
AcDbVertex
100
AcDb2dVertex
 10
21.99986300448267
 20
-109.0010986055622
 30
0.0
  0
VERTEX
  5
FF
330
FB
100
AcDbEntity
  8
Layer 1
 62
   250
420
  1842203
370
    18
100
AcDbVertex
100
AcDb2dVertex
 10
21.99986300448267
 20
-112.0010877541178
 30
0.0
  0
VERTEX
  5
100
330
FB
100
AcDbEntity
  8
Layer 1
 62
   250
420
  1842203
370
    18
100
AcDbVertex
100
AcDb2dVertex
 10
16.99982367196532
 20
-112.0010877541178
 30
0.0
  0
VERTEX
  5
101
330
FB
100
AcDbEntity
  8
Layer 1
 62
   250
420
  1842203
370
    18
100
AcDbVertex
100
AcDb2dVertex
 10
16.99982367196532
 20
-98.00159774025654
 30
0.0
  0
VERTEX
  5
102
330
FB
100
AcDbEntity
  8
Layer 1
 62
   250
420
  1842203
370
    18
100
AcDbVertex
100
AcDb2dVertex
 10
13.99983452340976
 20
-98.00159774025654
 30
0.0
  0
VERTEX
  5
103
330
FB
100
AcDbEntity
  8
Layer 1
 62
   250
420
  1842203
370
    18
100
AcDbVertex
100
AcDb2dVertex
 10
14.00000677818403
 20
-84.001246452524
 30
0.0
  0
VERTEX
  5
104
330
FB
100
AcDbEntity
  8
Layer 1
 62
   250
420
  1842203
370
    18
100
AcDbVertex
100
AcDb2dVertex
 10
21.99986300448267
 20
-84.001246452524
 30
0.0
  0
VERTEX
  5
105
330
FB
100
AcDbEntity
  8
Layer 1
 62
   250
420
  1842203
370
    18
100
AcDbVertex
100
AcDb2dVertex
 10
21.99986300448267
 20
-87.00123560107956
 30
0.0
  0
VERTEX
  5
106
330
FB
100
AcDbEntity
  8
Layer 1
 62
   250
420
  1842203
370
    18
100
AcDbVertex
100
AcDb2dVertex
 10
36.99998100203473
 20
-87.00123560107956
 30
0.0
  0
VERTEX
  5
107
330
FB
100
AcDbEntity
  8
Layer 1
 62
   250
420
  1842203
370
    18
100
AcDbVertex
100
AcDb2dVertex
 10
36.99998100203473
 20
-84.001246452524
 30
0.0
  0
VERTEX
  5
108
330
FB
100
AcDbEntity
  8
Layer 1
 62
   250
420
  1842203
370
    18
100
AcDbVertex
100
AcDb2dVertex
 10
46.99988741229517
 20
-84.001246452524
 30
0.0
  0
VERTEX
  5
109
330
FB
100
AcDbEntity
  8
Layer 1
 62
   250
420
  1842203
370
    18
100
AcDbVertex
100
AcDb2dVertex
 10
46.99988741229517
 20
-87.00123560107956
 30
0.0
  0
VERTEX
  5
10A
330
FB
100
AcDbEntity
  8
Layer 1
 62
   250
420
  1842203
370
    18
100
AcDbVertex
100
AcDb2dVertex
 10
71.99991182010767
 20
-87.00123560107956
 30
0.0
  0
VERTEX
  5
10B
330
FB
100
AcDbEntity
  8
Layer 1
 62
   250
420
  1842203
370
    18
100
AcDbVertex
100
AcDb2dVertex
 10
71.99991182010767
 20
-84.001246452524
 30
0.0
  0
VERTEX
  5
10C
330
FB
100
AcDbEntity
  8
Layer 1
 62
   250
420
  1842203
370
    18
100
AcDbVertex
100
AcDb2dVertex
 10
81.99999048514236
 20
-84.001246452524
 30
0.0
  0
VERTEX
  5
10D
330
FB
100
AcDbEntity
  8
Layer 1
 62
   250
420
  1842203
370
    18
100
AcDbVertex
100
AcDb2dVertex
 10
81.99999048514236
 20
-87.00123560107956
 30
0.0
  0
VERTEX
  5
10E
330
FB
100
AcDbEntity
  8
Layer 1
 62
   250
420
  1842203
370
    18
100
AcDbVertex
100
AcDb2dVertex
 10
96.99993622792016
 20
-87.00123560107956
 30
0.0
  0
VERTEX
  5
10F
330
FB
100
AcDbEntity
  8
Layer 1
 62
   250
420
  1842203
370
    18
100
AcDbVertex
100
AcDb2dVertex
 10
96.99993622792016
 20
-84.001246452524
 30
0.0
  0
VERTEX
  5
110
330
FB
100
AcDbEntity
  8
Layer 1
 62
   250
420
  1842203
370
    18
100
AcDbVertex
100
AcDb2dVertex
 10
105.0001369637673
 20
-84.001246452524
 30
0.0
  0
VERTEX
  5
111
330
FB
100
AcDbEntity
  8
Layer 1
 62
   250
420
  1842203
370
    18
100
AcDbVertex
100
AcDb2dVertex
 10
104.9996201994445
 20
-98.00159774025654
 30
0.0
  0
VERTEX
  5
112
330
FB
100
AcDbEntity
  8
Layer 1
 62
   250
420
  1842203
370
    18
100
AcDbVertex
100
AcDb2dVertex
 10
101.999631050889
 20
-98.00159774025654
 30
0.0
  0
VERTEX
  5
113
330
FB
100
AcDbEntity
  8
Layer 1
 62
   250
420
  1842203
370
    18
100
AcDbVertex
100
AcDb2dVertex
 10
101.9999755604375
 20
-112.0010877541178
 30
0.0
  0
VERTEX
  5
114
330
FB
100
AcDbEntity
  8
Layer 1
 62
   250
420
  1842203
370
    18
100
AcDbVertex
100
AcDb2dVertex
 10
96.99993622792016
 20
-112.0010877541178
 30
0.0
  0
VERTEX
  5
115
330
FB
100
AcDbEntity
  8
Layer 1
 62
   250
420
  1842203
370
    18
100
AcDbVertex
100
AcDb2dVertex
 10
96.99993622792016
 20
-109.0010986055622
 30
0.0
  0
VERTEX
  5
116
330
FB
100
AcDbEntity
  8
Layer 1
 62
   250
420
  1842203
370
    18
100
AcDbVertex
100
AcDb2dVertex
 10
81.99999048514236
 20
-109.0010986055622
 30
0.0
  0
VERTEX
  5
117
330
FB
100
AcDbEntity
  8
Layer 1
 62
   250
420
  1842203
370
    18
100
AcDbVertex
100
AcDb2dVertex
 10
81.99999048514236
 20
-112.0010877541178
 30
0.0
  0
VERTEX
  5
118
330
FB
100
AcDbEntity
  8
Layer 1
 62
   250
420
  1842203
370
    18
100
AcDbVertex
100
AcDb2dVertex
 10
71.99991182010767
 20
-112.0010877541178
 30
0.0
  0
VERTEX
  5
119
330
FB
100
AcDbEntity
  8
Layer 1
 62
   250
420
  1842203
370
    18
100
AcDbVertex
100
AcDb2dVertex
 10
71.99991182010767
 20
-109.0010986055622
 30
0.0
  0
VERTEX
  5
11A
330
FB
100
AcDbEntity
  8
Layer 1
 62
   250
420
  1842203
370
    18
100
AcDbVertex
100
AcDb2dVertex
 10
46.99988741229517
 20
-109.0010986055622
 30
0.0
  0
VERTEX
  5
11B
330
FB
100
AcDbEntity
  8
Layer 1
 62
   250
420
  1842203
370
    18
100
AcDbVertex
100
AcDb2dVertex
 10
46.99988741229517
 20
-112.0010877541178
 30
0.0
  0
VERTEX
  5
11C
330
FB
100
AcDbEntity
  8
Layer 1
 62
   250
420
  1842203
370
    18
100
AcDbVertex
100
AcDb2dVertex
 10
36.99998100203473
 20
-112.0010877541178
 30
0.0
  0
SEQEND
  5
11D
330
FB
100
AcDbEntity
  8
Layer 1
370
    18
  0
POLYLINE
  5
11E
330
1F
100
AcDbEntity
  8
Layer 1
 62
   250
420
  1842203
370
    18
100
AcDb2dPolyline
 66
     1
 10
0.0
 20
0.0
 30
0.0
  0
VERTEX
  5
11F
330
11E
100
AcDbEntity
  8
Layer 1
 62
   250
420
  1842203
370
    18
100
AcDbVertex
100
AcDb2dVertex
 10
177.000048783875
 20
-20.00015733006941
 30
0.0
  0
VERTEX
  5
120
330
11E
100
AcDbEntity
  8
Layer 1
 62
   250
420
  1842203
370
    18
100
AcDbVertex
100
AcDb2dVertex
 10
177.000048783875
 20
-17.00016818151385
 30
0.0
  0
VERTEX
  5
121
330
11E
100
AcDbEntity
  8
Layer 1
 62
   250
420
  1842203
370
    18
100
AcDbVertex
100
AcDb2dVertex
 10
186.9997829393612
 20
-17.00016818151385
 30
0.0
  0
VERTEX
  5
122
330
11E
100
AcDbEntity
  8
Layer 1
 62
   250
420
  1842203
370
    18
100
AcDbVertex
100
AcDb2dVertex
 10
186.9997829393612
 20
-20.00015733006941
 30
0.0
  0
VERTEX
  5
123
330
11E
100
AcDbEntity
  8
Layer 1
 62
   250
420
  1842203
370
    18
100
AcDbVertex
100
AcDb2dVertex
 10
177.000048783875
 20
-20.00015733006941
 30
0.0
  0
SEQEND
  5
124
330
11E
100
AcDbEntity
  8
Layer 1
370
    18
  0
SPLINE
  5
125
330
1F
100
AcDbEntity
  8
Layer 1
 62
   250
420
  1842203
370
    18
100
AcDbSpline
210
0.0
220
0.0
230
1.0
 70
    11
 71
     3
 72
    17
 73
    13
 74
     0
 42
0.0000000001
 43
0.0000000001
 40
0.0
 40
0.0
 40
0.0
 40
0.0
 40
1.0
 40
1.0
 40
1.0
 40
2.0
 40
2.0
 40
2.0
 40
3.0
 40
3.0
 40
3.0
 40
4.0
 40
4.0
 40
4.0
 40
4.0
 10
74.99990096866323
 20
-101.0019313983606
 30
0.0
 10
74.99990096866323
 20
-98.79224715412138
 30
0.0
 10
73.20896808065609
 20
-97.00131426611426
 30
0.0
 10
70.99980060073963
 20
-97.00131426611426
 30
0.0
 10
68.79080537559744
 20
-97.00131426611426
 30
0.0
 10
66.99987248759031
 20
-98.79224715412138
 30
0.0
 10
66.99987248759031
 20
-101.0019313983606
 30
0.0
 10
66.99987248759031
 20
-103.2105821139543
 30
0.0
 10
68.79080537559744
 20
-105.0013427471872
 30
0.0
 10
70.99980060073963
 20
-105.0013427471872
 30
0.0
 10
73.20896808065609
 20
-105.0013427471872
 30
0.0
 10
74.99990096866323
 20
-103.2105821139543
 30
0.0
 10
74.99990096866323
 20
-101.0019313983606
 30
0.0
  0
SPLINE
  5
126
330
1F
100
AcDbEntity
  8
Layer 1
 62
   250
420
  1842203
370
    18
100
AcDbSpline
210
0.0
220
0.0
230
1.0
 70
    11
 71
     3
 72
    29
 73
    25
 74
     0
 42
0.0000000001
 43
0.0000000001
 40
0.0
 40
0.0
 40
0.0
 40
0.0
 40
1.0
 40
1.0
 40
1.0
 40
2.0
 40
2.0
 40
2.0
 40
3.0
 40
3.0
 40
3.0
 40
4.0
 40
4.0
 40
4.0
 40
5.0
 40
5.0
 40
5.0
 40
6.0
 40
6.0
 40
6.0
 40
7.0
 40
7.0
 40
7.0
 40
8.0
 40
8.0
 40
8.0
 40
8.0
 10
20.99975178511465
 20
-99.00136445007605
 30
0.0
 10
20.99975178511465
 20
-97.00131426611426
 30
0.0
 10
20.99975178511465
 20
-97.00131426611426
 30
0.0
 10
22.99980196907644
 20
-97.00131426611426
 30
0.0
 10
24.99985215303823
 20
-97.00131426611426
 30
0.0
 10
59.00018851606593
 20
-97.00165877566279
 30
0.0
 10
61.00006644525346
 20
-97.00165877566279
 30
0.0
 10
62.99994437444099
 20
-97.00165877566279
 30
0.0
 10
62.99994437444099
 20
-97.00165877566279
 30
0.0
 10
62.99994437444099
 20
-99.0020534691731
 30
0.0
 10
62.99994437444099
 20
-101.0015868888121
 30
0.0
 10
62.99994437444099
 20
-105.0016872567357
 30
0.0
 10
62.99994437444099
 20
-106.0014539665552
 30
0.0
 10
62.99994437444099
 20
-107.0012206763747
 30
0.0
 10
63.00011662921525
 20
-107.0012206763747
 30
0.0
 10
61.00006644525346
 20
-107.0012206763747
 30
0.0
 10
59.00001626129166
 20
-107.0012206763747
 30
0.0
 10
24.99950764348971
 20
-107.0008761668262
 30
0.0
 10
22.99962971430218
 20
-107.0008761668262
 30
0.0
 10
20.99975178511465
 20
-107.0008761668262
 30
0.0
 10
20.99975178511465
 20
-107.0008761668262
 30
0.0
 10
20.99975178511465
 20
-105.0013427471872
 30
0.0
 10
20.99975178511465
 20
-103.0011203084511
 30
0.0
 10
20.99975178511465
 20
-101.0015868888121
 30
0.0
 10
20.99975178511465
 20
-99.00136445007605
 30
0.0
  0
POLYLINE
  5
127
330
1F
100
AcDbEntity
  8
Layer 1
 62
   250
420
  1842203
370
    18
100
AcDb2dPolyline
 66
     1
 10
0.0
 20
0.0
 30
0.0
  0
VERTEX
  5
128
330
127
100
AcDbEntity
  8
Layer 1
 62
   250
420
  1842203
370
    18
100
AcDbVertex
100
AcDb2dVertex
 10
50.00004881562499
 20
-76.00018444280552
 30
0.0
  0
VERTEX
  5
129
330
127
100
AcDbEntity
  8
Layer 1
 62
   250
420
  1842203
370
    18
100
AcDbVertex
100
AcDb2dVertex
 10
50.00004881562499
 20
-79.00017359136108
 30
0.0
  0
VERTEX
  5
12A
330
127
100
AcDbEntity
  8
Layer 1
 62
   250
420
  1842203
370
    18
100
AcDbVertex
100
AcDb2dVertex
 10
39.99997015059029
 20
-79.00017359136108
 30
0.0
  0
VERTEX
  5
12B
330
127
100
AcDbEntity
  8
Layer 1
 62
   250
420
  1842203
370
    18
100
AcDbVertex
100
AcDb2dVertex
 10
39.99997015059029
 20
-76.00018444280552
 30
0.0
  0
VERTEX
  5
12C
330
127
100
AcDbEntity
  8
Layer 1
 62
   250
420
  1842203
370
    18
100
AcDbVertex
100
AcDb2dVertex
 10
50.00004881562499
 20
-76.00018444280552
 30
0.0
  0
SEQEND
  5
12D
330
127
100
AcDbEntity
  8
Layer 1
370
    18
  0
POLYLINE
  5
12E
330
1F
100
AcDbEntity
  8
Layer 1
 62
   250
420
  1842203
370
    18
100
AcDb2dPolyline
 66
     1
 10
0.0
 20
0.0
 30
0.0
  0
VERTEX
  5
12F
330
12E
100
AcDbEntity
  8
Layer 1
 62
   250
420
  1842203
370
    18
100
AcDbVertex
100
AcDb2dVertex
 10
209.9999294179862
 20
-25.0000244078125
 30
0.0
  0
VERTEX
  5
130
330
12E
100
AcDbEntity
  8
Layer 1
 62
   250
420
  1842203
370
    18
100
AcDbVertex
100
AcDb2dVertex
 10
206.9999402694306
 20
-25.0000244078125
 30
0.0
  0
VERTEX
  5
131
330
12E
100
AcDbEntity
  8
Layer 1
 62
   250
420
  1842203
370
    18
100
AcDbVertex
100
AcDb2dVertex
 10
206.9995957598821
 20
-20.00015733006941
 30
0.0
  0
VERTEX
  5
132
330
12E
100
AcDbEntity
  8
Layer 1
 62
   250
420
  1842203
370
    18
100
AcDbVertex
100
AcDb2dVertex
 10
202.0000731916875
 20
-20.00015733006941
 30
0.0
  0
VERTEX
  5
133
330
12E
100
AcDbEntity
  8
Layer 1
 62
   250
420
  1842203
370
    18
100
AcDbVertex
100
AcDb2dVertex
 10
202.0000731916875
 20
-17.00016818151385
 30
0.0
  0
VERTEX
  5
134
330
12E
100
AcDbEntity
  8
Layer 1
 62
   250
420
  1842203
370
    18
100
AcDbVertex
100
AcDb2dVertex
 10
209.9999294179862
 20
-17.00016818151385
 30
0.0
  0
VERTEX
  5
135
330
12E
100
AcDbEntity
  8
Layer 1
 62
   250
420
  1842203
370
    18
100
AcDbVertex
100
AcDb2dVertex
 10
209.9999294179862
 20
-25.0000244078125
 30
0.0
  0
SEQEND
  5
136
330
12E
100
AcDbEntity
  8
Layer 1
370
    18
  0
POLYLINE
  5
137
330
1F
100
AcDbEntity
  8
Layer 1
 62
   250
420
  1842203
370
    18
100
AcDb2dPolyline
 66
     1
 10
0.0
 20
0.0
 30
0.0
  0
VERTEX
  5
138
330
137
100
AcDbEntity
  8
Layer 1
 62
   250
420
  1842203
370
    18
100
AcDbVertex
100
AcDb2dVertex
 10
206.9999402694306
 20
-70.9999728555139
 30
0.0
  0
VERTEX
  5
139
330
137
100
AcDbEntity
  8
Layer 1
 62
   250
420
  1842203
370
    18
100
AcDbVertex
100
AcDb2dVertex
 10
209.9999294179862
 20
-70.9999728555139
 30
0.0
  0
VERTEX
  5
13A
330
137
100
AcDbEntity
  8
Layer 1
 62
   250
420
  1842203
370
    18
100
AcDbVertex
100
AcDb2dVertex
 10
209.9999294179862
 20
-79.00017359136108
 30
0.0
  0
VERTEX
  5
13B
330
137
100
AcDbEntity
  8
Layer 1
 62
   250
420
  1842203
370
    18
100
AcDbVertex
100
AcDb2dVertex
 10
202.0000731916875
 20
-79.00017359136108
 30
0.0
  0
VERTEX
  5
13C
330
137
100
AcDbEntity
  8
Layer 1
 62
   250
420
  1842203
370
    18
100
AcDbVertex
100
AcDb2dVertex
 10
202.0000731916875
 20
-76.00018444280552
 30
0.0
  0
VERTEX
  5
13D
330
137
100
AcDbEntity
  8
Layer 1
 62
   250
420
  1842203
370
    18
100
AcDbVertex
100
AcDb2dVertex
 10
206.9999402694306
 20
-76.00018444280552
 30
0.0
  0
VERTEX
  5
13E
330
137
100
AcDbEntity
  8
Layer 1
 62
   250
420
  1842203
370
    18
100
AcDbVertex
100
AcDb2dVertex
 10
206.9999402694306
 20
-70.9999728555139
 30
0.0
  0
SEQEND
  5
13F
330
137
100
AcDbEntity
  8
Layer 1
370
    18
  0
POLYLINE
  5
140
330
1F
100
AcDbEntity
  8
Layer 1
 62
   250
420
  1842203
370
    18
100
AcDb2dPolyline
 66
     1
 10
0.0
 20
0.0
 30
0.0
  0
VERTEX
  5
141
330
140
100
AcDbEntity
  8
Layer 1
 62
   250
420
  1842203
370
    18
100
AcDbVertex
100
AcDb2dVertex
 10
122.0001328905069
 20
-22.0002075140312
 30
0.0
  0
VERTEX
  5
142
330
140
100
AcDbEntity
  8
Layer 1
 62
   250
420
  1842203
370
    18
100
AcDbVertex
100
AcDb2dVertex
 10
119.0001437419514
 20
-22.0002075140312
 30
0.0
  0
VERTEX
  5
143
330
140
100
AcDbEntity
  8
Layer 1
 62
   250
420
  1842203
370
    18
100
AcDbVertex
100
AcDb2dVertex
 10
119.0001437419514
 20
-17.00016818151385
 30
0.0
  0
VERTEX
  5
144
330
140
100
AcDbEntity
  8
Layer 1
 62
   250
420
  1842203
370
    18
100
AcDbVertex
100
AcDb2dVertex
 10
126.99999996825
 20
-17.00016818151385
 30
0.0
  0
VERTEX
  5
145
330
140
100
AcDbEntity
  8
Layer 1
 62
   250
420
  1842203
370
    18
100
AcDbVertex
100
AcDb2dVertex
 10
126.99999996825
 20
-20.00015733006941
 30
0.0
  0
VERTEX
  5
146
330
140
100
AcDbEntity
  8
Layer 1
 62
   250
420
  1842203
370
    18
100
AcDbVertex
100
AcDb2dVertex
 10
121.9997883809584
 20
-20.00015733006941
 30
0.0
  0
VERTEX
  5
147
330
140
100
AcDbEntity
  8
Layer 1
 62
   250
420
  1842203
370
    18
100
AcDbVertex
100
AcDb2dVertex
 10
122.0001328905069
 20
-22.0002075140312
 30
0.0
  0
SEQEND
  5
148
330
140
100
AcDbEntity
  8
Layer 1
370
    18
  0
POLYLINE
  5
149
330
1F
100
AcDbEntity
  8
Layer 1
 62
   250
420
  1842203
370
    18
100
AcDb2dPolyline
 66
     1
 10
0.0
 20
0.0
 30
0.0
  0
VERTEX
  5
14A
330
149
100
AcDbEntity
  8
Layer 1
 62
   250
420
  1842203
370
    18
100
AcDbVertex
100
AcDb2dVertex
 10
126.99999996825
 20
-79.00017359136108
 30
0.0
  0
VERTEX
  5
14B
330
149
100
AcDbEntity
  8
Layer 1
 62
   250
420
  1842203
370
    18
100
AcDbVertex
100
AcDb2dVertex
 10
118.9997992324028
 20
-79.00017359136108
 30
0.0
  0
VERTEX
  5
14C
330
149
100
AcDbEntity
  8
Layer 1
 62
   250
420
  1842203
370
    18
100
AcDbVertex
100
AcDb2dVertex
 10
118.9997992324028
 20
-73.99996200406946
 30
0.0
  0
VERTEX
  5
14D
330
149
100
AcDbEntity
  8
Layer 1
 62
   250
420
  1842203
370
    18
100
AcDbVertex
100
AcDb2dVertex
 10
121.9997883809584
 20
-73.99996200406946
 30
0.0
  0
VERTEX
  5
14E
330
149
100
AcDbEntity
  8
Layer 1
 62
   250
420
  1842203
370
    18
100
AcDbVertex
100
AcDb2dVertex
 10
121.9997883809584
 20
-76.00018444280552
 30
0.0
  0
VERTEX
  5
14F
330
149
100
AcDbEntity
  8
Layer 1
 62
   250
420
  1842203
370
    18
100
AcDbVertex
100
AcDb2dVertex
 10
126.99999996825
 20
-76.00018444280552
 30
0.0
  0
VERTEX
  5
150
330
149
100
AcDbEntity
  8
Layer 1
 62
   250
420
  1842203
370
    18
100
AcDbVertex
100
AcDb2dVertex
 10
126.99999996825
 20
-79.00017359136108
 30
0.0
  0
SEQEND
  5
151
330
149
100
AcDbEntity
  8
Layer 1
370
    18
  0
SPLINE
  5
152
330
1F
100
AcDbEntity
  8
Layer 1
 62
   250
420
  1842203
370
    18
100
AcDbSpline
210
0.0
220
0.0
230
1.0
 70
    11
 71
     3
 72
    29
 73
    25
 74
     0
 42
0.0000000001
 43
0.0000000001
 40
0.0
 40
0.0
 40
0.0
 40
0.0
 40
1.0
 40
1.0
 40
1.0
 40
2.0
 40
2.0
 40
2.0
 40
3.0
 40
3.0
 40
3.0
 40
4.0
 40
4.0
 40
4.0
 40
5.0
 40
5.0
 40
5.0
 40
6.0
 40
6.0
 40
6.0
 40
7.0
 40
7.0
 40
7.0
 40
8.0
 40
8.0
 40
8.0
 40
8.0
 10
228.4997476642292
 20
-59.00001626129166
 30
0.0
 10
227.6715467095752
 20
-59.00001626129166
 30
0.0
 10
226.9997530899515
 20
-59.67146537136686
 30
0.0
 10
226.9997530899515
 20
-60.50001083556945
 30
0.0
 10
226.9997530899515
 20
-60.50001083556945
 30
0.0
 10
226.9997530899515
 20
-69.49997828123612
 30
0.0
 10
226.9997530899515
 20
-69.49997828123612
 30
0.0
 10
226.9997530899515
 20
-70.3285237454387
 30
0.0
 10
227.6715467095752
 20
-70.9999728555139
 30
0.0
 10
228.4997476642292
 20
-70.9999728555139
 30
0.0
 10
228.4997476642292
 20
-70.9999728555139
 30
0.0
 10
228.4997476642292
 20
-70.9999728555139
 30
0.0
 10
228.4997476642292
 20
-70.9999728555139
 30
0.0
 10
229.3286376379804
 20
-70.9999728555139
 30
0.0
 10
229.999742238507
 20
-70.3285237454387
 30
0.0
 10
229.999742238507
 20
-69.49997828123612
 30
0.0
 10
229.999742238507
 20
-69.49997828123612
 30
0.0
 10
229.999742238507
 20
-60.50001083556945
 30
0.0
 10
229.999742238507
 20
-60.50001083556945
 30
0.0
 10
229.999742238507
 20
-59.67146537136686
 30
0.0
 10
229.3286376379804
 20
-59.00001626129166
 30
0.0
 10
228.4997476642292
 20
-59.00001626129166
 30
0.0
 10
228.4997476642292
 20
-59.00001626129166
 30
0.0
 10
228.4997476642292
 20
-59.00001626129166
 30
0.0
 10
228.4997476642292
 20
-59.00001626129166
 30
0.0
  0
SPLINE
  5
153
330
1F
100
AcDbEntity
  8
Layer 1
 62
   250
420
  1842203
370
    18
100
AcDbSpline
210
0.0
220
0.0
230
1.0
 70
    11
 71
     3
 72
    29
 73
    25
 74
     0
 42
0.0000000001
 43
0.0000000001
 40
0.0
 40
0.0
 40
0.0
 40
0.0
 40
1.0
 40
1.0
 40
1.0
 40
2.0
 40
2.0
 40
2.0
 40
3.0
 40
3.0
 40
3.0
 40
4.0
 40
4.0
 40
4.0
 40
5.0
 40
5.0
 40
5.0
 40
6.0
 40
6.0
 40
6.0
 40
7.0
 40
7.0
 40
7.0
 40
8.0
 40
8.0
 40
8.0
 40
8.0
 10
233.5006482706179
 20
-23.00014647862496
 30
0.0
 10
232.6717582968668
 20
-23.00014647862496
 30
0.0
 10
231.9999646772431
 20
-23.67159558870016
 30
0.0
 10
231.9999646772431
 20
-24.50014105290274
 30
0.0
 10
231.9999646772431
 20
-24.50014105290274
 30
0.0
 10
231.9999646772431
 20
-33.50010849856942
 30
0.0
 10
231.9999646772431
 20
-33.50010849856942
 30
0.0
 10
231.9999646772431
 20
-34.328653962772
 30
0.0
 10
232.6717582968668
 20
-35.0001030728472
 30
0.0
 10
233.5006482706179
 20
-35.0001030728472
 30
0.0
 10
233.5006482706179
 20
-35.0001030728472
 30
0.0
 10
233.5006482706179
 20
-35.0001030728472
 30
0.0
 10
233.5006482706179
 20
-35.0001030728472
 30
0.0
 10
234.328849225272
 20
-35.0001030728472
 30
0.0
 10
235.0006428448957
 20
-34.328653962772
 30
0.0
 10
235.0006428448957
 20
-33.50010849856942
 30
0.0
 10
235.0006428448957
 20
-33.50010849856942
 30
0.0
 10
235.0006428448957
 20
-24.50014105290274
 30
0.0
 10
235.0006428448957
 20
-24.50014105290274
 30
0.0
 10
235.0006428448957
 20
-23.67159558870016
 30
0.0
 10
234.328849225272
 20
-23.00014647862496
 30
0.0
 10
233.5006482706179
 20
-23.00014647862496
 30
0.0
 10
233.5006482706179
 20
-23.00014647862496
 30
0.0
 10
233.5006482706179
 20
-23.00014647862496
 30
0.0
 10
233.5006482706179
 20
-23.00014647862496
 30
0.0
  0
SPLINE
  5
154
330
1F
100
AcDbEntity
  8
Layer 1
 62
   250
420
  1842203
370
    18
100
AcDbSpline
210
0.0
220
0.0
230
1.0
 70
    11
 71
     3
 72
    29
 73
    25
 74
     0
 42
0.0000000001
 43
0.0000000001
 40
0.0
 40
0.0
 40
0.0
 40
0.0
 40
1.0
 40
1.0
 40
1.0
 40
2.0
 40
2.0
 40
2.0
 40
3.0
 40
3.0
 40
3.0
 40
4.0
 40
4.0
 40
4.0
 40
5.0
 40
5.0
 40
5.0
 40
6.0
 40
6.0
 40
6.0
 40
7.0
 40
7.0
 40
7.0
 40
8.0
 40
8.0
 40
8.0
 40
8.0
 10
233.4999592515209
 20
-59.00001626129166
 30
0.0
 10
232.6717582968668
 20
-59.00001626129166
 30
0.0
 10
231.9999646772431
 20
-59.67146537136686
 30
0.0
 10
231.9999646772431
 20
-60.50001083556945
 30
0.0
 10
231.9999646772431
 20
-60.50001083556945
 30
0.0
 10
231.9999646772431
 20
-69.49997828123612
 30
0.0
 10
231.9999646772431
 20
-69.49997828123612
 30
0.0
 10
231.9999646772431
 20
-70.3285237454387
 30
0.0
 10
232.6717582968668
 20
-70.9999728555139
 30
0.0
 10
233.4999592515209
 20
-70.9999728555139
 30
0.0
 10
233.4999592515209
 20
-70.9999728555139
 30
0.0
 10
233.4999592515209
 20
-70.9999728555139
 30
0.0
 10
233.4999592515209
 20
-70.9999728555139
 30
0.0
 10
234.328849225272
 20
-70.9999728555139
 30
0.0
 10
234.9999538257986
 20
-70.3285237454387
 30
0.0
 10
234.9999538257986
 20
-69.49997828123612
 30
0.0
 10
234.9999538257986
 20
-69.49997828123612
 30
0.0
 10
234.9999538257986
 20
-60.50001083556945
 30
0.0
 10
234.9999538257986
 20
-60.50001083556945
 30
0.0
 10
234.9999538257986
 20
-59.67146537136686
 30
0.0
 10
234.328849225272
 20
-59.00001626129166
 30
0.0
 10
233.4999592515209
 20
-59.00001626129166
 30
0.0
 10
233.4999592515209
 20
-59.00001626129166
 30
0.0
 10
233.4999592515209
 20
-59.00001626129166
 30
0.0
 10
233.4999592515209
 20
-59.00001626129166
 30
0.0
  0
SPLINE
  5
155
330
1F
100
AcDbEntity
  8
Layer 1
 62
   250
420
  1842203
370
    18
100
AcDbSpline
210
0.0
220
0.0
230
1.0
 70
    11
 71
     3
 72
    29
 73
    25
 74
     0
 42
0.0000000001
 43
0.0000000001
 40
0.0
 40
0.0
 40
0.0
 40
0.0
 40
1.0
 40
1.0
 40
1.0
 40
2.0
 40
2.0
 40
2.0
 40
3.0
 40
3.0
 40
3.0
 40
4.0
 40
4.0
 40
4.0
 40
5.0
 40
5.0
 40
5.0
 40
6.0
 40
6.0
 40
6.0
 40
7.0
 40
7.0
 40
7.0
 40
8.0
 40
8.0
 40
8.0
 40
8.0
 10
228.5004366833263
 20
-23.00014647862496
 30
0.0
 10
227.6715467095752
 20
-23.00014647862496
 30
0.0
 10
227.0004421090485
 20
-23.67159558870016
 30
0.0
 10
227.0004421090485
 20
-24.50014105290274
 30
0.0
 10
227.0004421090485
 20
-24.50014105290274
 30
0.0
 10
227.0004421090485
 20
-33.50010849856942
 30
0.0
 10
227.0004421090485
 20
-33.50010849856942
 30
0.0
 10
227.0004421090485
 20
-34.328653962772
 30
0.0
 10
227.6715467095752
 20
-35.0001030728472
 30
0.0
 10
228.5004366833263
 20
-35.0001030728472
 30
0.0
 10
228.5004366833263
 20
-35.0001030728472
 30
0.0
 10
228.5004366833263
 20
-35.0001030728472
 30
0.0
 10
228.5004366833263
 20
-35.0001030728472
 30
0.0
 10
229.3286376379804
 20
-35.0001030728472
 30
0.0
 10
230.0004312576041
 20
-34.328653962772
 30
0.0
 10
230.0004312576041
 20
-33.50010849856942
 30
0.0
 10
230.0004312576041
 20
-33.50010849856942
 30
0.0
 10
230.0004312576041
 20
-24.50014105290274
 30
0.0
 10
230.0004312576041
 20
-24.50014105290274
 30
0.0
 10
230.0004312576041
 20
-23.67159558870016
 30
0.0
 10
229.3286376379804
 20
-23.00014647862496
 30
0.0
 10
228.5004366833263
 20
-23.00014647862496
 30
0.0
 10
228.5004366833263
 20
-23.00014647862496
 30
0.0
 10
228.5004366833263
 20
-23.00014647862496
 30
0.0
 10
228.5004366833263
 20
-23.00014647862496
 30
0.0
  0
SPLINE
  5
156
330
1F
100
AcDbEntity
  8
Layer 1
 62
   250
420
  1842203
370
    18
100
AcDbSpline
210
0.0
220
0.0
230
1.0
 70
    11
 71
     3
 72
    29
 73
    25
 74
     0
 42
0.0000000001
 43
0.0000000001
 40
0.0
 40
0.0
 40
0.0
 40
0.0
 40
1.0
 40
1.0
 40
1.0
 40
2.0
 40
2.0
 40
2.0
 40
3.0
 40
3.0
 40
3.0
 40
4.0
 40
4.0
 40
4.0
 40
5.0
 40
5.0
 40
5.0
 40
6.0
 40
6.0
 40
6.0
 40
7.0
 40
7.0
 40
7.0
 40
8.0
 40
8.0
 40
8.0
 40
8.0
 10
70.9999728555139
 20
-43.00013155392011
 30
0.0
 10
70.9999728555139
 20
-42.4477104928603
 30
0.0
 10
70.51645370415909
 20
-42.00002033455208
 30
0.0
 10
69.91976316611381
 20
-42.00002033455208
 30
0.0
 10
69.91976316611381
 20
-42.00002033455208
 30
0.0
 10
45.08028020791396
 20
-42.00002033455208
 30
0.0
 10
45.08028020791396
 20
-42.00002033455208
 30
0.0
 10
44.48358966986869
 20
-42.00002033455208
 30
0.0
 10
44.00007051851387
 20
-42.4477104928603
 30
0.0
 10
44.00007051851387
 20
-43.00013155392011
 30
0.0
 10
44.00007051851387
 20
-43.00013155392011
 30
0.0
 10
44.00007051851387
 20
-43.00013155392011
 30
0.0
 10
44.00007051851387
 20
-43.00013155392011
 30
0.0
 10
44.00007051851387
 20
-43.55238036020566
 30
0.0
 10
44.48358966986869
 20
-44.00007051851387
 30
0.0
 10
45.08028020791396
 20
-44.00007051851387
 30
0.0
 10
45.08028020791396
 20
-44.00007051851387
 30
0.0
 10
69.91976316611381
 20
-44.00007051851387
 30
0.0
 10
69.91976316611381
 20
-44.00007051851387
 30
0.0
 10
70.51645370415909
 20
-44.00007051851387
 30
0.0
 10
70.9999728555139
 20
-43.55238036020566
 30
0.0
 10
70.9999728555139
 20
-43.00013155392011
 30
0.0
 10
70.9999728555139
 20
-43.00013155392011
 30
0.0
 10
70.9999728555139
 20
-43.00013155392011
 30
0.0
 10
70.9999728555139
 20
-43.00013155392011
 30
0.0
  0
SPLINE
  5
157
330
1F
100
AcDbEntity
  8
Layer 1
 62
   250
420
  1842203
370
    18
100
AcDbSpline
210
0.0
220
0.0
230
1.0
 70
    11
 71
     3
 72
    29
 73
    25
 74
     0
 42
0.0000000001
 43
0.0000000001
 40
0.0
 40
0.0
 40
0.0
 40
0.0
 40
1.0
 40
1.0
 40
1.0
 40
2.0
 40
2.0
 40
2.0
 40
3.0
 40
3.0
 40
3.0
 40
4.0
 40
4.0
 40
4.0
 40
5.0
 40
5.0
 40
5.0
 40
6.0
 40
6.0
 40
6.0
 40
7.0
 40
7.0
 40
7.0
 40
8.0
 40
8.0
 40
8.0
 40
8.0
 10
70.9999728555139
 20
-48.00017088643746
 30
0.0
 10
70.9999728555139
 20
-47.44774982537765
 30
0.0
 10
70.51645370415909
 20
-47.00005966706943
 30
0.0
 10
69.91993542088808
 20
-47.00005966706943
 30
0.0
 10
69.91993542088808
 20
-47.00005966706943
 30
0.0
 10
45.0801079531397
 20
-47.00005966706943
 30
0.0
 10
45.0801079531397
 20
-47.00005966706943
 30
0.0
 10
44.48358966986869
 20
-47.00005966706943
 30
0.0
 10
44.00007051851387
 20
-47.44774982537765
 30
0.0
 10
44.00007051851387
 20
-48.00017088643746
 30
0.0
 10
44.00007051851387
 20
-48.00017088643746
 30
0.0
 10
44.00007051851387
 20
-48.00017088643746
 30
0.0
 10
44.00007051851387
 20
-48.00017088643746
 30
0.0
 10
44.00007051851387
 20
-48.55241969272301
 30
0.0
 10
44.48358966986869
 20
-49.00010985103123
 30
0.0
 10
45.0801079531397
 20
-49.00010985103123
 30
0.0
 10
45.0801079531397
 20
-49.00010985103123
 30
0.0
 10
69.91993542088808
 20
-49.00010985103123
 30
0.0
 10
69.91993542088808
 20
-49.00010985103123
 30
0.0
 10
70.51645370415909
 20
-49.00010985103123
 30
0.0
 10
70.9999728555139
 20
-48.55241969272301
 30
0.0
 10
70.9999728555139
 20
-48.00017088643746
 30
0.0
 10
70.9999728555139
 20
-48.00017088643746
 30
0.0
 10
70.9999728555139
 20
-48.00017088643746
 30
0.0
 10
70.9999728555139
 20
-48.00017088643746
 30
0.0
  0
SPLINE
  5
158
330
1F
100
AcDbEntity
  8
Layer 1
 62
   250
420
  1842203
370
    18
100
AcDbSpline
210
0.0
220
0.0
230
1.0
 70
    11
 71
     3
 72
    29
 73
    25
 74
     0
 42
0.0000000001
 43
0.0000000001
 40
0.0
 40
0.0
 40
0.0
 40
0.0
 40
1.0
 40
1.0
 40
1.0
 40
2.0
 40
2.0
 40
2.0
 40
3.0
 40
3.0
 40
3.0
 40
4.0
 40
4.0
 40
4.0
 40
5.0
 40
5.0
 40
5.0
 40
6.0
 40
6.0
 40
6.0
 40
7.0
 40
7.0
 40
7.0
 40
8.0
 40
8.0
 40
8.0
 40
8.0
 10
70.9999728555139
 20
-53.00003796418055
 30
0.0
 10
70.9999728555139
 20
-52.44761690312074
 30
0.0
 10
70.51645370415909
 20
-51.99992674481252
 30
0.0
 10
69.91993542088808
 20
-51.99992674481252
 30
0.0
 10
69.91993542088808
 20
-51.99992674481252
 30
0.0
 10
45.0801079531397
 20
-51.99992674481252
 30
0.0
 10
45.0801079531397
 20
-51.99992674481252
 30
0.0
 10
44.48358966986869
 20
-51.99992674481252
 30
0.0
 10
44.00007051851387
 20
-52.44761690312074
 30
0.0
 10
44.00007051851387
 20
-53.00003796418055
 30
0.0
 10
44.00007051851387
 20
-53.00003796418055
 30
0.0
 10
44.00007051851387
 20
-53.00003796418055
 30
0.0
 10
44.00007051851387
 20
-53.00003796418055
 30
0.0
 10
44.00007051851387
 20
-53.5522867704661
 30
0.0
 10
44.48358966986869
 20
-53.99997692877432
 30
0.0
 10
45.0801079531397
 20
-53.99997692877432
 30
0.0
 10
45.0801079531397
 20
-53.99997692877432
 30
0.0
 10
69.91993542088808
 20
-53.99997692877432
 30
0.0
 10
69.91993542088808
 20
-53.99997692877432
 30
0.0
 10
70.51645370415909
 20
-53.99997692877432
 30
0.0
 10
70.9999728555139
 20
-53.5522867704661
 30
0.0
 10
70.9999728555139
 20
-53.00003796418055
 30
0.0
 10
70.9999728555139
 20
-53.00003796418055
 30
0.0
 10
70.9999728555139
 20
-53.00003796418055
 30
0.0
 10
70.9999728555139
 20
-53.00003796418055
 30
0.0
  0
SPLINE
  5
159
330
1F
100
AcDbEntity
  8
Layer 1
 62
   250
420
  1842203
370
    18
100
AcDbSpline
210
0.0
220
0.0
230
1.0
 70
    11
 71
     3
 72
    29
 73
    25
 74
     0
 42
0.0000000001
 43
0.0000000001
 40
0.0
 40
0.0
 40
0.0
 40
0.0
 40
1.0
 40
1.0
 40
1.0
 40
2.0
 40
2.0
 40
2.0
 40
3.0
 40
3.0
 40
3.0
 40
4.0
 40
4.0
 40
4.0
 40
5.0
 40
5.0
 40
5.0
 40
6.0
 40
6.0
 40
6.0
 40
7.0
 40
7.0
 40
7.0
 40
8.0
 40
8.0
 40
8.0
 40
8.0
 10
70.9999728555139
 20
-58.0000772966979
 30
0.0
 10
70.9999728555139
 20
-57.44765623563809
 30
0.0
 10
70.51645370415909
 20
-56.99996607732987
 30
0.0
 10
69.91993542088808
 20
-56.99996607732987
 30
0.0
 10
69.91993542088808
 20
-56.99996607732987
 30
0.0
 10
45.0801079531397
 20
-56.99996607732987
 30
0.0
 10
45.0801079531397
 20
-56.99996607732987
 30
0.0
 10
44.48358966986869
 20
-56.99996607732987
 30
0.0
 10
44.00007051851387
 20
-57.44765623563809
 30
0.0
 10
44.00007051851387
 20
-58.0000772966979
 30
0.0
 10
44.00007051851387
 20
-58.0000772966979
 30
0.0
 10
44.00007051851387
 20
-58.0000772966979
 30
0.0
 10
44.00007051851387
 20
-58.0000772966979
 30
0.0
 10
44.00007051851387
 20
-58.55232610298345
 30
0.0
 10
44.48358966986869
 20
-59.00001626129166
 30
0.0
 10
45.0801079531397
 20
-59.00001626129166
 30
0.0
 10
45.0801079531397
 20
-59.00001626129166
 30
0.0
 10
69.91993542088808
 20
-59.00001626129166
 30
0.0
 10
69.91993542088808
 20
-59.00001626129166
 30
0.0
 10
70.51645370415909
 20
-59.00001626129166
 30
0.0
 10
70.9999728555139
 20
-58.55232610298345
 30
0.0
 10
70.9999728555139
 20
-58.0000772966979
 30
0.0
 10
70.9999728555139
 20
-58.0000772966979
 30
0.0
 10
70.9999728555139
 20
-58.0000772966979
 30
0.0
 10
70.9999728555139
 20
-58.0000772966979
 30
0.0
  0
SPLINE
  5
15A
330
1F
100
AcDbEntity
  8
Layer 1
 62
   250
420
  1842203
370
    18
100
AcDbSpline
210
0.0
220
0.0
230
1.0
 70
    11
 71
     3
 72
    29
 73
    25
 74
     0
 42
0.0000000001
 43
0.0000000001
 40
0.0
 40
0.0
 40
0.0
 40
0.0
 40
1.0
 40
1.0
 40
1.0
 40
2.0
 40
2.0
 40
2.0
 40
3.0
 40
3.0
 40
3.0
 40
4.0
 40
4.0
 40
4.0
 40
5.0
 40
5.0
 40
5.0
 40
6.0
 40
6.0
 40
6.0
 40
7.0
 40
7.0
 40
7.0
 40
8.0
 40
8.0
 40
8.0
 40
8.0
 10
71.00014511028816
 20
-38.00009222140276
 30
0.0
 10
71.00014511028816
 20
-37.44767116034294
 30
0.0
 10
70.51662595893335
 20
-36.99998100203473
 30
0.0
 10
69.92010767566234
 20
-36.99998100203473
 30
0.0
 10
69.92010767566234
 20
-36.99998100203473
 30
0.0
 10
45.08028020791396
 20
-36.99998100203473
 30
0.0
 10
45.08028020791396
 20
-36.99998100203473
 30
0.0
 10
44.48358966986869
 20
-36.99998100203473
 30
0.0
 10
44.00007051851387
 20
-37.44767116034294
 30
0.0
 10
44.00007051851387
 20
-38.00009222140276
 30
0.0
 10
44.00007051851387
 20
-38.00009222140276
 30
0.0
 10
44.00007051851387
 20
-38.00009222140276
 30
0.0
 10
44.00007051851387
 20
-38.00009222140276
 30
0.0
 10
44.00007051851387
 20
-38.55234102768831
 30
0.0
 10
44.48358966986869
 20
-39.00003118599652
 30
0.0
 10
45.08028020791396
 20
-39.00003118599652
 30
0.0
 10
45.08028020791396
 20
-39.00003118599652
 30
0.0
 10
69.92010767566234
 20
-39.00003118599652
 30
0.0
 10
69.92010767566234
 20
-39.00003118599652
 30
0.0
 10
70.51662595893335
 20
-39.00003118599652
 30
0.0
 10
71.00014511028816
 20
-38.55234102768831
 30
0.0
 10
71.00014511028816
 20
-38.00009222140276
 30
0.0
 10
71.00014511028816
 20
-38.00009222140276
 30
0.0
 10
71.00014511028816
 20
-38.00009222140276
 30
0.0
 10
71.00014511028816
 20
-38.00009222140276
 30
0.0
  0
SPLINE
  5
15B
330
1F
100
AcDbEntity
  8
Layer 1
 62
   250
420
  1842203
370
    18
100
AcDbSpline
210
0.0
220
0.0
230
1.0
 70
    11
 71
     3
 72
    29
 73
    25
 74
     0
 42
0.0000000001
 43
0.0000000001
 40
0.0
 40
0.0
 40
0.0
 40
0.0
 40
1.0
 40
1.0
 40
1.0
 40
2.0
 40
2.0
 40
2.0
 40
3.0
 40
3.0
 40
3.0
 40
4.0
 40
4.0
 40
4.0
 40
5.0
 40
5.0
 40
5.0
 40
6.0
 40
6.0
 40
6.0
 40
7.0
 40
7.0
 40
7.0
 40
8.0
 40
8.0
 40
8.0
 40
8.0
 10
228.5004366833263
 20
-41.00008136995832
 30
0.0
 10
227.6715467095752
 20
-41.00008136995832
 30
0.0
 10
227.0004421090485
 20
-41.67153048003351
 30
0.0
 10
227.0004421090485
 20
-42.50007594423609
 30
0.0
 10
227.0004421090485
 20
-42.50007594423609
 30
0.0
 10
227.0004421090485
 20
-51.50004338990277
 30
0.0
 10
227.0004421090485
 20
-51.50004338990277
 30
0.0
 10
227.0004421090485
 20
-52.32858885410536
 30
0.0
 10
227.6715467095752
 20
-53.00003796418055
 30
0.0
 10
228.5004366833263
 20
-53.00003796418055
 30
0.0
 10
228.5004366833263
 20
-53.00003796418055
 30
0.0
 10
228.5004366833263
 20
-53.00003796418055
 30
0.0
 10
228.5004366833263
 20
-53.00003796418055
 30
0.0
 10
229.3286376379804
 20
-53.00003796418055
 30
0.0
 10
229.999742238507
 20
-52.32858885410536
 30
0.0
 10
229.999742238507
 20
-51.50004338990277
 30
0.0
 10
229.999742238507
 20
-51.50004338990277
 30
0.0
 10
229.999742238507
 20
-42.50007594423609
 30
0.0
 10
229.999742238507
 20
-42.50007594423609
 30
0.0
 10
229.999742238507
 20
-41.67153048003351
 30
0.0
 10
229.3286376379804
 20
-41.00008136995832
 30
0.0
 10
228.5004366833263
 20
-41.00008136995832
 30
0.0
 10
228.5004366833263
 20
-41.00008136995832
 30
0.0
 10
228.5004366833263
 20
-41.00008136995832
 30
0.0
 10
228.5004366833263
 20
-41.00008136995832
 30
0.0
  0
SPLINE
  5
15C
330
1F
100
AcDbEntity
  8
Layer 1
 62
   250
420
  1842203
370
    18
100
AcDbSpline
210
0.0
220
0.0
230
1.0
 70
    11
 71
     3
 72
    29
 73
    25
 74
     0
 42
0.0000000001
 43
0.0000000001
 40
0.0
 40
0.0
 40
0.0
 40
0.0
 40
1.0
 40
1.0
 40
1.0
 40
2.0
 40
2.0
 40
2.0
 40
3.0
 40
3.0
 40
3.0
 40
4.0
 40
4.0
 40
4.0
 40
5.0
 40
5.0
 40
5.0
 40
6.0
 40
6.0
 40
6.0
 40
7.0
 40
7.0
 40
7.0
 40
8.0
 40
8.0
 40
8.0
 40
8.0
 10
179.000271222611
 20
-62.00017766462149
 30
0.0
 10
179.000271222611
 20
-62.5525987256813
 30
0.0
 10
179.4481336356935
 20
-63.00028888398951
 30
0.0
 10
180.0003824419791
 20
-63.00028888398951
 30
0.0
 10
180.0003824419791
 20
-63.00028888398951
 30
0.0
 10
180.0003824419791
 20
-63.00028888398951
 30
0.0
 10
180.0003824419791
 20
-63.00028888398951
 30
0.0
 10
180.5526312482646
 20
-63.00028888398951
 30
0.0
 10
181.0004936613471
 20
-62.5525987256813
 30
0.0
 10
181.0004936613471
 20
-62.00017766462149
 30
0.0
 10
181.0004936613471
 20
-62.00017766462149
 30
0.0
 10
181.0004936613471
 20
-50.00039332517351
 30
0.0
 10
181.0004936613471
 20
-50.00039332517351
 30
0.0
 10
181.0004936613471
 20
-49.4479722641137
 30
0.0
 10
180.5526312482646
 20
-49.00028210580549
 30
0.0
 10
180.0003824419791
 20
-49.00028210580549
 30
0.0
 10
180.0003824419791
 20
-49.00028210580549
 30
0.0
 10
180.0003824419791
 20
-49.00028210580549
 30
0.0
 10
180.0003824419791
 20
-49.00028210580549
 30
0.0
 10
179.4481336356935
 20
-49.00028210580549
 30
0.0
 10
179.000271222611
 20
-49.4479722641137
 30
0.0
 10
179.000271222611
 20
-50.00039332517351
 30
0.0
 10
179.000271222611
 20
-50.00039332517351
 30
0.0
 10
179.000271222611
 20
-62.00017766462149
 30
0.0
 10
179.000271222611
 20
-62.00017766462149
 30
0.0
  0
SPLINE
  5
15D
330
1F
100
AcDbEntity
  8
Layer 1
 62
   250
420
  1842203
370
    18
100
AcDbSpline
210
0.0
220
0.0
230
1.0
 70
    11
 71
     3
 72
    29
 73
    25
 74
     0
 42
0.0000000001
 43
0.0000000001
 40
0.0
 40
0.0
 40
0.0
 40
0.0
 40
1.0
 40
1.0
 40
1.0
 40
2.0
 40
2.0
 40
2.0
 40
3.0
 40
3.0
 40
3.0
 40
4.0
 40
4.0
 40
4.0
 40
5.0
 40
5.0
 40
5.0
 40
6.0
 40
6.0
 40
6.0
 40
7.0
 40
7.0
 40
7.0
 40
8.0
 40
8.0
 40
8.0
 40
8.0
 10
179.0006157321596
 20
-33.00039739843393
 30
0.0
 10
179.0006157321596
 20
-32.44797633737412
 30
0.0
 10
179.4484781452421
 20
-32.0002861790659
 30
0.0
 10
180.0007269515276
 20
-32.0002861790659
 30
0.0
 10
180.0007269515276
 20
-32.0002861790659
 30
0.0
 10
180.0007269515276
 20
-32.0002861790659
 30
0.0
 10
180.0007269515276
 20
-32.0002861790659
 30
0.0
 10
180.5529757578132
 20
-32.0002861790659
 30
0.0
 10
181.0008381708956
 20
-32.44797633737412
 30
0.0
 10
181.0008381708956
 20
-33.00039739843393
 30
0.0
 10
181.0008381708956
 20
-33.00039739843393
 30
0.0
 10
181.0008381708956
 20
-45.0001817378819
 30
0.0
 10
181.0008381708956
 20
-45.0001817378819
 30
0.0
 10
181.0008381708956
 20
-45.55260279894171
 30
0.0
 10
180.5529757578132
 20
-46.00029295724993
 30
0.0
 10
180.0007269515276
 20
-46.00029295724993
 30
0.0
 10
180.0007269515276
 20
-46.00029295724993
 30
0.0
 10
180.0007269515276
 20
-46.00029295724993
 30
0.0
 10
180.0007269515276
 20
-46.00029295724993
 30
0.0
 10
179.4484781452421
 20
-46.00029295724993
 30
0.0
 10
179.0006157321596
 20
-45.55260279894171
 30
0.0
 10
179.0006157321596
 20
-45.0001817378819
 30
0.0
 10
179.0006157321596
 20
-45.0001817378819
 30
0.0
 10
179.0006157321596
 20
-33.00039739843393
 30
0.0
 10
179.0006157321596
 20
-33.00039739843393
 30
0.0
  0
SPLINE
  5
15E
330
1F
100
AcDbEntity
  8
Layer 1
 62
   250
420
  1842203
370
    18
100
AcDbSpline
210
0.0
220
0.0
230
1.0
 70
    11
 71
     3
 72
    29
 73
    25
 74
     0
 42
0.0000000001
 43
0.0000000001
 40
0.0
 40
0.0
 40
0.0
 40
0.0
 40
1.0
 40
1.0
 40
1.0
 40
2.0
 40
2.0
 40
2.0
 40
3.0
 40
3.0
 40
3.0
 40
4.0
 40
4.0
 40
4.0
 40
5.0
 40
5.0
 40
5.0
 40
6.0
 40
6.0
 40
6.0
 40
7.0
 40
7.0
 40
7.0
 40
8.0
 40
8.0
 40
8.0
 40
8.0
 10
184.0004828099027
 20
-64.00040010335753
 30
0.0
 10
184.0004828099027
 20
-64.5526489096431
 30
0.0
 10
184.4480007134366
 20
-65.0003390679513
 30
0.0
 10
185.0005940292707
 20
-65.0003390679513
 30
0.0
 10
185.0005940292707
 20
-65.0003390679513
 30
0.0
 10
198.0003173333124
 20
-65.0003390679513
 30
0.0
 10
198.0003173333124
 20
-65.0003390679513
 30
0.0
 10
198.5529106491465
 20
-65.0003390679513
 30
0.0
 10
199.0004285526805
 20
-64.5526489096431
 30
0.0
 10
199.0004285526805
 20
-64.00040010335753
 30
0.0
 10
199.0004285526805
 20
-64.00040010335753
 30
0.0
 10
199.0004285526805
 20
-64.00040010335753
 30
0.0
 10
199.0004285526805
 20
-64.00040010335753
 30
0.0
 10
199.0004285526805
 20
-63.44797904229773
 30
0.0
 10
198.5529106491465
 20
-63.00028888398951
 30
0.0
 10
198.0003173333124
 20
-63.00028888398951
 30
0.0
 10
198.0003173333124
 20
-63.00028888398951
 30
0.0
 10
185.0005940292707
 20
-63.00028888398951
 30
0.0
 10
185.0005940292707
 20
-63.00028888398951
 30
0.0
 10
184.4480007134366
 20
-63.00028888398951
 30
0.0
 10
184.0004828099027
 20
-63.44797904229773
 30
0.0
 10
184.0004828099027
 20
-64.00040010335753
 30
0.0
 10
184.0004828099027
 20
-64.00040010335753
 30
0.0
 10
184.0004828099027
 20
-64.00040010335753
 30
0.0
 10
184.0004828099027
 20
-64.00040010335753
 30
0.0
  0
SPLINE
  5
15F
330
1F
100
AcDbEntity
  8
Layer 1
 62
   250
420
  1842203
370
    18
100
AcDbSpline
210
0.0
220
0.0
230
1.0
 70
    11
 71
     3
 72
    29
 73
    25
 74
     0
 42
0.0000000001
 43
0.0000000001
 40
0.0
 40
0.0
 40
0.0
 40
0.0
 40
1.0
 40
1.0
 40
1.0
 40
2.0
 40
2.0
 40
2.0
 40
3.0
 40
3.0
 40
3.0
 40
4.0
 40
4.0
 40
4.0
 40
5.0
 40
5.0
 40
5.0
 40
6.0
 40
6.0
 40
6.0
 40
7.0
 40
7.0
 40
7.0
 40
8.0
 40
8.0
 40
8.0
 40
8.0
 10
140.0004122913888
 20
-29.00046928528461
 30
0.0
 10
140.0004122913888
 20
-28.4480482242248
 30
0.0
 10
140.4482747044713
 20
-28.00035806591658
 30
0.0
 10
141.0005235107568
 20
-28.00035806591658
 30
0.0
 10
141.0005235107568
 20
-28.00035806591658
 30
0.0
 10
141.0005235107568
 20
-28.00035806591658
 30
0.0
 10
141.0005235107568
 20
-28.00035806591658
 30
0.0
 10
141.5527723170424
 20
-28.00035806591658
 30
0.0
 10
142.0006347301249
 20
-28.4480482242248
 30
0.0
 10
142.0006347301249
 20
-29.00046928528461
 30
0.0
 10
142.0006347301249
 20
-29.00046928528461
 30
0.0
 10
142.0006347301249
 20
-41.00025362473258
 30
0.0
 10
142.0006347301249
 20
-41.00025362473258
 30
0.0
 10
142.0006347301249
 20
-41.55267468579239
 30
0.0
 10
141.5527723170424
 20
-42.0003648441006
 30
0.0
 10
141.0005235107568
 20
-42.0003648441006
 30
0.0
 10
141.0005235107568
 20
-42.0003648441006
 30
0.0
 10
141.0005235107568
 20
-42.0003648441006
 30
0.0
 10
141.0005235107568
 20
-42.0003648441006
 30
0.0
 10
140.4482747044713
 20
-42.0003648441006
 30
0.0
 10
140.0004122913888
 20
-41.55267468579239
 30
0.0
 10
140.0004122913888
 20
-41.00025362473258
 30
0.0
 10
140.0004122913888
 20
-41.00025362473258
 30
0.0
 10
140.0004122913888
 20
-29.00046928528461
 30
0.0
 10
140.0004122913888
 20
-29.00046928528461
 30
0.0
  0
SPLINE
  5
160
330
1F
100
AcDbEntity
  8
Layer 1
 62
   250
420
  1842203
370
    18
100
AcDbSpline
210
0.0
220
0.0
230
1.0
 70
    11
 71
     3
 72
    29
 73
    25
 74
     0
 42
0.0000000001
 43
0.0000000001
 40
0.0
 40
0.0
 40
0.0
 40
0.0
 40
1.0
 40
1.0
 40
1.0
 40
2.0
 40
2.0
 40
2.0
 40
3.0
 40
3.0
 40
3.0
 40
4.0
 40
4.0
 40
4.0
 40
5.0
 40
5.0
 40
5.0
 40
6.0
 40
6.0
 40
6.0
 40
7.0
 40
7.0
 40
7.0
 40
8.0
 40
8.0
 40
8.0
 40
8.0
 10
140.0004122913888
 20
-45.00052624743043
 30
0.0
 10
140.0004122913888
 20
-44.44810518637061
 30
0.0
 10
140.4482747044713
 20
-44.0004150280624
 30
0.0
 10
141.0005235107568
 20
-44.0004150280624
 30
0.0
 10
141.0005235107568
 20
-44.0004150280624
 30
0.0
 10
141.0005235107568
 20
-44.0004150280624
 30
0.0
 10
141.0005235107568
 20
-44.0004150280624
 30
0.0
 10
141.5527723170424
 20
-44.0004150280624
 30
0.0
 10
142.0006347301249
 20
-44.44810518637061
 30
0.0
 10
142.0006347301249
 20
-45.00052624743043
 30
0.0
 10
142.0006347301249
 20
-45.00052624743043
 30
0.0
 10
142.0006347301249
 20
-57.0003105868784
 30
0.0
 10
142.0006347301249
 20
-57.0003105868784
 30
0.0
 10
142.0006347301249
 20
-57.55273164793821
 30
0.0
 10
141.5527723170424
 20
-58.00042180624642
 30
0.0
 10
141.0005235107568
 20
-58.00042180624642
 30
0.0
 10
141.0005235107568
 20
-58.00042180624642
 30
0.0
 10
141.0005235107568
 20
-58.00042180624642
 30
0.0
 10
141.0005235107568
 20
-58.00042180624642
 30
0.0
 10
140.4482747044713
 20
-58.00042180624642
 30
0.0
 10
140.0004122913888
 20
-57.55273164793821
 30
0.0
 10
140.0004122913888
 20
-57.0003105868784
 30
0.0
 10
140.0004122913888
 20
-57.0003105868784
 30
0.0
 10
140.0004122913888
 20
-45.00052624743043
 30
0.0
 10
140.0004122913888
 20
-45.00052624743043
 30
0.0
  0
SPLINE
  5
161
330
1F
100
AcDbEntity
  8
Layer 1
 62
   250
420
  1842203
370
    18
100
AcDbSpline
210
0.0
220
0.0
230
1.0
 70
    11
 71
     3
 72
    29
 73
    25
 74
     0
 42
0.0000000001
 43
0.0000000001
 40
0.0
 40
0.0
 40
0.0
 40
0.0
 40
1.0
 40
1.0
 40
1.0
 40
2.0
 40
2.0
 40
2.0
 40
3.0
 40
3.0
 40
3.0
 40
4.0
 40
4.0
 40
4.0
 40
5.0
 40
5.0
 40
5.0
 40
6.0
 40
6.0
 40
6.0
 40
7.0
 40
7.0
 40
7.0
 40
8.0
 40
8.0
 40
8.0
 40
8.0
 10
199.0004285526805
 20
-96.00103079197197
 30
0.0
 10
199.0004285526805
 20
-95.44878198568642
 30
0.0
 10
198.6569525328011
 20
-95.00091957260395
 30
0.0
 10
198.2335502976638
 20
-95.00091957260395
 30
0.0
 10
198.2335502976638
 20
-95.00091957260395
 30
0.0
 10
176.7671603290721
 20
-95.00091957260395
 30
0.0
 10
176.7671603290721
 20
-95.00091957260395
 30
0.0
 10
176.3434135843864
 20
-95.00091957260395
 30
0.0
 10
176.0002820740555
 20
-95.44878198568642
 30
0.0
 10
176.0002820740555
 20
-96.00103079197197
 30
0.0
 10
176.0002820740555
 20
-96.00103079197197
 30
0.0
 10
176.0002820740555
 20
-96.00103079197197
 30
0.0
 10
176.0002820740555
 20
-96.00103079197197
 30
0.0
 10
176.0002820740555
 20
-96.55327959825752
 30
0.0
 10
176.3434135843864
 20
-97.00114201134
 30
0.0
 10
176.7671603290721
 20
-97.00114201134
 30
0.0
 10
176.7671603290721
 20
-97.00114201134
 30
0.0
 10
198.2335502976638
 20
-97.00114201134
 30
0.0
 10
198.2335502976638
 20
-97.00114201134
 30
0.0
 10
198.6569525328011
 20
-97.00114201134
 30
0.0
 10
199.0004285526805
 20
-96.55327959825752
 30
0.0
 10
199.0004285526805
 20
-96.00103079197197
 30
0.0
 10
199.0004285526805
 20
-96.00103079197197
 30
0.0
 10
199.0004285526805
 20
-96.00103079197197
 30
0.0
 10
199.0004285526805
 20
-96.00103079197197
 30
0.0
  0
SPLINE
  5
162
330
1F
100
AcDbEntity
  8
Layer 1
 62
   250
420
  1842203
370
    18
100
AcDbSpline
210
0.0
220
0.0
230
1.0
 70
    11
 71
     3
 72
    29
 73
    25
 74
     0
 42
0.0000000001
 43
0.0000000001
 40
0.0
 40
0.0
 40
0.0
 40
0.0
 40
1.0
 40
1.0
 40
1.0
 40
2.0
 40
2.0
 40
2.0
 40
3.0
 40
3.0
 40
3.0
 40
4.0
 40
4.0
 40
4.0
 40
5.0
 40
5.0
 40
5.0
 40
6.0
 40
6.0
 40
6.0
 40
7.0
 40
7.0
 40
7.0
 40
8.0
 40
8.0
 40
8.0
 40
8.0
 10
199.0004285526805
 20
-100.000786650347
 30
0.0
 10
199.0004285526805
 20
-99.44853784406148
 30
0.0
 10
198.6569525328011
 20
-99.000675430979
 30
0.0
 10
198.2335502976638
 20
-99.000675430979
 30
0.0
 10
198.2335502976638
 20
-99.000675430979
 30
0.0
 10
176.7671603290721
 20
-99.000675430979
 30
0.0
 10
176.7671603290721
 20
-99.000675430979
 30
0.0
 10
176.3434135843864
 20
-99.000675430979
 30
0.0
 10
176.0002820740555
 20
-99.44853784406148
 30
0.0
 10
176.0002820740555
 20
-100.000786650347
 30
0.0
 10
176.0002820740555
 20
-100.000786650347
 30
0.0
 10
176.0002820740555
 20
-100.000786650347
 30
0.0
 10
176.0002820740555
 20
-100.000786650347
 30
0.0
 10
176.0002820740555
 20
-100.5530354566326
 30
0.0
 10
176.3434135843864
 20
-101.0008978697151
 30
0.0
 10
176.7671603290721
 20
-101.0008978697151
 30
0.0
 10
176.7671603290721
 20
-101.0008978697151
 30
0.0
 10
198.2335502976638
 20
-101.0008978697151
 30
0.0
 10
198.2335502976638
 20
-101.0008978697151
 30
0.0
 10
198.6569525328011
 20
-101.0008978697151
 30
0.0
 10
199.0004285526805
 20
-100.5530354566326
 30
0.0
 10
199.0004285526805
 20
-100.000786650347
 30
0.0
 10
199.0004285526805
 20
-100.000786650347
 30
0.0
 10
199.0004285526805
 20
-100.000786650347
 30
0.0
 10
199.0004285526805
 20
-100.000786650347
 30
0.0
  0
SPLINE
  5
163
330
1F
100
AcDbEntity
  8
Layer 1
 62
   250
420
  1842203
370
    18
100
AcDbSpline
210
0.0
220
0.0
230
1.0
 70
    11
 71
     3
 72
    29
 73
    25
 74
     0
 42
0.0000000001
 43
0.0000000001
 40
0.0
 40
0.0
 40
0.0
 40
0.0
 40
1.0
 40
1.0
 40
1.0
 40
2.0
 40
2.0
 40
2.0
 40
3.0
 40
3.0
 40
3.0
 40
4.0
 40
4.0
 40
4.0
 40
5.0
 40
5.0
 40
5.0
 40
6.0
 40
6.0
 40
6.0
 40
7.0
 40
7.0
 40
7.0
 40
8.0
 40
8.0
 40
8.0
 40
8.0
 10
237.0005207740832
 20
-96.00103079197197
 30
0.0
 10
237.0005207740832
 20
-95.44878198568642
 30
0.0
 10
236.6422308436172
 20
-95.00091957260395
 30
0.0
 10
236.2002250928597
 20
-95.00091957260395
 30
0.0
 10
236.2002250928597
 20
-95.00091957260395
 30
0.0
 10
213.8005587573138
 20
-95.00091957260395
 30
0.0
 10
213.8005587573138
 20
-95.00091957260395
 30
0.0
 10
213.3585530065562
 20
-95.00091957260395
 30
0.0
 10
213.0002630760902
 20
-95.44878198568642
 30
0.0
 10
213.0002630760902
 20
-96.00103079197197
 30
0.0
 10
213.0002630760902
 20
-96.00103079197197
 30
0.0
 10
213.0002630760902
 20
-96.00103079197197
 30
0.0
 10
213.0002630760902
 20
-96.00103079197197
 30
0.0
 10
213.0002630760902
 20
-96.55327959825752
 30
0.0
 10
213.3585530065562
 20
-97.00114201134
 30
0.0
 10
213.8005587573138
 20
-97.00114201134
 30
0.0
 10
213.8005587573138
 20
-97.00114201134
 30
0.0
 10
236.2002250928597
 20
-97.00114201134
 30
0.0
 10
236.2002250928597
 20
-97.00114201134
 30
0.0
 10
236.6422308436172
 20
-97.00114201134
 30
0.0
 10
237.0005207740832
 20
-96.55327959825752
 30
0.0
 10
237.0005207740832
 20
-96.00103079197197
 30
0.0
 10
237.0005207740832
 20
-96.00103079197197
 30
0.0
 10
237.0005207740832
 20
-96.00103079197197
 30
0.0
 10
237.0005207740832
 20
-96.00103079197197
 30
0.0
  0
SPLINE
  5
164
330
1F
100
AcDbEntity
  8
Layer 1
 62
   250
420
  1842203
370
    18
100
AcDbSpline
210
0.0
220
0.0
230
1.0
 70
    11
 71
     3
 72
    29
 73
    25
 74
     0
 42
0.0000000001
 43
0.0000000001
 40
0.0
 40
0.0
 40
0.0
 40
0.0
 40
1.0
 40
1.0
 40
1.0
 40
2.0
 40
2.0
 40
2.0
 40
3.0
 40
3.0
 40
3.0
 40
4.0
 40
4.0
 40
4.0
 40
5.0
 40
5.0
 40
5.0
 40
6.0
 40
6.0
 40
6.0
 40
7.0
 40
7.0
 40
7.0
 40
8.0
 40
8.0
 40
8.0
 40
8.0
 10
237.0005207740832
 20
-100.0011311598956
 30
0.0
 10
237.0005207740832
 20
-99.44888235361
 30
0.0
 10
236.6422308436172
 20
-99.00101994052753
 30
0.0
 10
236.2002250928597
 20
-99.00101994052753
 30
0.0
 10
236.2002250928597
 20
-99.00101994052753
 30
0.0
 10
213.8005587573138
 20
-99.00101994052753
 30
0.0
 10
213.8005587573138
 20
-99.00101994052753
 30
0.0
 10
213.3585530065562
 20
-99.00101994052753
 30
0.0
 10
213.0002630760902
 20
-99.44888235361
 30
0.0
 10
213.0002630760902
 20
-100.0011311598956
 30
0.0
 10
213.0002630760902
 20
-100.0011311598956
 30
0.0
 10
213.0002630760902
 20
-100.0011311598956
 30
0.0
 10
213.0002630760902
 20
-100.0011311598956
 30
0.0
 10
213.0002630760902
 20
-100.5533799661811
 30
0.0
 10
213.3585530065562
 20
-101.0012423792636
 30
0.0
 10
213.8005587573138
 20
-101.0012423792636
 30
0.0
 10
213.8005587573138
 20
-101.0012423792636
 30
0.0
 10
236.2002250928597
 20
-101.0012423792636
 30
0.0
 10
236.2002250928597
 20
-101.0012423792636
 30
0.0
 10
236.6422308436172
 20
-101.0012423792636
 30
0.0
 10
237.0005207740832
 20
-100.5533799661811
 30
0.0
 10
237.0005207740832
 20
-100.0011311598956
 30
0.0
 10
237.0005207740832
 20
-100.0011311598956
 30
0.0
 10
237.0005207740832
 20
-100.0011311598956
 30
0.0
 10
237.0005207740832
 20
-100.0011311598956
 30
0.0
  0
INSERT
  5
166
330
1F
100
AcDbEntity
  8
Layer 1
100
AcDbBlockReference
  2
block 2
 10
0.0
 20
0.0
 30
0.0
  0
SPLINE
  5
177
330
1F
100
AcDbEntity
  8
Layer 1
 62
   250
420
  1842203
370
    18
100
AcDbSpline
210
0.0
220
0.0
230
1.0
 70
     8
 71
     3
 72
    20
 73
    16
 74
     0
 42
0.0000000001
 43
0.0000000001
 40
0.0
 40
0.0
 40
0.0
 40
0.0
 40
1.0
 40
1.0
 40
1.0
 40
2.0
 40
2.0
 40
2.0
 40
3.0
 40
3.0
 40
3.0
 40
4.0
 40
4.0
 40
4.0
 40
5.0
 40
5.0
 40
5.0
 40
5.0
 10
128.2335164067437
 20
-103.0000867798055
 30
0.0
 10
125.8955023556789
 20
-103.0000867798055
 30
0.0
 10
124.0001830744687
 20
-101.1049397533696
 30
0.0
 10
124.0001830744687
 20
-98.7669257023048
 30
0.0
 10
124.0001830744687
 20
-98.7669257023048
 30
0.0
 10
124.0001830744687
 20
-88.23354625615342
 30
0.0
 10
124.0001830744687
 20
-88.23354625615342
 30
0.0
 10
124.0001830744687
 20
-85.89553220508861
 30
0.0
 10
125.8955023556789
 20
-84.00021292387842
 30
0.0
 10
128.2335164067437
 20
-84.00021292387842
 30
0.0
 10
128.2335164067437
 20
-84.00021292387842
 30
0.0
 10
154.7667805602667
 20
-84.00021292387842
 30
0.0
 10
154.7667805602667
 20
-84.00021292387842
 30
0.0
 10
157.1046223565572
 20
-84.00021292387842
 30
0.0
 10
159.0001138925416
 20
-85.89553220508861
 30
0.0
 10
159.0001138925416
 20
-88.23354625615342
 30
0.0
  0
SPLINE
  5
178
330
1F
100
AcDbEntity
  8
Layer 1
 62
   250
420
  1842203
370
    18
100
AcDbSpline
210
0.0
220
0.0
230
1.0
 70
     8
 71
     3
 72
    11
 73
     7
 74
     0
 42
0.0000000001
 43
0.0000000001
 40
0.0
 40
0.0
 40
0.0
 40
0.0
 40
1.0
 40
1.0
 40
1.0
 40
2.0
 40
2.0
 40
2.0
 40
2.0
 10
142.5000013207118
 20
-103.0000867798055
 30
0.0
 10
142.5000013207118
 20
-103.0000867798055
 30
0.0
 10
154.7667805602667
 20
-103.0000867798055
 30
0.0
 10
154.7667805602667
 20
-103.0000867798055
 30
0.0
 10
157.1046223565572
 20
-103.0000867798055
 30
0.0
 10
159.0001138925416
 20
-101.1049397533696
 30
0.0
 10
159.0001138925416
 20
-98.7669257023048
 30
0.0
  0
SPLINE
  5
179
330
1F
100
AcDbEntity
  8
Layer 1
 62
   250
420
  1842203
370
    18
100
AcDbSpline
210
0.0
220
0.0
230
1.0
 70
    11
 71
     3
 72
    17
 73
    13
 74
     0
 42
0.0000000001
 43
0.0000000001
 40
0.0
 40
0.0
 40
0.0
 40
0.0
 40
1.0
 40
1.0
 40
1.0
 40
2.0
 40
2.0
 40
2.0
 40
3.0
 40
3.0
 40
3.0
 40
4.0
 40
4.0
 40
4.0
 40
4.0
 10
131.0002725909478
 20
-93.50006372445485
 30
0.0
 10
131.0002725909478
 20
-92.39556611188375
 30
0.0
 10
130.1048922743314
 20
-91.50018579526731
 30
0.0
 10
129.0002224069861
 20
-91.50018579526731
 30
0.0
 10
127.8955525396407
 20
-91.50018579526731
 30
0.0
 10
127.0001722230243
 20
-92.39556611188375
 30
0.0
 10
127.0001722230243
 20
-93.50006372445485
 30
0.0
 10
127.0001722230243
 20
-94.60473359180021
 30
0.0
 10
127.8955525396407
 20
-95.50011390841664
 30
0.0
 10
129.0002224069861
 20
-95.50011390841664
 30
0.0
 10
130.1048922743314
 20
-95.50011390841664
 30
0.0
 10
131.0002725909478
 20
-94.60473359180021
 30
0.0
 10
131.0002725909478
 20
-93.50006372445485
 30
0.0
  0
ENDSEC
  0
SECTION
  2
OBJECTS
  0
DICTIONARY
  5
C
330
0
100
AcDbDictionary
281
     1
  3
ACAD_GROUP
350
D
  3
ACAD_LAYOUT
350
1A
  3
ACAD_MLINESTYLE
350
17
  3
ACAD_PLOTSETTINGS
350
19
  3
ACAD_PLOTSTYLENAME
350
E
  3
ACAD_TABLESTYLE
350
17C
  3
ACAD_VISUALSTYLE
350
2A
  0
DICTIONARY
  5
D
102
{ACAD_REACTORS
330
C
102
}
330
C
100
AcDbDictionary
281
     1
  0
DICTIONARY
  5
1A
102
{ACAD_REACTORS
330
C
102
}
330
C
100
AcDbDictionary
281
     1
  3
Layout1
350
1E
  3
Layout2
350
26
  3
Model
350
22
  0
DICTIONARY
  5
17
102
{ACAD_REACTORS
330
C
102
}
330
C
100
AcDbDictionary
281
     1
  3
Standard
350
18
  0
DICTIONARY
  5
19
102
{ACAD_REACTORS
330
C
102
}
330
C
100
AcDbDictionary
281
     1
  0
ACDBDICTIONARYWDFLT
  5
E
102
{ACAD_REACTORS
330
C
102
}
330
C
100
AcDbDictionary
281
     1
  3
Normal
350
F
100
AcDbDictionaryWithDefault
340
F
  0
DICTIONARY
  5
17C
102
{ACAD_REACTORS
330
C
102
}
330
C
100
AcDbDictionary
281
     1
  0
DICTIONARY
  5
2A
102
{ACAD_REACTORS
330
C
102
}
330
C
100
AcDbDictionary
281
     1
  3
2dWireframe
350
2F
  3
3D Hidden
350
31
  3
3dWireframe
350
30
  3
Basic
350
32
  3
Brighten
350
36
  3
ColorChange
350
3A
  3
Conceptual
350
34
  3
Dim
350
35
  3
Facepattern
350
39
  3
Flat
350
2B
  3
FlatWithEdges
350
2C
  3
Gouraud
350
2D
  3
GouraudWithEdges
350
2E
  3
Linepattern
350
38
  3
Realistic
350
33
  3
Thicken
350
37
  0
LAYOUT
  5
1E
102
{ACAD_REACTORS
330
1A
102
}
330
1A
100
AcDbPlotSettings
  1

  2
none_device
  4

  6

 40
0.0
 41
0.0
 42
0.0
 43
0.0
 44
0.0
 45
0.0
 46
0.0
 47
0.0
 48
0.0
 49
0.0
140
0.0
141
0.0
142
1.0
143
1.0
 70
   688
 72
     0
 73
     0
 74
     5
  7

 75
    16
 76
     0
 77
     2
 78
   300
147
1.0
148
0.0
149
0.0
100
AcDbLayout
  1
Layout1
 70
     1
 71
     1
 10
0.0
 20
0.0
 11
12.0
 21
9.0
 12
0.0
 22
0.0
 32
0.0
 14
1.000000000000000E+20
 24
1.000000000000000E+20
 34
1.000000000000000E+20
 15
-1.000000000000000E+20
 25
-1.000000000000000E+20
 35
-1.000000000000000E+20
146
0.0
 13
0.0
 23
0.0
 33
0.0
 16
1.0
 26
0.0
 36
0.0
 17
0.0
 27
1.0
 37
0.0
 76
     0
330
1B
  0
LAYOUT
  5
26
102
{ACAD_REACTORS
330
1A
102
}
330
1A
100
AcDbPlotSettings
  1

  2
none_device
  4

  6

 40
0.0
 41
0.0
 42
0.0
 43
0.0
 44
0.0
 45
0.0
 46
0.0
 47
0.0
 48
0.0
 49
0.0
140
0.0
141
0.0
142
1.0
143
1.0
 70
   688
 72
     0
 73
     0
 74
     5
  7

 75
    16
 76
     0
 77
     2
 78
   300
147
1.0
148
0.0
149
0.0
100
AcDbLayout
  1
Layout2
 70
     1
 71
     2
 10
0.0
 20
0.0
 11
0.0
 21
0.0
 12
0.0
 22
0.0
 32
0.0
 14
0.0
 24
0.0
 34
0.0
 15
0.0
 25
0.0
 35
0.0
146
0.0
 13
0.0
 23
0.0
 33
0.0
 16
1.0
 26
0.0
 36
0.0
 17
0.0
 27
1.0
 37
0.0
 76
     0
330
23
  0
LAYOUT
  5
22
102
{ACAD_REACTORS
330
1A
102
}
330
1A
100
AcDbPlotSettings
  1

  2
none_device
  4

  6

 40
0.0
 41
0.0
 42
0.0
 43
0.0
 44
0.0
 45
0.0
 46
0.0
 47
0.0
 48
0.0
 49
0.0
140
0.0
141
0.0
142
1.0
143
1.0
 70
  1712
 72
     0
 73
     0
 74
     0
  7

 75
     0
 76
     0
 77
     2
 78
   300
147
1.0
148
0.0
149
0.0
100
AcDbLayout
  1
Model
 70
     1
 71
     0
 10
0.0
 20
0.0
 11
12.0
 21
9.0
 12
0.0
 22
0.0
 32
0.0
 14
1.000000000000000E+20
 24
1.000000000000000E+20
 34
1.000000000000000E+20
 15
-1.000000000000000E+20
 25
-1.000000000000000E+20
 35
-1.000000000000000E+20
146
0.0
 13
0.0
 23
0.0
 33
0.0
 16
1.0
 26
0.0
 36
0.0
 17
0.0
 27
1.0
 37
0.0
 76
     0
330
1F
331
29
  0
MLINESTYLE
  5
18
102
{ACAD_REACTORS
330
17
102
}
330
17
100
AcDbMlineStyle
  2
Standard
 70
     0
  3

 62
   256
 51
90.0
 52
90.0
 71
     2
 49
0.5
 62
   256
  6
BYLAYER
 49
-0.5
 62
   256
  6
BYLAYER
  0
ACDBPLACEHOLDER
  5
F
102
{ACAD_REACTORS
330
E
102
}
330
E
  0
VISUALSTYLE
  5
2F
102
{ACAD_REACTORS
330
2A
102
}
330
2A
100
AcDbVisualStyle
  2
2dWireframe
 70
     4
 71
     0
 72
     2
 73
     0
 90
        0
 40
-0.6
 41
-30.0
 62
     5
 63
     7
421
 16777215
 74
     1
 91
        4
 64
     7
 65
   257
 75
     1
175
     1
 42
1.0
 92
        0
 66
   257
 43
1.0
 76
     1
 77
     6
 78
     2
 67
     7
 79
     5
170
     0
171
     0
290
     0
174
     0
 93
        1
 44
0.0
173
     0
291
     0
 45
0.0
1001
ACAD
1000
AcDbSavedByObjectVersion
1070
     0
  0
VISUALSTYLE
  5
31
102
{ACAD_REACTORS
330
2A
102
}
330
2A
100
AcDbVisualStyle
  2
3D Hidden
 70
     6
 71
     1
 72
     2
 73
     2
 90
        0
 40
-0.6
 41
-30.0
 62
     5
 63
     7
421
 16777215
 74
     2
 91
        2
 64
     7
 65
   257
 75
     2
175
     1
 42
40.0
 92
        0
 66
   257
 43
1.0
 76
     1
 77
     6
 78
     2
 67
     7
 79
     3
170
     0
171
     0
290
     0
174
     0
 93
        1
 44
0.0
173
     0
291
     0
 45
0.0
1001
ACAD
1000
AcDbSavedByObjectVersion
1070
     0
  0
VISUALSTYLE
  5
30
102
{ACAD_REACTORS
330
2A
102
}
330
2A
100
AcDbVisualStyle
  2
3dWireframe
 70
     5
 71
     0
 72
     2
 73
     0
 90
        0
 40
-0.6
 41
-30.0
 62
     5
 63
     7
421
 16777215
 74
     1
 91
        4
 64
     7
 65
   257
 75
     1
175
     1
 42
1.0
 92
        0
 66
   257
 43
1.0
 76
     1
 77
     6
 78
     2
 67
     7
 79
     5
170
     0
171
     0
290
     0
174
     0
 93
        1
 44
0.0
173
     0
291
     0
 45
0.0
1001
ACAD
1000
AcDbSavedByObjectVersion
1070
     0
  0
VISUALSTYLE
  5
32
102
{ACAD_REACTORS
330
2A
102
}
330
2A
100
AcDbVisualStyle
  2
Basic
 70
     7
 71
     1
 72
     0
 73
     1
 90
        0
 40
-0.6
 41
-30.0
 62
     5
 63
     7
421
 16777215
 74
     0
 91
        4
 64
     7
 65
   257
 75
     1
175
     1
 42
1.0
 92
        8
 66
     7
 43
1.0
 76
     1
 77
     6
 78
     2
 67
     7
 79
     5
170
     0
171
     0
290
     0
174
     0
 93
        1
 44
0.0
173
     0
291
     1
 45
0.0
1001
ACAD
1000
AcDbSavedByObjectVersion
1070
     0
  0
VISUALSTYLE
  5
36
102
{ACAD_REACTORS
330
2A
102
}
330
2A
100
AcDbVisualStyle
  2
Brighten
 70
    12
 71
     2
 72
     2
 73
     0
 90
        0
 40
-0.6
 41
-30.0
 62
     5
 63
     7
421
 16777215
 74
     1
 91
        4
 64
     7
 65
   257
 75
     1
175
     1
 42
1.0
 92
        8
 66
     7
 43
1.0
 76
     1
 77
     6
 78
     2
 67
     7
 79
     5
170
     0
171
     0
290
     0
174
     0
 93
        1
 44
50.0
173
     0
291
     1
 45
0.0
1001
ACAD
1000
AcDbSavedByObjectVersion
1070
     0
  0
VISUALSTYLE
  5
3A
102
{ACAD_REACTORS
330
2A
102
}
330
2A
100
AcDbVisualStyle
  2
ColorChange
 70
    16
 71
     2
 72
     2
 73
     3
 90
        0
 40
-0.6
 41
-30.0
 62
     5
 63
     8
421
  8421504
 74
     1
 91
        4
 64
     7
 65
   257
 75
     1
175
     1
 42
1.0
 92
        8
 66
     8
424
  8421504
 43
1.0
 76
     1
 77
     6
 78
     2
 67
     7
 79
     5
170
     0
171
     0
290
     0
174
     0
 93
        1
 44
0.0
173
     0
291
     1
 45
0.0
1001
ACAD
1000
AcDbSavedByObjectVersion
1070
     0
  0
VISUALSTYLE
  5
34
102
{ACAD_REACTORS
330
2A
102
}
330
2A
100
AcDbVisualStyle
  2
Conceptual
 70
     9
 71
     3
 72
     2
 73
     0
 90
        0
 40
-0.6
 41
-30.0
 62
     5
 63
     7
421
 16777215
 74
     2
 91
        2
 64
     7
 65
   257
 75
     1
175
     1
 42
40.0
 92
        8
 66
     7
 43
1.0
 76
     1
 77
     6
 78
     2
 67
     7
 79
     3
170
     0
171
     0
290
     0
174
     0
 93
        1
 44
0.0
173
     0
291
     0
 45
0.0
1001
ACAD
1000
AcDbSavedByObjectVersion
1070
     0
  0
VISUALSTYLE
  5
35
102
{ACAD_REACTORS
330
2A
102
}
330
2A
100
AcDbVisualStyle
  2
Dim
 70
    11
 71
     2
 72
     2
 73
     0
 90
        0
 40
-0.6
 41
-30.0
 62
     5
 63
     7
421
 16777215
 74
     1
 91
        4
 64
     7
 65
   257
 75
     1
175
     1
 42
1.0
 92
        8
 66
     7
 43
1.0
 76
     1
 77
     6
 78
     2
 67
     7
 79
     5
170
     0
171
     0
290
     0
174
     0
 93
        1
 44
-50.0
173
     0
291
     1
 45
0.0
1001
ACAD
1000
AcDbSavedByObjectVersion
1070
     0
  0
VISUALSTYLE
  5
39
102
{ACAD_REACTORS
330
2A
102
}
330
2A
100
AcDbVisualStyle
  2
Facepattern
 70
    15
 71
     2
 72
     2
 73
     0
 90
        0
 40
-0.6
 41
-30.0
 62
     5
 63
     7
421
 16777215
 74
     1
 91
        4
 64
     7
 65
   257
 75
     1
175
     1
 42
1.0
 92
        8
 66
     7
 43
1.0
 76
     1
 77
     6
 78
     2
 67
     7
 79
     5
170
     0
171
     0
290
     0
174
     0
 93
        1
 44
0.0
173
     0
291
     1
 45
0.0
1001
ACAD
1000
AcDbSavedByObjectVersion
1070
     0
  0
VISUALSTYLE
  5
2B
102
{ACAD_REACTORS
330
2A
102
}
330
2A
100
AcDbVisualStyle
  2
Flat
 70
     0
 71
     2
 72
     1
 73
     1
 90
        2
 40
-0.6
 41
30.0
 62
     5
 63
     7
421
 16777215
 74
     0
 91
        4
 64
     7
 65
   257
 75
     1
175
     1
 42
1.0
 92
        8
 66
     7
 43
1.0
 76
     1
 77
     6
 78
     2
 67
     7
 79
     5
170
     0
171
     0
290
     0
174
     0
 93
       13
 44
0.0
173
     0
291
     1
 45
0.0
1001
ACAD
1000
AcDbSavedByObjectVersion
1070
     0
  0
VISUALSTYLE
  5
2C
102
{ACAD_REACTORS
330
2A
102
}
330
2A
100
AcDbVisualStyle
  2
FlatWithEdges
 70
     1
 71
     2
 72
     1
 73
     1
 90
        2
 40
-0.6
 41
30.0
 62
     5
 63
     7
421
 16777215
 74
     1
 91
        4
 64
     7
 65
   257
 75
     1
175
     1
 42
1.0
 92
        0
 66
   257
 43
1.0
 76
     1
 77
     6
 78
     2
 67
     7
 79
     5
170
     0
171
     0
290
     0
174
     0
 93
       13
 44
0.0
173
     0
291
     1
 45
0.0
1001
ACAD
1000
AcDbSavedByObjectVersion
1070
     0
  0
VISUALSTYLE
  5
2D
102
{ACAD_REACTORS
330
2A
102
}
330
2A
100
AcDbVisualStyle
  2
Gouraud
 70
     2
 71
     2
 72
     2
 73
     1
 90
        2
 40
-0.6
 41
30.0
 62
     5
 63
     7
421
 16777215
 74
     0
 91
        4
 64
     7
 65
   257
 75
     1
175
     1
 42
1.0
 92
        0
 66
     7
 43
1.0
 76
     1
 77
     6
 78
     2
 67
     7
 79
     5
170
     0
171
     0
290
     0
174
     0
 93
       13
 44
0.0
173
     0
291
     1
 45
0.0
1001
ACAD
1000
AcDbSavedByObjectVersion
1070
     0
  0
VISUALSTYLE
  5
2E
102
{ACAD_REACTORS
330
2A
102
}
330
2A
100
AcDbVisualStyle
  2
GouraudWithEdges
 70
     3
 71
     2
 72
     2
 73
     1
 90
        2
 40
-0.6
 41
30.0
 62
     5
 63
     7
421
 16777215
 74
     1
 91
        4
 64
     7
 65
   257
 75
     1
175
     1
 42
1.0
 92
        0
 66
   257
 43
1.0
 76
     1
 77
     6
 78
     2
 67
     7
 79
     5
170
     0
171
     0
290
     0
174
     0
 93
       13
 44
0.0
173
     0
291
     1
 45
0.0
1001
ACAD
1000
AcDbSavedByObjectVersion
1070
     0
  0
VISUALSTYLE
  5
38
102
{ACAD_REACTORS
330
2A
102
}
330
2A
100
AcDbVisualStyle
  2
Linepattern
 70
    14
 71
     2
 72
     2
 73
     0
 90
        0
 40
-0.6
 41
-30.0
 62
     5
 63
     7
421
 16777215
 74
     1
 91
        4
 64
     7
 65
   257
 75
     7
175
     7
 42
1.0
 92
        8
 66
     7
 43
1.0
 76
     1
 77
     6
 78
     2
 67
     7
 79
     5
170
     0
171
     0
290
     0
174
     0
 93
        1
 44
0.0
173
     0
291
     1
 45
0.0
1001
ACAD
1000
AcDbSavedByObjectVersion
1070
     0
  0
VISUALSTYLE
  5
33
102
{ACAD_REACTORS
330
2A
102
}
330
2A
100
AcDbVisualStyle
  2
Realistic
 70
     8
 71
     2
 72
     2
 73
     0
 90
        0
 40
-0.6
 41
-30.0
 62
     5
 63
     7
421
 16777215
 74
     1
 91
        0
 64
     7
 65
   257
 75
     1
175
     1
 42
1.0
 92
        8
 66
     8
424
  7895160
 43
1.0
 76
     1
 77
     6
 78
     2
 67
     7
 79
     5
170
     0
171
     0
290
     0
174
     0
 93
       13
 44
0.0
173
     0
291
     0
 45
0.0
1001
ACAD
1000
AcDbSavedByObjectVersion
1070
     0
  0
VISUALSTYLE
  5
37
102
{ACAD_REACTORS
330
2A
102
}
330
2A
100
AcDbVisualStyle
  2
Thicken
 70
    13
 71
     2
 72
     2
 73
     0
 90
        0
 40
-0.6
 41
-30.0
 62
     5
 63
     7
421
 16777215
 74
     1
 91
        4
 64
     7
 65
   257
 75
     1
175
     1
 42
1.0
 92
       12
 66
     7
 43
1.0
 76
     1
 77
     6
 78
     2
 67
     7
 79
     5
170
     0
171
     0
290
     0
174
     0
 93
        1
 44
0.0
173
     0
291
     1
 45
0.0
1001
ACAD
1000
AcDbSavedByObjectVersion
1070
     0
  0
ENDSEC
  0
EOF
