  0
SECTION
  2
HEADER
  9
$ACADVER
  1
AC1018
  9
$ACADMAINTVER
 70
     0
  9
$DWGCODEPAGE
  3
ANSI_1252
  9
$INSBASE
 10
0.0
 20
0.0
 30
0.0
  9
$EXTMIN
 10
1.000000000000000E+20
 20
1.000000000000000E+20
 30
1.000000000000000E+20
  9
$EXTMAX
 10
-1.000000000000000E+20
 20
-1.000000000000000E+20
 30
-1.000000000000000E+20
  9
$LIMMIN
 10
0.0
 20
0.0
  9
$LIMMAX
 10
12.0
 20
9.0
  9
$ORTHOMODE
 70
     0
  9
$REGENMODE
 70
     1
  9
$FILLMODE
 70
     1
  9
$QTEXTMODE
 70
     0
  9
$MIRRTEXT
 70
     1
  9
$LTSCALE
 40
1.0
  9
$ATTMODE
 70
     1
  9
$TEXTSIZE
 40
0.2
  9
$TRACEWID
 40
0.05
  9
$TEXTSTYLE
  7
Standard
  9
$CLAYER
  8
0
  9
$CELTYPE
  6
ByLayer
  9
$CECOLOR
 62
   256
  9
$CELTSCALE
 40
1.0
  9
$DISPSILH
 70
     0
  9
$DIMSCALE
 40
1.0
  9
$DIMASZ
 40
0.18
  9
$DIMEXO
 40
0.0625
  9
$DIMDLI
 40
0.38
  9
$DIMRND
 40
0.0
  9
$DIMDLE
 40
0.0
  9
$DIMEXE
 40
0.18
  9
$DIMTP
 40
0.0
  9
$DIMTM
 40
0.0
  9
$DIMTXT
 40
0.18
  9
$DIMCEN
 40
0.09
  9
$DIMTSZ
 40
0.0
  9
$DIMTOL
 70
     0
  9
$DIMLIM
 70
     0
  9
$DIMTIH
 70
     1
  9
$DIMTOH
 70
     1
  9
$DIMSE1
 70
     0
  9
$DIMSE2
 70
     0
  9
$DIMTAD
 70
     0
  9
$DIMZIN
 70
     0
  9
$DIMBLK
  1

  9
$DIMASO
 70
     1
  9
$DIMSHO
 70
     1
  9
$DIMPOST
  1

  9
$DIMAPOST
  1

  9
$DIMALT
 70
     0
  9
$DIMALTD
 70
     2
  9
$DIMALTF
 40
25.4
  9
$DIMLFAC
 40
1.0
  9
$DIMTOFL
 70
     0
  9
$DIMTVP
 40
0.0
  9
$DIMTIX
 70
     0
  9
$DIMSOXD
 70
     0
  9
$DIMSAH
 70
     0
  9
$DIMBLK1
  1

  9
$DIMBLK2
  1

  9
$DIMSTYLE
  2
Standard
  9
$DIMCLRD
 70
     0
  9
$DIMCLRE
 70
     0
  9
$DIMCLRT
 70
     0
  9
$DIMTFAC
 40
1.0
  9
$DIMGAP
 40
0.09
  9
$DIMJUST
 70
     0
  9
$DIMSD1
 70
     0
  9
$DIMSD2
 70
     0
  9
$DIMTOLJ
 70
     1
  9
$DIMTZIN
 70
     0
  9
$DIMALTZ
 70
     0
  9
$DIMALTTZ
 70
     0
  9
$DIMUPT
 70
     0
  9
$DIMDEC
 70
     4
  9
$DIMTDEC
 70
     4
  9
$DIMALTU
 70
     2
  9
$DIMALTTD
 70
     2
  9
$DIMTXSTY
  7
Standard
  9
$DIMAUNIT
 70
     0
  9
$DIMADEC
 70
     0
  9
$DIMALTRND
 40
0.0
  9
$DIMAZIN
 70
     0
  9
$DIMDSEP
 70
    46
  9
$DIMATFIT
 70
     3
  9
$DIMFRAC
 70
     0
  9
$DIMLDRBLK
  1

  9
$DIMLUNIT
 70
     2
  9
$DIMLWD
 70
    -2
  9
$DIMLWE
 70
    -2
  9
$DIMTMOVE
 70
     0
  9
$LUNITS
 70
     2
  9
$LUPREC
 70
     4
  9
$SKETCHINC
 40
0.1
  9
$FILLETRAD
 40
0.5
  9
$AUNITS
 70
     0
  9
$AUPREC
 70
     0
  9
$MENU
  1
.
  9
$ELEVATION
 40
0.0
  9
$PELEVATION
 40
0.0
  9
$THICKNESS
 40
0.0
  9
$LIMCHECK
 70
     0
  9
$CHAMFERA
 40
0.5
  9
$CHAMFERB
 40
0.5
  9
$CHAMFERC
 40
1.0
  9
$CHAMFERD
 40
0.0
  9
$SKPOLY
 70
     0
  9
$TDCREATE
 40
2459811.900315926
  9
$TDUCREATE
 40
2459811.858649259
  9
$TDUPDATE
 40
2459811.900315938
  9
$TDUUPDATE
 40
2459811.858649271
  9
$TDINDWG
 40
0.0000000116
  9
$TDUSRTIMER
 40
0.0000000116
  9
$USRTIMER
 70
     1
  9
$ANGBASE
 50
0.0
  9
$ANGDIR
 70
     0
  9
$PDMODE
 70
     0
  9
$PDSIZE
 40
0.0
  9
$PLINEWID
 40
0.0
  9
$SPLFRAME
 70
     0
  9
$SPLINETYPE
 70
     6
  9
$SPLINESEGS
 70
     8
  9
$HANDSEED
  5
167
  9
$SURFTAB1
 70
     6
  9
$SURFTAB2
 70
     6
  9
$SURFTYPE
 70
     6
  9
$SURFU
 70
     6
  9
$SURFV
 70
     6
  9
$UCSBASE
  2

  9
$UCSNAME
  2

  9
$UCSORG
 10
0.0
 20
0.0
 30
0.0
  9
$UCSXDIR
 10
1.0
 20
0.0
 30
0.0
  9
$UCSYDIR
 10
0.0
 20
1.0
 30
0.0
  9
$UCSORTHOREF
  2

  9
$UCSORTHOVIEW
 70
     0
  9
$UCSORGTOP
 10
0.0
 20
0.0
 30
0.0
  9
$UCSORGBOTTOM
 10
0.0
 20
0.0
 30
0.0
  9
$UCSORGLEFT
 10
0.0
 20
0.0
 30
0.0
  9
$UCSORGRIGHT
 10
0.0
 20
0.0
 30
0.0
  9
$UCSORGFRONT
 10
0.0
 20
0.0
 30
0.0
  9
$UCSORGBACK
 10
0.0
 20
0.0
 30
0.0
  9
$PUCSBASE
  2

  9
$PUCSNAME
  2

  9
$PUCSORG
 10
0.0
 20
0.0
 30
0.0
  9
$PUCSXDIR
 10
1.0
 20
0.0
 30
0.0
  9
$PUCSYDIR
 10
0.0
 20
1.0
 30
0.0
  9
$PUCSORTHOREF
  2

  9
$PUCSORTHOVIEW
 70
     0
  9
$PUCSORGTOP
 10
0.0
 20
0.0
 30
0.0
  9
$PUCSORGBOTTOM
 10
0.0
 20
0.0
 30
0.0
  9
$PUCSORGLEFT
 10
0.0
 20
0.0
 30
0.0
  9
$PUCSORGRIGHT
 10
0.0
 20
0.0
 30
0.0
  9
$PUCSORGFRONT
 10
0.0
 20
0.0
 30
0.0
  9
$PUCSORGBACK
 10
0.0
 20
0.0
 30
0.0
  9
$USERI1
 70
     0
  9
$USERI2
 70
     0
  9
$USERI3
 70
     0
  9
$USERI4
 70
     0
  9
$USERI5
 70
     0
  9
$USERR1
 40
0.0
  9
$USERR2
 40
0.0
  9
$USERR3
 40
0.0
  9
$USERR4
 40
0.0
  9
$USERR5
 40
0.0
  9
$WORLDVIEW
 70
     1
  9
$SHADEDGE
 70
     3
  9
$SHADEDIF
 70
    70
  9
$TILEMODE
 70
     1
  9
$MAXACTVP
 70
    64
  9
$PINSBASE
 10
0.0
 20
0.0
 30
0.0
  9
$PLIMCHECK
 70
     0
  9
$PEXTMIN
 10
1.000000000000000E+20
 20
1.000000000000000E+20
 30
1.000000000000000E+20
  9
$PEXTMAX
 10
-1.000000000000000E+20
 20
-1.000000000000000E+20
 30
-1.000000000000000E+20
  9
$PLIMMIN
 10
0.0
 20
0.0
  9
$PLIMMAX
 10
12.0
 20
9.0
  9
$UNITMODE
 70
     0
  9
$VISRETAIN
 70
     1
  9
$PLINEGEN
 70
     0
  9
$PSLTSCALE
 70
     1
  9
$TREEDEPTH
 70
  3020
  9
$CMLSTYLE
  2
Standard
  9
$CMLJUST
 70
     0
  9
$CMLSCALE
 40
1.0
  9
$PROXYGRAPHICS
 70
     1
  9
$MEASUREMENT
 70
     0
  9
$CELWEIGHT
370
    -1
  9
$ENDCAPS
280
     0
  9
$JOINSTYLE
280
     0
  9
$LWDISPLAY
290
     1
  9
$INSUNITS
 70
     1
  9
$HYPERLINKBASE
  1

  9
$STYLESHEET
  1

  9
$XEDIT
290
     1
  9
$CEPSNTYPE
380
     0
  9
$PSTYLEMODE
290
     1
  9
$FINGERPRINTGUID
  2
{09D83330-8CE3-49FA-81D3-C32AE60CE53A}
  9
$VERSIONGUID
  2
{FAEB1C32-E019-11D5-929B-00C0DF256EC4}
  9
$EXTNAMES
290
     1
  9
$PSVPSCALE
 40
0.0
  9
$OLESTARTUP
290
     0
  9
$SORTENTS
280
   127
  9
$INDEXCTL
280
     0
  9
$HIDETEXT
280
     1
  9
$XCLIPFRAME
290
     0
  9
$HALOGAP
280
     0
  9
$OBSCOLOR
 70
   257
  9
$OBSLTYPE
280
     0
  9
$INTERSECTIONDISPLAY
280
     0
  9
$INTERSECTIONCOLOR
 70
   257
  9
$DIMASSOC
280
     2
  9
$PROJECTNAME
  1

  0
ENDSEC
  0
SECTION
  2
CLASSES
  0
CLASS
  1
ACDBDICTIONARYWDFLT
  2
AcDbDictionaryWithDefault
  3
ObjectDBX Classes
 90
        0
 91
        3
280
     0
281
     0
  0
CLASS
  1
VISUALSTYLE
  2
AcDbVisualStyle
  3
ObjectDBX Classes
 90
     4095
 91
        3
280
     0
281
     0
  0
ENDSEC
  0
SECTION
  2
TABLES
  0
TABLE
  2
VPORT
  5
8
330
0
100
AcDbSymbolTable
 70
     1
  0
VPORT
  5
29
330
8
100
AcDbSymbolTableRecord
100
AcDbViewportTableRecord
  2
*Active
 70
     0
 10
0.0
 20
0.0
 11
1.0
 21
1.0
 12
0.0
 22
0.0
 13
0.0
 23
0.0
 14
0.5
 24
0.5
 15
0.5
 25
0.5
 16
0.0
 26
0.0
 36
1.0
 17
149.9992851730037
 27
-100.00009763125
 37
0.0
 40
200.0001952625
 41
1.499991387269696
 42
50.0
 43
0.0
 44
0.0
 50
0.0
 51
0.0
 71
     0
 72
   100
 73
     1
 74
     3
 75
     0
 76
     0
 77
     0
 78
     0
281
     0
 65
     1
110
0.0
120
0.0
130
0.0
111
1.0
121
0.0
131
0.0
112
0.0
122
1.0
132
0.0
 79
     0
146
0.0
  0
ENDTAB
  0
TABLE
  2
LTYPE
  5
5
330
0
100
AcDbSymbolTable
 70
     1
  0
LTYPE
  5
14
330
5
100
AcDbSymbolTableRecord
100
AcDbLinetypeTableRecord
  2
ByBlock
 70
     0
  3

 72
    65
 73
     0
 40
0.0
  0
LTYPE
  5
15
330
5
100
AcDbSymbolTableRecord
100
AcDbLinetypeTableRecord
  2
ByLayer
 70
     0
  3

 72
    65
 73
     0
 40
0.0
  0
LTYPE
  5
16
330
5
100
AcDbSymbolTableRecord
100
AcDbLinetypeTableRecord
  2
Continuous
 70
     0
  3
Solid line
 72
    65
 73
     0
 40
0.0
  0
ENDTAB
  0
TABLE
  2
LAYER
  5
2
330
0
100
AcDbSymbolTable
 70
     2
  0
LAYER
  5
10
330
2
100
AcDbSymbolTableRecord
100
AcDbLayerTableRecord
  2
0
 70
     0
 62
     7
  6
Continuous
370
    -3
390
F
  0
LAYER
  5
3B
330
2
100
AcDbSymbolTableRecord
100
AcDbLayerTableRecord
  2
Layer 1
 70
     0
 62
     7
  6
Continuous
370
    -3
390
F
  0
ENDTAB
  0
TABLE
  2
STYLE
  5
3
330
0
100
AcDbSymbolTable
 70
     1
  0
STYLE
  5
11
330
3
100
AcDbSymbolTableRecord
100
AcDbTextStyleTableRecord
  2
Standard
 70
     0
 40
0.0
 41
1.0
 50
0.0
 71
     0
 42
0.2
  3
txt
  4

  0
ENDTAB
  0
TABLE
  2
VIEW
  5
6
330
0
100
AcDbSymbolTable
 70
     0
  0
ENDTAB
  0
TABLE
  2
UCS
  5
7
330
0
100
AcDbSymbolTable
 70
     0
  0
ENDTAB
  0
TABLE
  2
APPID
  5
9
330
0
100
AcDbSymbolTable
 70
     1
  0
APPID
  5
12
330
9
100
AcDbSymbolTableRecord
100
AcDbRegAppTableRecord
  2
ACAD
 70
     0
  0
ENDTAB
  0
TABLE
  2
DIMSTYLE
  5
A
330
0
100
AcDbSymbolTable
 70
     1
100
AcDbDimStyleTable
  0
DIMSTYLE
105
27
330
A
100
AcDbSymbolTableRecord
100
AcDbDimStyleTableRecord
  2
Standard
 70
     0
340
11
  0
ENDTAB
  0
TABLE
  2
BLOCK_RECORD
  5
1
330
0
100
AcDbSymbolTable
 70
     1
  0
BLOCK_RECORD
  5
1F
330
1
100
AcDbSymbolTableRecord
100
AcDbBlockTableRecord
  2
*Model_Space
340
22
  0
BLOCK_RECORD
  5
1B
330
1
100
AcDbSymbolTableRecord
100
AcDbBlockTableRecord
  2
*Paper_Space
340
1E
  0
BLOCK_RECORD
  5
23
330
1
100
AcDbSymbolTableRecord
100
AcDbBlockTableRecord
  2
*Paper_Space0
340
26
  0
ENDTAB
  0
ENDSEC
  0
SECTION
  2
BLOCKS
  0
BLOCK
  5
20
330
1F
100
AcDbEntity
  8
0
100
AcDbBlockBegin
  2
*Model_Space
 70
     0
 71
     0
 10
0.0
 20
0.0
 30
0.0
  3
*Model_Space
  1

  0
ENDBLK
  5
21
330
1F
100
AcDbEntity
  8
0
100
AcDbBlockEnd
  0
BLOCK
  5
1C
330
1B
100
AcDbEntity
 67
     1
  8
0
100
AcDbBlockBegin
  2
*Paper_Space
 70
     0
 71
     0
 10
0.0
 20
0.0
 30
0.0
  3
*Paper_Space
  1

  0
ENDBLK
  5
1D
330
1B
100
AcDbEntity
 67
     1
  8
0
100
AcDbBlockEnd
  0
BLOCK
  5
24
330
23
100
AcDbEntity
  8
0
100
AcDbBlockBegin
  2
*Paper_Space0
 70
     0
 71
     0
 10
0.0
 20
0.0
 30
0.0
  3
*Paper_Space0
  1

  0
ENDBLK
  5
25
330
23
100
AcDbEntity
  8
0
100
AcDbBlockEnd
  0
ENDSEC
  0
SECTION
  2
ENTITIES
  0
SPLINE
  5
3C
330
1F
100
AcDbEntity
  8
Layer 1
 62
   250
420
  1842203
370
    18
100
AcDbSpline
210
0.0
220
0.0
230
1.0
 70
    11
 71
     3
 72
    17
 73
    13
 74
     0
 42
0.0000000001
 43
0.0000000001
 40
0.0
 40
0.0
 40
0.0
 40
0.0
 40
1.0
 40
1.0
 40
1.0
 40
2.0
 40
2.0
 40
2.0
 40
3.0
 40
3.0
 40
3.0
 40
4.0
 40
4.0
 40
4.0
 40
4.0
 10
24.84999049942986
 20
-23.49985757876046
 30
0.0
 10
24.84999049942986
 20
-22.75433891575239
 30
0.0
 10
24.24554849654278
 20
-22.14989691286531
 30
0.0
 10
23.49985757876046
 20
-22.14989691286531
 30
0.0
 10
22.75433891575239
 20
-22.14989691286531
 30
0.0
 10
22.14989691286531
 20
-22.75433891575239
 30
0.0
 10
22.14989691286531
 20
-23.49985757876046
 30
0.0
 10
22.14989691286531
 20
-24.24554849654278
 30
0.0
 10
22.75433891575239
 20
-24.84999049942986
 30
0.0
 10
23.49985757876046
 20
-24.84999049942986
 30
0.0
 10
24.24554849654278
 20
-24.84999049942986
 30
0.0
 10
24.84999049942986
 20
-24.24554849654278
 30
0.0
 10
24.84999049942986
 20
-23.49985757876046
 30
0.0
  0
SPLINE
  5
3D
330
1F
100
AcDbEntity
  8
Layer 1
 62
   250
420
  1842203
370
    18
100
AcDbSpline
210
0.0
220
0.0
230
1.0
 70
    11
 71
     3
 72
    17
 73
    13
 74
     0
 42
0.0000000001
 43
0.0000000001
 40
0.0
 40
0.0
 40
0.0
 40
0.0
 40
1.0
 40
1.0
 40
1.0
 40
2.0
 40
2.0
 40
2.0
 40
3.0
 40
3.0
 40
3.0
 40
4.0
 40
4.0
 40
4.0
 40
4.0
 10
24.84999049942986
 20
-72.49996742979168
 30
0.0
 10
24.84999049942986
 20
-71.75444876678361
 30
0.0
 10
24.24554849654278
 20
-71.15000676389653
 30
0.0
 10
23.49985757876046
 20
-71.15000676389653
 30
0.0
 10
22.75433891575239
 20
-71.15000676389653
 30
0.0
 10
22.14989691286531
 20
-71.75444876678361
 30
0.0
 10
22.14989691286531
 20
-72.49996742979168
 30
0.0
 10
22.14989691286531
 20
-73.24565834757401
 30
0.0
 10
22.75433891575239
 20
-73.85010035046109
 30
0.0
 10
23.49985757876046
 20
-73.85010035046109
 30
0.0
 10
24.24554849654278
 20
-73.85010035046109
 30
0.0
 10
24.84999049942986
 20
-73.24565834757401
 30
0.0
 10
24.84999049942986
 20
-72.49996742979168
 30
0.0
  0
SPLINE
  5
3E
330
1F
100
AcDbEntity
  8
Layer 1
 62
   250
420
  1842203
370
    18
100
AcDbSpline
210
0.0
220
0.0
230
1.0
 70
    11
 71
     3
 72
    17
 73
    13
 74
     0
 42
0.0000000001
 43
0.0000000001
 40
0.0
 40
0.0
 40
0.0
 40
0.0
 40
1.0
 40
1.0
 40
1.0
 40
2.0
 40
2.0
 40
2.0
 40
3.0
 40
3.0
 40
3.0
 40
4.0
 40
4.0
 40
4.0
 40
4.0
 10
82.85006779612776
 20
-23.49985757876046
 30
0.0
 10
82.85006779612776
 20
-22.75433891575239
 30
0.0
 10
82.24562579324068
 20
-22.14989691286531
 30
0.0
 10
81.49993487545835
 20
-22.14989691286531
 30
0.0
 10
80.7544162124503
 20
-22.14989691286531
 30
0.0
 10
80.14997420956321
 20
-22.75433891575239
 30
0.0
 10
80.14997420956321
 20
-23.49985757876046
 30
0.0
 10
80.14997420956321
 20
-24.24554849654278
 30
0.0
 10
80.7544162124503
 20
-24.84999049942986
 30
0.0
 10
81.49993487545835
 20
-24.84999049942986
 30
0.0
 10
82.24562579324068
 20
-24.84999049942986
 30
0.0
 10
82.85006779612776
 20
-24.24554849654278
 30
0.0
 10
82.85006779612776
 20
-23.49985757876046
 30
0.0
  0
SPLINE
  5
3F
330
1F
100
AcDbEntity
  8
Layer 1
 62
   250
420
  1842203
370
    18
100
AcDbSpline
210
0.0
220
0.0
230
1.0
 70
    11
 71
     3
 72
    17
 73
    13
 74
     0
 42
0.0000000001
 43
0.0000000001
 40
0.0
 40
0.0
 40
0.0
 40
0.0
 40
1.0
 40
1.0
 40
1.0
 40
2.0
 40
2.0
 40
2.0
 40
3.0
 40
3.0
 40
3.0
 40
4.0
 40
4.0
 40
4.0
 40
4.0
 10
82.85006779612776
 20
-72.49996742979168
 30
0.0
 10
82.85006779612776
 20
-71.75444876678361
 30
0.0
 10
82.24562579324068
 20
-71.15000676389653
 30
0.0
 10
81.49993487545835
 20
-71.15000676389653
 30
0.0
 10
80.7544162124503
 20
-71.15000676389653
 30
0.0
 10
80.14997420956321
 20
-71.75444876678361
 30
0.0
 10
80.14997420956321
 20
-72.49996742979168
 30
0.0
 10
80.14997420956321
 20
-73.24565834757401
 30
0.0
 10
80.7544162124503
 20
-73.85010035046109
 30
0.0
 10
81.49993487545835
 20
-73.85010035046109
 30
0.0
 10
82.24562579324068
 20
-73.85010035046109
 30
0.0
 10
82.85006779612776
 20
-73.24565834757401
 30
0.0
 10
82.85006779612776
 20
-72.49996742979168
 30
0.0
  0
SPLINE
  5
40
330
1F
100
AcDbEntity
  8
Layer 1
 62
   250
420
  1842203
370
    18
100
AcDbSpline
210
0.0
220
0.0
230
1.0
 70
    11
 71
     3
 72
   125
 73
   121
 74
     0
 42
0.0000000001
 43
0.0000000001
 40
0.0
 40
0.0
 40
0.0
 40
0.0
 40
1.0
 40
1.0
 40
1.0
 40
2.0
 40
2.0
 40
2.0
 40
3.0
 40
3.0
 40
3.0
 40
4.0
 40
4.0
 40
4.0
 40
5.0
 40
5.0
 40
5.0
 40
6.0
 40
6.0
 40
6.0
 40
7.0
 40
7.0
 40
7.0
 40
8.0
 40
8.0
 40
8.0
 40
9.0
 40
9.0
 40
9.0
 40
10.0
 40
10.0
 40
10.0
 40
11.0
 40
11.0
 40
11.0
 40
12.0
 40
12.0
 40
12.0
 40
13.0
 40
13.0
 40
13.0
 40
14.0
 40
14.0
 40
14.0
 40
15.0
 40
15.0
 40
15.0
 40
16.0
 40
16.0
 40
16.0
 40
17.0
 40
17.0
 40
17.0
 40
18.0
 40
18.0
 40
18.0
 40
19.0
 40
19.0
 40
19.0
 40
20.0
 40
20.0
 40
20.0
 40
21.0
 40
21.0
 40
21.0
 40
22.0
 40
22.0
 40
22.0
 40
23.0
 40
23.0
 40
23.0
 40
24.0
 40
24.0
 40
24.0
 40
25.0
 40
25.0
 40
25.0
 40
26.0
 40
26.0
 40
26.0
 40
27.0
 40
27.0
 40
27.0
 40
28.0
 40
28.0
 40
28.0
 40
29.0
 40
29.0
 40
29.0
 40
30.0
 40
30.0
 40
30.0
 40
31.0
 40
31.0
 40
31.0
 40
32.0
 40
32.0
 40
32.0
 40
33.0
 40
33.0
 40
33.0
 40
34.0
 40
34.0
 40
34.0
 40
35.0
 40
35.0
 40
35.0
 40
36.0
 40
36.0
 40
36.0
 40
37.0
 40
37.0
 40
37.0
 40
38.0
 40
38.0
 40
38.0
 40
39.0
 40
39.0
 40
39.0
 40
40.0
 40
40.0
 40
40.0
 40
40.0
 10
14.00000677818403
 20
-19.99998507529514
 30
0.0
 10
14.00000677818403
 20
-14.00000677818403
 30
0.0
 10
14.00000677818403
 20
-14.00000677818403
 30
0.0
 10
19.99998507529514
 20
-14.00000677818403
 30
0.0
 10
21.1322157065225
 20
-14.00000677818403
 30
0.0
 10
30.00006374032985
 20
-14.00000677818403
 30
0.0
 10
30.00006374032985
 20
-14.00000677818403
 30
0.0
 10
30.00006374032985
 20
-14.00000677818403
 30
0.0
 10
30.00006374032985
 20
-16.00005696214582
 30
0.0
 10
30.00006374032985
 20
-16.00005696214582
 30
0.0
 10
30.00006374032985
 20
-16.00005696214582
 30
0.0
 10
35.0001030728472
 20
-15.99988470737156
 30
0.0
 10
35.0001030728472
 20
-15.99988470737156
 30
0.0
 10
35.0001030728472
 20
-15.99988470737156
 30
0.0
 10
35.0001030728472
 20
-14.00000677818403
 30
0.0
 10
35.0001030728472
 20
-14.00000677818403
 30
0.0
 10
35.0001030728472
 20
-14.00000677818403
 30
0.0
 10
59.99978297111117
 20
-14.00000677818403
 30
0.0
 10
59.99978297111117
 20
-14.00000677818403
 30
0.0
 10
59.99978297111117
 20
-14.00000677818403
 30
0.0
 10
60.00012748065969
 20
-16.00005696214582
 30
0.0
 10
60.00012748065969
 20
-16.00005696214582
 30
0.0
 10
60.00012748065969
 20
-16.00005696214582
 30
0.0
 10
64.99999455840278
 20
-16.00005696214582
 30
0.0
 10
64.99999455840278
 20
-16.00005696214582
 30
0.0
 10
64.99999455840278
 20
-16.00005696214582
 30
0.0
 10
65.0003390679513
 20
-14.00000677818403
 30
0.0
 10
65.0003390679513
 20
-14.00000677818403
 30
0.0
 10
65.0003390679513
 20
-14.00000677818403
 30
0.0
 10
90.00001896621528
 20
-14.00000677818403
 30
0.0
 10
90.00001896621528
 20
-14.00000677818403
 30
0.0
 10
90.00001896621528
 20
-14.00000677818403
 30
0.0
 10
90.00001896621528
 20
-16.00005696214582
 30
0.0
 10
90.00001896621528
 20
-16.00005696214582
 30
0.0
 10
90.00001896621528
 20
-16.00005696214582
 30
0.0
 10
95.00005829873263
 20
-16.00005696214582
 30
0.0
 10
95.00005829873263
 20
-16.00005696214582
 30
0.0
 10
95.00005829873263
 20
-16.00005696214582
 30
0.0
 10
95.00005829873263
 20
-14.00000677818403
 30
0.0
 10
95.00005829873263
 20
-14.00000677818403
 30
0.0
 10
95.00005829873263
 20
-14.00000677818403
 30
0.0
 10
104.6526990840799
 20
-14.00000677818403
 30
0.0
 10
104.9999647089931
 20
-14.00000677818403
 30
0.0
 10
110.9999430061042
 20
-14.00000677818403
 30
0.0
 10
110.9999430061042
 20
-14.00000677818403
 30
0.0
 10
110.9999430061042
 20
-19.99998507529514
 30
0.0
 10
110.9999430061042
 20
-22.00003525925694
 30
0.0
 10
110.9999430061042
 20
-73.00002303947569
 30
0.0
 10
110.9999430061042
 20
-76.00001218803125
 30
0.0
 10
110.9999430061042
 20
-81.99999048514236
 30
0.0
 10
110.9999430061042
 20
-81.99999048514236
 30
0.0
 10
104.9999647089931
 20
-81.99999048514236
 30
0.0
 10
104.7160888410085
 20
-82.00016273991663
 30
0.0
 10
95.0002305535069
 20
-82.00016273991663
 30
0.0
 10
95.0002305535069
 20
-82.00016273991663
 30
0.0
 10
95.0002305535069
 20
-82.00016273991663
 30
0.0
 10
95.00005829873263
 20
-79.99994030118057
 30
0.0
 10
95.00005829873263
 20
-79.99994030118057
 30
0.0
 10
95.00005829873263
 20
-79.99994030118057
 30
0.0
 10
90.00001896621528
 20
-79.99994030118057
 30
0.0
 10
90.00001896621528
 20
-79.99994030118057
 30
0.0
 10
90.00001896621528
 20
-79.99994030118057
 30
0.0
 10
90.00001896621528
 20
-82.00016273991663
 30
0.0
 10
90.00001896621528
 20
-82.00016273991663
 30
0.0
 10
90.00001896621528
 20
-82.00016273991663
 30
0.0
 10
64.99999455840278
 20
-82.00016273991663
 30
0.0
 10
64.99999455840278
 20
-81.99999048514236
 30
0.0
 10
64.99999455840278
 20
-81.99999048514236
 30
0.0
 10
64.99999455840278
 20
-80.00011255595484
 30
0.0
 10
64.99999455840278
 20
-80.00011255595484
 30
0.0
 10
64.99999455840278
 20
-80.00011255595484
 30
0.0
 10
59.99995522588543
 20
-80.00011255595484
 30
0.0
 10
59.99995522588543
 20
-80.00011255595484
 30
0.0
 10
59.99995522588543
 20
-80.00011255595484
 30
0.0
 10
59.99978297111117
 20
-81.99999048514236
 30
0.0
 10
59.99978297111117
 20
-81.99999048514236
 30
0.0
 10
59.99978297111117
 20
-81.99999048514236
 30
0.0
 10
34.99993081807293
 20
-81.99999048514236
 30
0.0
 10
34.99993081807293
 20
-81.99999048514236
 30
0.0
 10
34.99993081807293
 20
-81.99999048514236
 30
0.0
 10
35.0001030728472
 20
-80.00011255595484
 30
0.0
 10
35.0001030728472
 20
-80.00011255595484
 30
0.0
 10
35.0001030728472
 20
-80.00011255595484
 30
0.0
 10
30.00006374032985
 20
-80.00011255595484
 30
0.0
 10
30.00006374032985
 20
-80.00011255595484
 30
0.0
 10
30.00006374032985
 20
-80.00011255595484
 30
0.0
 10
30.00023599510411
 20
-81.99999048514236
 30
0.0
 10
30.00023599510411
 20
-81.99999048514236
 30
0.0
 10
30.00023599510411
 20
-81.99999048514236
 30
0.0
 10
20.30728759257943
 20
-81.99999048514236
 30
0.0
 10
19.99998507529514
 20
-81.99999048514236
 30
0.0
 10
14.00000677818403
 20
-81.99999048514236
 30
0.0
 10
14.00000677818403
 20
-81.99999048514236
 30
0.0
 10
14.00000677818403
 20
-76.00001218803125
 30
0.0
 10
14.00000677818403
 20
-72.83775904212042
 30
0.0
 10
14.00000677818403
 20
-60.23611652139931
 30
0.0
 10
14.00000677818403
 20
-57.99990504192364
 30
0.0
 10
14.00000677818403
 20
-55.99985485796184
 30
0.0
 10
14.00000677818403
 20
-55.99985485796184
 30
0.0
 10
16.00005696214582
 20
-55.99985485796184
 30
0.0
 10
18.00010714610761
 20
-55.99985485796184
 30
0.0
 10
21.76387396374306
 20
-56.00002711273611
 30
0.0
 10
23.99991318844447
 20
-56.00002711273611
 30
0.0
 10
25.99996337240626
 20
-56.00002711273611
 30
0.0
 10
25.99996337240626
 20
-56.00019936751037
 30
0.0
 10
25.99996337240626
 20
-54.00014918354858
 30
0.0
 10
25.99996337240626
 20
-52.58593748685352
 30
0.0
 10
25.99996337240626
 20
-43.41423203124714
 30
0.0
 10
25.99996337240626
 20
-42.00002033455208
 30
0.0
 10
25.99996337240626
 20
-40.00014240536455
 30
0.0
 10
25.99996337240626
 20
-40.00014240536455
 30
0.0
 10
23.99991318844447
 20
-40.00014240536455
 30
0.0
 10
21.76387396374306
 20
-40.00014240536455
 30
0.0
 10
16.99999592673959
 20
-40.00014240536455
 30
0.0
 10
16.00005696214582
 20
-40.00014240536455
 30
0.0
 10
14.00000677818403
 20
-40.00014240536455
 30
0.0
 10
14.00000677818403
 20
-40.00014240536455
 30
0.0
 10
14.00000677818403
 20
-38.00009222140276
 30
0.0
 10
14.00000677818403
 20
-35.76405299670135
 30
0.0
 10
14.00000677818403
 20
-19.99998507529514
 30
0.0
 10
14.00000677818403
 20
-19.99998507529514
 30
0.0
  0
POLYLINE
  5
41
330
1F
100
AcDbEntity
  8
Layer 1
 62
   250
420
  1842203
370
    18
100
AcDb2dPolyline
 66
     1
 10
0.0
 20
0.0
 30
0.0
  0
VERTEX
  5
42
330
41
100
AcDbEntity
  8
Layer 1
 62
   250
420
  1842203
370
    18
100
AcDbVertex
100
AcDb2dVertex
 10
30.00006374032985
 20
-19.99998507529514
 30
0.0
  0
VERTEX
  5
164
330
41
100
AcDbEntity
  8
0
100
AcDbVertex
100
AcDb2dVertex
 10
30.00006374032985
 20
-19.99998507529514
 30
0.0
  0
SEQEND
  5
43
330
41
100
AcDbEntity
  8
Layer 1
370
    18
  0
POLYLINE
  5
44
330
1F
100
AcDbEntity
  8
Layer 1
 62
   250
420
  1842203
370
    18
100
AcDb2dPolyline
 66
     1
 10
0.0
 20
0.0
 30
0.0
  0
VERTEX
  5
45
330
44
100
AcDbEntity
  8
Layer 1
 62
   250
420
  1842203
370
    18
100
AcDbVertex
100
AcDb2dVertex
 10
30.00006374032985
 20
-47.9999986316632
 30
0.0
  0
VERTEX
  5
165
330
44
100
AcDbEntity
  8
0
100
AcDbVertex
100
AcDb2dVertex
 10
30.00006374032985
 20
-47.9999986316632
 30
0.0
  0
SEQEND
  5
46
330
44
100
AcDbEntity
  8
Layer 1
370
    18
  0
POLYLINE
  5
47
330
1F
100
AcDbEntity
  8
Layer 1
 62
   250
420
  1842203
370
    18
100
AcDb2dPolyline
 66
     1
 10
0.0
 20
0.0
 30
0.0
  0
VERTEX
  5
48
330
47
100
AcDbEntity
  8
Layer 1
 62
   250
420
  1842203
370
    18
100
AcDbVertex
100
AcDb2dVertex
 10
40.00014240536455
 20
-16.99999592673959
 30
0.0
  0
VERTEX
  5
49
330
47
100
AcDbEntity
  8
Layer 1
 62
   250
420
  1842203
370
    18
100
AcDbVertex
100
AcDb2dVertex
 10
50.00004881562499
 20
-16.99999592673959
 30
0.0
  0
VERTEX
  5
4A
330
47
100
AcDbEntity
  8
Layer 1
 62
   250
420
  1842203
370
    18
100
AcDbVertex
100
AcDb2dVertex
 10
50.00004881562499
 20
-19.99998507529514
 30
0.0
  0
VERTEX
  5
4B
330
47
100
AcDbEntity
  8
Layer 1
 62
   250
420
  1842203
370
    18
100
AcDbVertex
100
AcDb2dVertex
 10
40.00014240536455
 20
-19.99998507529514
 30
0.0
  0
VERTEX
  5
4C
330
47
100
AcDbEntity
  8
Layer 1
 62
   250
420
  1842203
370
    18
100
AcDbVertex
100
AcDb2dVertex
 10
40.00014240536455
 20
-16.99999592673959
 30
0.0
  0
SEQEND
  5
4D
330
47
100
AcDbEntity
  8
Layer 1
370
    18
  0
POLYLINE
  5
4E
330
1F
100
AcDbEntity
  8
Layer 1
 62
   250
420
  1842203
370
    18
100
AcDb2dPolyline
 66
     1
 10
0.0
 20
0.0
 30
0.0
  0
VERTEX
  5
4F
330
4E
100
AcDbEntity
  8
Layer 1
 62
   250
420
  1842203
370
    18
100
AcDbVertex
100
AcDb2dVertex
 10
85.00015188847219
 20
-16.99999592673959
 30
0.0
  0
VERTEX
  5
50
330
4E
100
AcDbEntity
  8
Layer 1
 62
   250
420
  1842203
370
    18
100
AcDbVertex
100
AcDb2dVertex
 10
85.00015188847219
 20
-19.99998507529514
 30
0.0
  0
VERTEX
  5
51
330
4E
100
AcDbEntity
  8
Layer 1
 62
   250
420
  1842203
370
    18
100
AcDbVertex
100
AcDb2dVertex
 10
75.00007322343748
 20
-19.99998507529514
 30
0.0
  0
VERTEX
  5
52
330
4E
100
AcDbEntity
  8
Layer 1
 62
   250
420
  1842203
370
    18
100
AcDbVertex
100
AcDb2dVertex
 10
75.00007322343748
 20
-16.99999592673959
 30
0.0
  0
VERTEX
  5
53
330
4E
100
AcDbEntity
  8
Layer 1
 62
   250
420
  1842203
370
    18
100
AcDbVertex
100
AcDb2dVertex
 10
85.00015188847219
 20
-16.99999592673959
 30
0.0
  0
SEQEND
  5
54
330
4E
100
AcDbEntity
  8
Layer 1
370
    18
  0
POLYLINE
  5
55
330
1F
100
AcDbEntity
  8
Layer 1
 62
   250
420
  1842203
370
    18
100
AcDb2dPolyline
 66
     1
 10
0.0
 20
0.0
 30
0.0
  0
VERTEX
  5
56
330
55
100
AcDbEntity
  8
Layer 1
 62
   250
420
  1842203
370
    18
100
AcDbVertex
100
AcDb2dVertex
 10
17.00016818151385
 20
-32.00011392429164
 30
0.0
  0
VERTEX
  5
57
330
55
100
AcDbEntity
  8
Layer 1
 62
   250
420
  1842203
370
    18
100
AcDbVertex
100
AcDb2dVertex
 10
20.00015733006941
 20
-32.00011392429164
 30
0.0
  0
VERTEX
  5
58
330
55
100
AcDbEntity
  8
Layer 1
 62
   250
420
  1842203
370
    18
100
AcDbVertex
100
AcDb2dVertex
 10
20.00015733006941
 20
-36.99998100203473
 30
0.0
  0
VERTEX
  5
59
330
55
100
AcDbEntity
  8
Layer 1
 62
   250
420
  1842203
370
    18
100
AcDbVertex
100
AcDb2dVertex
 10
17.00016818151385
 20
-36.99998100203473
 30
0.0
  0
VERTEX
  5
5A
330
55
100
AcDbEntity
  8
Layer 1
 62
   250
420
  1842203
370
    18
100
AcDbVertex
100
AcDb2dVertex
 10
17.00016818151385
 20
-32.00011392429164
 30
0.0
  0
SEQEND
  5
5B
330
55
100
AcDbEntity
  8
Layer 1
370
    18
  0
POLYLINE
  5
5C
330
1F
100
AcDbEntity
  8
Layer 1
 62
   250
420
  1842203
370
    18
100
AcDb2dPolyline
 66
     1
 10
0.0
 20
0.0
 30
0.0
  0
VERTEX
  5
5D
330
5C
100
AcDbEntity
  8
Layer 1
 62
   250
420
  1842203
370
    18
100
AcDbVertex
100
AcDb2dVertex
 10
19.99998507529514
 20
-64.00005559380902
 30
0.0
  0
VERTEX
  5
5E
330
5C
100
AcDbEntity
  8
Layer 1
 62
   250
420
  1842203
370
    18
100
AcDbVertex
100
AcDb2dVertex
 10
16.99999592673959
 20
-64.00005559380902
 30
0.0
  0
VERTEX
  5
5F
330
5C
100
AcDbEntity
  8
Layer 1
 62
   250
420
  1842203
370
    18
100
AcDbVertex
100
AcDb2dVertex
 10
16.99999592673959
 20
-59.00001626129166
 30
0.0
  0
VERTEX
  5
60
330
5C
100
AcDbEntity
  8
Layer 1
 62
   250
420
  1842203
370
    18
100
AcDbVertex
100
AcDb2dVertex
 10
19.99998507529514
 20
-59.00001626129166
 30
0.0
  0
VERTEX
  5
61
330
5C
100
AcDbEntity
  8
Layer 1
 62
   250
420
  1842203
370
    18
100
AcDbVertex
100
AcDb2dVertex
 10
19.99998507529514
 20
-64.00005559380902
 30
0.0
  0
SEQEND
  5
62
330
5C
100
AcDbEntity
  8
Layer 1
370
    18
  0
POLYLINE
  5
63
330
1F
100
AcDbEntity
  8
Layer 1
 62
   250
420
  1842203
370
    18
100
AcDb2dPolyline
 66
     1
 10
0.0
 20
0.0
 30
0.0
  0
VERTEX
  5
64
330
63
100
AcDbEntity
  8
Layer 1
 62
   250
420
  1842203
370
    18
100
AcDbVertex
100
AcDb2dVertex
 10
100.00009763125
 20
-16.99999592673959
 30
0.0
  0
VERTEX
  5
65
330
63
100
AcDbEntity
  8
Layer 1
 62
   250
420
  1842203
370
    18
100
AcDbVertex
100
AcDb2dVertex
 10
108.0001261123229
 20
-16.99999592673959
 30
0.0
  0
VERTEX
  5
66
330
63
100
AcDbEntity
  8
Layer 1
 62
   250
420
  1842203
370
    18
100
AcDbVertex
100
AcDb2dVertex
 10
108.0001261123229
 20
-25.0000244078125
 30
0.0
  0
VERTEX
  5
67
330
63
100
AcDbEntity
  8
Layer 1
 62
   250
420
  1842203
370
    18
100
AcDbVertex
100
AcDb2dVertex
 10
105.0001369637673
 20
-25.0000244078125
 30
0.0
  0
VERTEX
  5
68
330
63
100
AcDbEntity
  8
Layer 1
 62
   250
420
  1842203
370
    18
100
AcDbVertex
100
AcDb2dVertex
 10
105.0003092185416
 20
-19.99998507529514
 30
0.0
  0
VERTEX
  5
69
330
63
100
AcDbEntity
  8
Layer 1
 62
   250
420
  1842203
370
    18
100
AcDbVertex
100
AcDb2dVertex
 10
100.00009763125
 20
-19.99998507529514
 30
0.0
  0
VERTEX
  5
6A
330
63
100
AcDbEntity
  8
Layer 1
 62
   250
420
  1842203
370
    18
100
AcDbVertex
100
AcDb2dVertex
 10
100.00009763125
 20
-16.99999592673959
 30
0.0
  0
SEQEND
  5
6B
330
63
100
AcDbEntity
  8
Layer 1
370
    18
  0
POLYLINE
  5
6C
330
1F
100
AcDbEntity
  8
Layer 1
 62
   250
420
  1842203
370
    18
100
AcDb2dPolyline
 66
     1
 10
0.0
 20
0.0
 30
0.0
  0
VERTEX
  5
6D
330
6C
100
AcDbEntity
  8
Layer 1
 62
   250
420
  1842203
370
    18
100
AcDbVertex
100
AcDb2dVertex
 10
105.0001369637673
 20
-36.99998100203473
 30
0.0
  0
VERTEX
  5
6E
330
6C
100
AcDbEntity
  8
Layer 1
 62
   250
420
  1842203
370
    18
100
AcDbVertex
100
AcDb2dVertex
 10
108.0001261123229
 20
-36.99998100203473
 30
0.0
  0
VERTEX
  5
6F
330
6C
100
AcDbEntity
  8
Layer 1
 62
   250
420
  1842203
370
    18
100
AcDbVertex
100
AcDb2dVertex
 10
108.0001261123229
 20
-42.00002033455208
 30
0.0
  0
VERTEX
  5
70
330
6C
100
AcDbEntity
  8
Layer 1
 62
   250
420
  1842203
370
    18
100
AcDbVertex
100
AcDb2dVertex
 10
105.0001369637673
 20
-42.00002033455208
 30
0.0
  0
VERTEX
  5
71
330
6C
100
AcDbEntity
  8
Layer 1
 62
   250
420
  1842203
370
    18
100
AcDbVertex
100
AcDb2dVertex
 10
105.0001369637673
 20
-36.99998100203473
 30
0.0
  0
SEQEND
  5
72
330
6C
100
AcDbEntity
  8
Layer 1
370
    18
  0
POLYLINE
  5
73
330
1F
100
AcDbEntity
  8
Layer 1
 62
   250
420
  1842203
370
    18
100
AcDb2dPolyline
 66
     1
 10
0.0
 20
0.0
 30
0.0
  0
VERTEX
  5
74
330
73
100
AcDbEntity
  8
Layer 1
 62
   250
420
  1842203
370
    18
100
AcDbVertex
100
AcDb2dVertex
 10
105.0001369637673
 20
-54.00014918354858
 30
0.0
  0
VERTEX
  5
75
330
73
100
AcDbEntity
  8
Layer 1
 62
   250
420
  1842203
370
    18
100
AcDbVertex
100
AcDb2dVertex
 10
108.0001261123229
 20
-54.00014918354858
 30
0.0
  0
VERTEX
  5
76
330
73
100
AcDbEntity
  8
Layer 1
 62
   250
420
  1842203
370
    18
100
AcDbVertex
100
AcDb2dVertex
 10
107.9999538575486
 20
-59.00001626129166
 30
0.0
  0
VERTEX
  5
77
330
73
100
AcDbEntity
  8
Layer 1
 62
   250
420
  1842203
370
    18
100
AcDbVertex
100
AcDb2dVertex
 10
104.9999647089931
 20
-59.00001626129166
 30
0.0
  0
VERTEX
  5
78
330
73
100
AcDbEntity
  8
Layer 1
 62
   250
420
  1842203
370
    18
100
AcDbVertex
100
AcDb2dVertex
 10
105.0001369637673
 20
-54.00014918354858
 30
0.0
  0
SEQEND
  5
79
330
73
100
AcDbEntity
  8
Layer 1
370
    18
  0
POLYLINE
  5
7A
330
1F
100
AcDbEntity
  8
Layer 1
 62
   250
420
  1842203
370
    18
100
AcDb2dPolyline
 66
     1
 10
0.0
 20
0.0
 30
0.0
  0
VERTEX
  5
7B
330
7A
100
AcDbEntity
  8
Layer 1
 62
   250
420
  1842203
370
    18
100
AcDbVertex
100
AcDb2dVertex
 10
105.0001369637673
 20
-71.00014511028816
 30
0.0
  0
VERTEX
  5
7C
330
7A
100
AcDbEntity
  8
Layer 1
 62
   250
420
  1842203
370
    18
100
AcDbVertex
100
AcDb2dVertex
 10
108.0001261123229
 20
-71.00014511028816
 30
0.0
  0
VERTEX
  5
7D
330
7A
100
AcDbEntity
  8
Layer 1
 62
   250
420
  1842203
370
    18
100
AcDbVertex
100
AcDb2dVertex
 10
107.9999538575486
 20
-79.0000013365868
 30
0.0
  0
VERTEX
  5
7E
330
7A
100
AcDbEntity
  8
Layer 1
 62
   250
420
  1842203
370
    18
100
AcDbVertex
100
AcDb2dVertex
 10
100.00009763125
 20
-79.00017359136108
 30
0.0
  0
VERTEX
  5
7F
330
7A
100
AcDbEntity
  8
Layer 1
 62
   250
420
  1842203
370
    18
100
AcDbVertex
100
AcDb2dVertex
 10
100.00009763125
 20
-76.00018444280552
 30
0.0
  0
VERTEX
  5
80
330
7A
100
AcDbEntity
  8
Layer 1
 62
   250
420
  1842203
370
    18
100
AcDbVertex
100
AcDb2dVertex
 10
105.0001369637673
 20
-76.00018444280552
 30
0.0
  0
VERTEX
  5
81
330
7A
100
AcDbEntity
  8
Layer 1
 62
   250
420
  1842203
370
    18
100
AcDbVertex
100
AcDb2dVertex
 10
105.0001369637673
 20
-71.00014511028816
 30
0.0
  0
SEQEND
  5
82
330
7A
100
AcDbEntity
  8
Layer 1
370
    18
  0
POLYLINE
  5
83
330
1F
100
AcDbEntity
  8
Layer 1
 62
   250
420
  1842203
370
    18
100
AcDb2dPolyline
 66
     1
 10
0.0
 20
0.0
 30
0.0
  0
VERTEX
  5
84
330
83
100
AcDbEntity
  8
Layer 1
 62
   250
420
  1842203
370
    18
100
AcDbVertex
100
AcDb2dVertex
 10
85.00015188847219
 20
-76.00001218803125
 30
0.0
  0
VERTEX
  5
85
330
83
100
AcDbEntity
  8
Layer 1
 62
   250
420
  1842203
370
    18
100
AcDbVertex
100
AcDb2dVertex
 10
85.00015188847219
 20
-79.0000013365868
 30
0.0
  0
VERTEX
  5
86
330
83
100
AcDbEntity
  8
Layer 1
 62
   250
420
  1842203
370
    18
100
AcDbVertex
100
AcDb2dVertex
 10
75.00007322343748
 20
-79.0000013365868
 30
0.0
  0
VERTEX
  5
87
330
83
100
AcDbEntity
  8
Layer 1
 62
   250
420
  1842203
370
    18
100
AcDbVertex
100
AcDb2dVertex
 10
75.00007322343748
 20
-76.00001218803125
 30
0.0
  0
VERTEX
  5
88
330
83
100
AcDbEntity
  8
Layer 1
 62
   250
420
  1842203
370
    18
100
AcDbVertex
100
AcDb2dVertex
 10
85.00015188847219
 20
-76.00001218803125
 30
0.0
  0
SEQEND
  5
89
330
83
100
AcDbEntity
  8
Layer 1
370
    18
  0
POLYLINE
  5
8A
330
1F
100
AcDbEntity
  8
Layer 1
 62
   250
420
  1842203
370
    18
100
AcDb2dPolyline
 66
     1
 10
0.0
 20
0.0
 30
0.0
  0
VERTEX
  5
8B
330
8A
100
AcDbEntity
  8
Layer 1
 62
   250
420
  1842203
370
    18
100
AcDbVertex
100
AcDb2dVertex
 10
19.99998507529514
 20
-25.0000244078125
 30
0.0
  0
VERTEX
  5
8C
330
8A
100
AcDbEntity
  8
Layer 1
 62
   250
420
  1842203
370
    18
100
AcDbVertex
100
AcDb2dVertex
 10
16.99999592673959
 20
-25.0000244078125
 30
0.0
  0
VERTEX
  5
8D
330
8A
100
AcDbEntity
  8
Layer 1
 62
   250
420
  1842203
370
    18
100
AcDbVertex
100
AcDb2dVertex
 10
16.99999592673959
 20
-16.99999592673959
 30
0.0
  0
VERTEX
  5
8E
330
8A
100
AcDbEntity
  8
Layer 1
 62
   250
420
  1842203
370
    18
100
AcDbVertex
100
AcDb2dVertex
 10
25.0000244078125
 20
-16.99999592673959
 30
0.0
  0
VERTEX
  5
8F
330
8A
100
AcDbEntity
  8
Layer 1
 62
   250
420
  1842203
370
    18
100
AcDbVertex
100
AcDb2dVertex
 10
25.0000244078125
 20
-19.99998507529514
 30
0.0
  0
VERTEX
  5
90
330
8A
100
AcDbEntity
  8
Layer 1
 62
   250
420
  1842203
370
    18
100
AcDbVertex
100
AcDb2dVertex
 10
19.99998507529514
 20
-19.99998507529514
 30
0.0
  0
VERTEX
  5
91
330
8A
100
AcDbEntity
  8
Layer 1
 62
   250
420
  1842203
370
    18
100
AcDbVertex
100
AcDb2dVertex
 10
19.99998507529514
 20
-25.0000244078125
 30
0.0
  0
SEQEND
  5
92
330
8A
100
AcDbEntity
  8
Layer 1
370
    18
  0
POLYLINE
  5
93
330
1F
100
AcDbEntity
  8
Layer 1
 62
   250
420
  1842203
370
    18
100
AcDb2dPolyline
 66
     1
 10
0.0
 20
0.0
 30
0.0
  0
VERTEX
  5
94
330
93
100
AcDbEntity
  8
Layer 1
 62
   250
420
  1842203
370
    18
100
AcDbVertex
100
AcDb2dVertex
 10
16.99999592673959
 20
-71.00014511028816
 30
0.0
  0
VERTEX
  5
95
330
93
100
AcDbEntity
  8
Layer 1
 62
   250
420
  1842203
370
    18
100
AcDbVertex
100
AcDb2dVertex
 10
19.99998507529514
 20
-71.00014511028816
 30
0.0
  0
VERTEX
  5
96
330
93
100
AcDbEntity
  8
Layer 1
 62
   250
420
  1842203
370
    18
100
AcDbVertex
100
AcDb2dVertex
 10
20.00015733006941
 20
-76.00018444280552
 30
0.0
  0
VERTEX
  5
97
330
93
100
AcDbEntity
  8
Layer 1
 62
   250
420
  1842203
370
    18
100
AcDbVertex
100
AcDb2dVertex
 10
25.0000244078125
 20
-76.00018444280552
 30
0.0
  0
VERTEX
  5
98
330
93
100
AcDbEntity
  8
Layer 1
 62
   250
420
  1842203
370
    18
100
AcDbVertex
100
AcDb2dVertex
 10
25.0000244078125
 20
-79.00017359136108
 30
0.0
  0
VERTEX
  5
99
330
93
100
AcDbEntity
  8
Layer 1
 62
   250
420
  1842203
370
    18
100
AcDbVertex
100
AcDb2dVertex
 10
16.99999592673959
 20
-79.0000013365868
 30
0.0
  0
VERTEX
  5
9A
330
93
100
AcDbEntity
  8
Layer 1
 62
   250
420
  1842203
370
    18
100
AcDbVertex
100
AcDb2dVertex
 10
16.99999592673959
 20
-71.00014511028816
 30
0.0
  0
SEQEND
  5
9B
330
93
100
AcDbEntity
  8
Layer 1
370
    18
  0
SPLINE
  5
9C
330
1F
100
AcDbEntity
  8
Layer 1
 62
   250
420
  1842203
370
    18
100
AcDbSpline
210
0.0
220
0.0
230
1.0
 70
    11
 71
     3
 72
   125
 73
   121
 74
     0
 42
0.0000000001
 43
0.0000000001
 40
0.0
 40
0.0
 40
0.0
 40
0.0
 40
1.0
 40
1.0
 40
1.0
 40
2.0
 40
2.0
 40
2.0
 40
3.0
 40
3.0
 40
3.0
 40
4.0
 40
4.0
 40
4.0
 40
5.0
 40
5.0
 40
5.0
 40
6.0
 40
6.0
 40
6.0
 40
7.0
 40
7.0
 40
7.0
 40
8.0
 40
8.0
 40
8.0
 40
9.0
 40
9.0
 40
9.0
 40
10.0
 40
10.0
 40
10.0
 40
11.0
 40
11.0
 40
11.0
 40
12.0
 40
12.0
 40
12.0
 40
13.0
 40
13.0
 40
13.0
 40
14.0
 40
14.0
 40
14.0
 40
15.0
 40
15.0
 40
15.0
 40
16.0
 40
16.0
 40
16.0
 40
17.0
 40
17.0
 40
17.0
 40
18.0
 40
18.0
 40
18.0
 40
19.0
 40
19.0
 40
19.0
 40
20.0
 40
20.0
 40
20.0
 40
21.0
 40
21.0
 40
21.0
 40
22.0
 40
22.0
 40
22.0
 40
23.0
 40
23.0
 40
23.0
 40
24.0
 40
24.0
 40
24.0
 40
25.0
 40
25.0
 40
25.0
 40
26.0
 40
26.0
 40
26.0
 40
27.0
 40
27.0
 40
27.0
 40
28.0
 40
28.0
 40
28.0
 40
29.0
 40
29.0
 40
29.0
 40
30.0
 40
30.0
 40
30.0
 40
31.0
 40
31.0
 40
31.0
 40
32.0
 40
32.0
 40
32.0
 40
33.0
 40
33.0
 40
33.0
 40
34.0
 40
34.0
 40
34.0
 40
35.0
 40
35.0
 40
35.0
 40
36.0
 40
36.0
 40
36.0
 40
37.0
 40
37.0
 40
37.0
 40
38.0
 40
38.0
 40
38.0
 40
39.0
 40
39.0
 40
39.0
 40
40.0
 40
40.0
 40
40.0
 40
40.0
 10
189.0000053780972
 20
-87.00020207243398
 30
0.0
 10
189.0000053780972
 20
-87.00020207243398
 30
0.0
 10
189.0000053780972
 20
-101.000208850618
 30
0.0
 10
189.0000053780972
 20
-101.000208850618
 30
0.0
 10
189.0000053780972
 20
-101.000208850618
 30
0.0
 10
191.9999945266528
 20
-101.000208850618
 30
0.0
 10
191.9999945266528
 20
-101.000208850618
 30
0.0
 10
191.9999945266528
 20
-101.000208850618
 30
0.0
 10
191.9999945266528
 20
-115.0003878835763
 30
0.0
 10
191.9999945266528
 20
-115.0003878835763
 30
0.0
 10
191.9999945266528
 20
-115.0003878835763
 30
0.0
 10
183.9997937908056
 20
-115.0003878835763
 30
0.0
 10
183.9997937908056
 20
-115.0003878835763
 30
0.0
 10
183.9997937908056
 20
-115.0003878835763
 30
0.0
 10
183.9997937908056
 20
-112.0003987350207
 30
0.0
 10
183.9997937908056
 20
-112.0003987350207
 30
0.0
 10
183.9997937908056
 20
-112.0003987350207
 30
0.0
 10
177.000048783875
 20
-112.0003987350207
 30
0.0
 10
177.000048783875
 20
-112.0003987350207
 30
0.0
 10
177.000048783875
 20
-112.0003987350207
 30
0.0
 10
177.000048783875
 20
-115.0003878835763
 30
0.0
 10
177.000048783875
 20
-115.0003878835763
 30
0.0
 10
177.000048783875
 20
-115.0003878835763
 30
0.0
 10
171.9998371965834
 20
-115.0003878835763
 30
0.0
 10
171.9998371965834
 20
-115.0003878835763
 30
0.0
 10
171.9998371965834
 20
-115.0003878835763
 30
0.0
 10
171.9998371965834
 20
-112.0003987350207
 30
0.0
 10
171.9998371965834
 20
-112.0003987350207
 30
0.0
 10
171.9998371965834
 20
-112.0003987350207
 30
0.0
 10
168.9998480480278
 20
-112.0003987350207
 30
0.0
 10
168.9998480480278
 20
-112.0003987350207
 30
0.0
 10
168.9998480480278
 20
-112.0003987350207
 30
0.0
 10
168.9998480480278
 20
-108.2362874078368
 30
0.0
 10
168.9998480480278
 20
-106.0004204379096
 30
0.0
 10
168.9998480480278
 20
-104.0001979991736
 30
0.0
 10
168.9998480480278
 20
-104.0001979991736
 30
0.0
 10
166.9996256092918
 20
-104.0001979991736
 30
0.0
 10
164.9994031705557
 20
-104.0001979991736
 30
0.0
 10
157.2355359849967
 20
-104.0001979991736
 30
0.0
 10
154.9996690150695
 20
-104.0001979991736
 30
0.0
 10
152.9994465763335
 20
-104.0001979991736
 30
0.0
 10
152.9994465763335
 20
-104.0001979991736
 30
0.0
 10
152.9994465763335
 20
-106.0004204379096
 30
0.0
 10
152.9994465763335
 20
-107.4149766441532
 30
0.0
 10
153.0001355954305
 20
-112.0003987350207
 30
0.0
 10
153.0001355954305
 20
-112.0003987350207
 30
0.0
 10
153.0001355954305
 20
-112.0003987350207
 30
0.0
 10
149.9994574277779
 20
-112.0003987350207
 30
0.0
 10
149.9994574277779
 20
-112.0003987350207
 30
0.0
 10
149.9994574277779
 20
-112.0003987350207
 30
0.0
 10
149.9994574277779
 20
-115.0003878835763
 30
0.0
 10
149.9994574277779
 20
-115.0003878835763
 30
0.0
 10
149.9994574277779
 20
-115.0003878835763
 30
0.0
 10
144.9999348595834
 20
-115.0003878835763
 30
0.0
 10
144.9999348595834
 20
-115.0003878835763
 30
0.0
 10
144.9999348595834
 20
-115.0003878835763
 30
0.0
 10
144.9999348595834
 20
-112.0003987350207
 30
0.0
 10
144.9999348595834
 20
-112.0003987350207
 30
0.0
 10
144.9999348595834
 20
-112.0003987350207
 30
0.0
 10
137.9995008335557
 20
-112.0003987350207
 30
0.0
 10
137.9995008335557
 20
-112.0003987350207
 30
0.0
 10
137.9995008335557
 20
-112.0003987350207
 30
0.0
 10
137.9995008335557
 20
-115.0003878835763
 30
0.0
 10
137.9995008335557
 20
-115.0003878835763
 30
0.0
 10
137.9995008335557
 20
-115.0003878835763
 30
0.0
 10
129.9999891168056
 20
-115.0003878835763
 30
0.0
 10
129.9999891168056
 20
-115.0003878835763
 30
0.0
 10
129.9999891168056
 20
-115.0003878835763
 30
0.0
 10
129.9999891168056
 20
-101.000208850618
 30
0.0
 10
129.9999891168056
 20
-101.000208850618
 30
0.0
 10
129.9999891168056
 20
-101.000208850618
 30
0.0
 10
132.9999782653611
 20
-101.000208850618
 30
0.0
 10
132.9999782653611
 20
-101.000208850618
 30
0.0
 10
132.9999782653611
 20
-101.000208850618
 30
0.0
 10
132.9999782653611
 20
-87.00020207243398
 30
0.0
 10
132.9999782653611
 20
-87.00020207243398
 30
0.0
 10
132.9999782653611
 20
-87.00020207243398
 30
0.0
 10
137.9995008335557
 20
-87.00020207243398
 30
0.0
 10
137.9995008335557
 20
-87.00020207243398
 30
0.0
 10
137.9995008335557
 20
-87.00020207243398
 30
0.0
 10
137.9995008335557
 20
-90.0003634757638
 30
0.0
 10
137.9995008335557
 20
-90.0003634757638
 30
0.0
 10
137.9995008335557
 20
-90.0003634757638
 30
0.0
 10
151.999679866514
 20
-90.0003634757638
 30
0.0
 10
151.999679866514
 20
-90.0003634757638
 30
0.0
 10
151.999679866514
 20
-90.0003634757638
 30
0.0
 10
151.999679866514
 20
-87.00037432720825
 30
0.0
 10
151.999679866514
 20
-87.00037432720825
 30
0.0
 10
151.999679866514
 20
-87.00037432720825
 30
0.0
 10
162.0001030410972
 20
-87.00037432720825
 30
0.0
 10
162.0001030410972
 20
-87.00037432720825
 30
0.0
 10
162.0001030410972
 20
-87.00037432720825
 30
0.0
 10
162.0001030410972
 20
-90.0003634757638
 30
0.0
 10
162.0001030410972
 20
-90.0003634757638
 30
0.0
 10
162.0001030410972
 20
-90.0003634757638
 30
0.0
 10
165.9998588994723
 20
-90.00001896621528
 30
0.0
 10
165.9998588994723
 20
-90.00001896621528
 30
0.0
 10
165.9998588994723
 20
-90.00001896621528
 30
0.0
 10
165.9998588994723
 20
-92.25035533718047
 30
0.0
 10
165.9998588994723
 20
-93.00000811477084
 30
0.0
 10
165.9998588994723
 20
-95.0002305535069
 30
0.0
 10
166.0005479185693
 20
-95.00005829873263
 30
0.0
 10
168.0000813382083
 20
-95.00005829873263
 30
0.0
 10
169.0005370671249
 20
-95.00005829873263
 30
0.0
 10
179.0006157321596
 20
-95.0002305535069
 30
0.0
 10
180.0003824419791
 20
-95.0002305535069
 30
0.0
 10
182.0006048807151
 20
-95.0002305535069
 30
0.0
 10
182.0002603711666
 20
-95.00040280828115
 30
0.0
 10
182.0002603711666
 20
-93.00018036954509
 30
0.0
 10
182.0002603711666
 20
-92.25052759195474
 30
0.0
 10
182.0002603711666
 20
-90.00019122098954
 30
0.0
 10
182.0002603711666
 20
-90.00019122098954
 30
0.0
 10
182.0002603711666
 20
-90.00019122098954
 30
0.0
 10
183.9997937908056
 20
-90.0003634757638
 30
0.0
 10
183.9997937908056
 20
-90.0003634757638
 30
0.0
 10
183.9997937908056
 20
-90.0003634757638
 30
0.0
 10
183.9997937908056
 20
-87.00020207243398
 30
0.0
 10
183.9997937908056
 20
-87.00020207243398
 30
0.0
 10
183.9997937908056
 20
-87.00020207243398
 30
0.0
 10
189.0000053780972
 20
-87.00020207243398
 30
0.0
 10
189.0000053780972
 20
-87.00020207243398
 30
0.0
  0
POLYLINE
  5
9D
330
1F
100
AcDbEntity
  8
Layer 1
 62
   250
420
  1842203
370
    18
100
AcDb2dPolyline
 66
     1
 10
0.0
 20
0.0
 30
0.0
  0
VERTEX
  5
9E
330
9D
100
AcDbEntity
  8
Layer 1
 62
   250
420
  1842203
370
    18
100
AcDbVertex
100
AcDb2dVertex
 10
133.0004950296839
 20
-120.0009439804164
 30
0.0
  0
VERTEX
  5
9F
330
9D
100
AcDbEntity
  8
Layer 1
 62
   250
420
  1842203
370
    18
100
AcDbVertex
100
AcDb2dVertex
 10
133.0004950296839
 20
-134.0011230133747
 30
0.0
  0
VERTEX
  5
A0
330
9D
100
AcDbEntity
  8
Layer 1
 62
   250
420
  1842203
370
    18
100
AcDbVertex
100
AcDb2dVertex
 10
130.0005058811284
 20
-134.0011230133747
 30
0.0
  0
VERTEX
  5
A1
330
9D
100
AcDbEntity
  8
Layer 1
 62
   250
420
  1842203
370
    18
100
AcDbVertex
100
AcDb2dVertex
 10
130.0005058811284
 20
-148.001302046333
 30
0.0
  0
VERTEX
  5
A2
330
9D
100
AcDbEntity
  8
Layer 1
 62
   250
420
  1842203
370
    18
100
AcDbVertex
100
AcDb2dVertex
 10
138.0007066169755
 20
-148.001302046333
 30
0.0
  0
VERTEX
  5
A3
330
9D
100
AcDbEntity
  8
Layer 1
 62
   250
420
  1842203
370
    18
100
AcDbVertex
100
AcDb2dVertex
 10
138.0007066169755
 20
-145.0013128977775
 30
0.0
  0
VERTEX
  5
A4
330
9D
100
AcDbEntity
  8
Layer 1
 62
   250
420
  1842203
370
    18
100
AcDbVertex
100
AcDb2dVertex
 10
150.0006632111977
 20
-145.0006238786804
 30
0.0
  0
VERTEX
  5
A5
330
9D
100
AcDbEntity
  8
Layer 1
 62
   250
420
  1842203
370
    18
100
AcDbVertex
100
AcDb2dVertex
 10
150.0006632111977
 20
-148.000613027236
 30
0.0
  0
VERTEX
  5
A6
330
9D
100
AcDbEntity
  8
Layer 1
 62
   250
420
  1842203
370
    18
100
AcDbVertex
100
AcDb2dVertex
 10
155.0000135246181
 20
-148.000613027236
 30
0.0
  0
VERTEX
  5
A7
330
9D
100
AcDbEntity
  8
Layer 1
 62
   250
420
  1842203
370
    18
100
AcDbVertex
100
AcDb2dVertex
 10
155.0000135246181
 20
-145.0006238786804
 30
0.0
  0
VERTEX
  5
A8
330
9D
100
AcDbEntity
  8
Layer 1
 62
   250
420
  1842203
370
    18
100
AcDbVertex
100
AcDb2dVertex
 10
166.9999701188403
 20
-145.0013128977775
 30
0.0
  0
VERTEX
  5
A9
330
9D
100
AcDbEntity
  8
Layer 1
 62
   250
420
  1842203
370
    18
100
AcDbVertex
100
AcDb2dVertex
 10
166.9999701188403
 20
-148.001302046333
 30
0.0
  0
VERTEX
  5
AA
330
9D
100
AcDbEntity
  8
Layer 1
 62
   250
420
  1842203
370
    18
100
AcDbVertex
100
AcDb2dVertex
 10
172.0001817061319
 20
-148.001302046333
 30
0.0
  0
VERTEX
  5
AB
330
9D
100
AcDbEntity
  8
Layer 1
 62
   250
420
  1842203
370
    18
100
AcDbVertex
100
AcDb2dVertex
 10
172.0001817061319
 20
-145.0013128977775
 30
0.0
  0
VERTEX
  5
AC
330
9D
100
AcDbEntity
  8
Layer 1
 62
   250
420
  1842203
370
    18
100
AcDbVertex
100
AcDb2dVertex
 10
184.0001383003541
 20
-145.0013128977775
 30
0.0
  0
VERTEX
  5
AD
330
9D
100
AcDbEntity
  8
Layer 1
 62
   250
420
  1842203
370
    18
100
AcDbVertex
100
AcDb2dVertex
 10
184.0001383003541
 20
-148.001302046333
 30
0.0
  0
VERTEX
  5
AE
330
9D
100
AcDbEntity
  8
Layer 1
 62
   250
420
  1842203
370
    18
100
AcDbVertex
100
AcDb2dVertex
 10
192.0003390362013
 20
-148.001302046333
 30
0.0
  0
VERTEX
  5
AF
330
9D
100
AcDbEntity
  8
Layer 1
 62
   250
420
  1842203
370
    18
100
AcDbVertex
100
AcDb2dVertex
 10
192.0003390362013
 20
-134.0011230133747
 30
0.0
  0
VERTEX
  5
B0
330
9D
100
AcDbEntity
  8
Layer 1
 62
   250
420
  1842203
370
    18
100
AcDbVertex
100
AcDb2dVertex
 10
189.0003498876458
 20
-134.0011230133747
 30
0.0
  0
VERTEX
  5
B1
330
9D
100
AcDbEntity
  8
Layer 1
 62
   250
420
  1842203
370
    18
100
AcDbVertex
100
AcDb2dVertex
 10
189.0003498876458
 20
-120.0009439804164
 30
0.0
  0
VERTEX
  5
B2
330
9D
100
AcDbEntity
  8
Layer 1
 62
   250
420
  1842203
370
    18
100
AcDbVertex
100
AcDb2dVertex
 10
187.0001274489097
 20
-120.0002549613194
 30
0.0
  0
VERTEX
  5
B3
330
9D
100
AcDbEntity
  8
Layer 1
 62
   250
420
  1842203
370
    18
100
AcDbVertex
100
AcDb2dVertex
 10
187.0001274489097
 20
-140.0000677818403
 30
0.0
  0
VERTEX
  5
B4
330
9D
100
AcDbEntity
  8
Layer 1
 62
   250
420
  1842203
370
    18
100
AcDbVertex
100
AcDb2dVertex
 10
170.5001871318541
 20
-140.0000677818403
 30
0.0
  0
VERTEX
  5
B5
330
9D
100
AcDbEntity
  8
Layer 1
 62
   250
420
  1842203
370
    18
100
AcDbVertex
100
AcDb2dVertex
 10
170.4998426223056
 20
-138.9999565624722
 30
0.0
  0
VERTEX
  5
B6
330
9D
100
AcDbEntity
  8
Layer 1
 62
   250
420
  1842203
370
    18
100
AcDbVertex
100
AcDb2dVertex
 10
135.0000284493229
 20
-138.9999565624722
 30
0.0
  0
VERTEX
  5
B7
330
9D
100
AcDbEntity
  8
Layer 1
 62
   250
420
  1842203
370
    18
100
AcDbVertex
100
AcDb2dVertex
 10
135.00071746842
 20
-120.0002549613194
 30
0.0
  0
VERTEX
  5
B8
330
9D
100
AcDbEntity
  8
Layer 1
 62
   250
420
  1842203
370
    18
100
AcDbVertex
100
AcDb2dVertex
 10
133.0004950296839
 20
-120.0009439804164
 30
0.0
  0
SEQEND
  5
B9
330
9D
100
AcDbEntity
  8
Layer 1
370
    18
  0
POLYLINE
  5
BA
330
1F
100
AcDbEntity
  8
Layer 1
 62
   250
420
  1842203
370
    18
100
AcDb2dPolyline
 66
     1
 10
0.0
 20
0.0
 30
0.0
  0
VERTEX
  5
BB
330
BA
100
AcDbEntity
  8
Layer 1
 62
   250
420
  1842203
370
    18
100
AcDbVertex
100
AcDb2dVertex
 10
40.00014240536455
 20
-148.0002685176874
 30
0.0
  0
VERTEX
  5
BC
330
BA
100
AcDbEntity
  8
Layer 1
 62
   250
420
  1842203
370
    18
100
AcDbVertex
100
AcDb2dVertex
 10
40.00014240536455
 20
-145.0002793691319
 30
0.0
  0
VERTEX
  5
BD
330
BA
100
AcDbEntity
  8
Layer 1
 62
   250
420
  1842203
370
    18
100
AcDbVertex
100
AcDb2dVertex
 10
25.0000244078125
 20
-145.0002793691319
 30
0.0
  0
VERTEX
  5
BE
330
BA
100
AcDbEntity
  8
Layer 1
 62
   250
420
  1842203
370
    18
100
AcDbVertex
100
AcDb2dVertex
 10
25.0000244078125
 20
-148.0002685176874
 30
0.0
  0
VERTEX
  5
BF
330
BA
100
AcDbEntity
  8
Layer 1
 62
   250
420
  1842203
370
    18
100
AcDbVertex
100
AcDb2dVertex
 10
19.99998507529514
 20
-147.9999240081389
 30
0.0
  0
VERTEX
  5
C0
330
BA
100
AcDbEntity
  8
Layer 1
 62
   250
420
  1842203
370
    18
100
AcDbVertex
100
AcDb2dVertex
 10
19.99998507529514
 20
-134.0004339942777
 30
0.0
  0
VERTEX
  5
C1
330
BA
100
AcDbEntity
  8
Layer 1
 62
   250
420
  1842203
370
    18
100
AcDbVertex
100
AcDb2dVertex
 10
16.99999592673959
 20
-134.0004339942777
 30
0.0
  0
VERTEX
  5
C2
330
BA
100
AcDbEntity
  8
Layer 1
 62
   250
420
  1842203
370
    18
100
AcDbVertex
100
AcDb2dVertex
 10
16.99999592673959
 20
-120.0002549613194
 30
0.0
  0
VERTEX
  5
C3
330
BA
100
AcDbEntity
  8
Layer 1
 62
   250
420
  1842203
370
    18
100
AcDbVertex
100
AcDb2dVertex
 10
25.0000244078125
 20
-120.0002549613194
 30
0.0
  0
VERTEX
  5
C4
330
BA
100
AcDbEntity
  8
Layer 1
 62
   250
420
  1842203
370
    18
100
AcDbVertex
100
AcDb2dVertex
 10
25.0000244078125
 20
-123.0002441098749
 30
0.0
  0
VERTEX
  5
C5
330
BA
100
AcDbEntity
  8
Layer 1
 62
   250
420
  1842203
370
    18
100
AcDbVertex
100
AcDb2dVertex
 10
40.00014240536455
 20
-123.0002441098749
 30
0.0
  0
VERTEX
  5
C6
330
BA
100
AcDbEntity
  8
Layer 1
 62
   250
420
  1842203
370
    18
100
AcDbVertex
100
AcDb2dVertex
 10
40.00014240536455
 20
-120.0002549613194
 30
0.0
  0
VERTEX
  5
C7
330
BA
100
AcDbEntity
  8
Layer 1
 62
   250
420
  1842203
370
    18
100
AcDbVertex
100
AcDb2dVertex
 10
50.00004881562499
 20
-120.0002549613194
 30
0.0
  0
VERTEX
  5
C8
330
BA
100
AcDbEntity
  8
Layer 1
 62
   250
420
  1842203
370
    18
100
AcDbVertex
100
AcDb2dVertex
 10
50.00004881562499
 20
-123.0002441098749
 30
0.0
  0
VERTEX
  5
C9
330
BA
100
AcDbEntity
  8
Layer 1
 62
   250
420
  1842203
370
    18
100
AcDbVertex
100
AcDb2dVertex
 10
75.00007322343748
 20
-123.0002441098749
 30
0.0
  0
VERTEX
  5
CA
330
BA
100
AcDbEntity
  8
Layer 1
 62
   250
420
  1842203
370
    18
100
AcDbVertex
100
AcDb2dVertex
 10
75.00007322343748
 20
-120.0002549613194
 30
0.0
  0
VERTEX
  5
CB
330
BA
100
AcDbEntity
  8
Layer 1
 62
   250
420
  1842203
370
    18
100
AcDbVertex
100
AcDb2dVertex
 10
85.00015188847219
 20
-120.0002549613194
 30
0.0
  0
VERTEX
  5
CC
330
BA
100
AcDbEntity
  8
Layer 1
 62
   250
420
  1842203
370
    18
100
AcDbVertex
100
AcDb2dVertex
 10
85.00015188847219
 20
-123.0002441098749
 30
0.0
  0
VERTEX
  5
CD
330
BA
100
AcDbEntity
  8
Layer 1
 62
   250
420
  1842203
370
    18
100
AcDbVertex
100
AcDb2dVertex
 10
100.00009763125
 20
-123.0002441098749
 30
0.0
  0
VERTEX
  5
CE
330
BA
100
AcDbEntity
  8
Layer 1
 62
   250
420
  1842203
370
    18
100
AcDbVertex
100
AcDb2dVertex
 10
100.00009763125
 20
-120.0002549613194
 30
0.0
  0
VERTEX
  5
CF
330
BA
100
AcDbEntity
  8
Layer 1
 62
   250
420
  1842203
370
    18
100
AcDbVertex
100
AcDb2dVertex
 10
108.0001261123229
 20
-120.0002549613194
 30
0.0
  0
VERTEX
  5
D0
330
BA
100
AcDbEntity
  8
Layer 1
 62
   250
420
  1842203
370
    18
100
AcDbVertex
100
AcDb2dVertex
 10
108.0001261123229
 20
-134.0004339942777
 30
0.0
  0
VERTEX
  5
D1
330
BA
100
AcDbEntity
  8
Layer 1
 62
   250
420
  1842203
370
    18
100
AcDbVertex
100
AcDb2dVertex
 10
105.0001369637673
 20
-134.0004339942777
 30
0.0
  0
VERTEX
  5
D2
330
BA
100
AcDbEntity
  8
Layer 1
 62
   250
420
  1842203
370
    18
100
AcDbVertex
100
AcDb2dVertex
 10
105.0001369637673
 20
-147.9999240081389
 30
0.0
  0
VERTEX
  5
D3
330
BA
100
AcDbEntity
  8
Layer 1
 62
   250
420
  1842203
370
    18
100
AcDbVertex
100
AcDb2dVertex
 10
100.00009763125
 20
-148.0002685176874
 30
0.0
  0
VERTEX
  5
D4
330
BA
100
AcDbEntity
  8
Layer 1
 62
   250
420
  1842203
370
    18
100
AcDbVertex
100
AcDb2dVertex
 10
100.00009763125
 20
-145.0002793691319
 30
0.0
  0
VERTEX
  5
D5
330
BA
100
AcDbEntity
  8
Layer 1
 62
   250
420
  1842203
370
    18
100
AcDbVertex
100
AcDb2dVertex
 10
85.00015188847219
 20
-145.0002793691319
 30
0.0
  0
VERTEX
  5
D6
330
BA
100
AcDbEntity
  8
Layer 1
 62
   250
420
  1842203
370
    18
100
AcDbVertex
100
AcDb2dVertex
 10
85.00015188847219
 20
-148.0002685176874
 30
0.0
  0
VERTEX
  5
D7
330
BA
100
AcDbEntity
  8
Layer 1
 62
   250
420
  1842203
370
    18
100
AcDbVertex
100
AcDb2dVertex
 10
75.00007322343748
 20
-148.0002685176874
 30
0.0
  0
VERTEX
  5
D8
330
BA
100
AcDbEntity
  8
Layer 1
 62
   250
420
  1842203
370
    18
100
AcDbVertex
100
AcDb2dVertex
 10
75.00007322343748
 20
-145.0002793691319
 30
0.0
  0
VERTEX
  5
D9
330
BA
100
AcDbEntity
  8
Layer 1
 62
   250
420
  1842203
370
    18
100
AcDbVertex
100
AcDb2dVertex
 10
50.00004881562499
 20
-145.0002793691319
 30
0.0
  0
VERTEX
  5
DA
330
BA
100
AcDbEntity
  8
Layer 1
 62
   250
420
  1842203
370
    18
100
AcDbVertex
100
AcDb2dVertex
 10
50.00004881562499
 20
-148.0002685176874
 30
0.0
  0
VERTEX
  5
DB
330
BA
100
AcDbEntity
  8
Layer 1
 62
   250
420
  1842203
370
    18
100
AcDbVertex
100
AcDb2dVertex
 10
40.00014240536455
 20
-148.0002685176874
 30
0.0
  0
SEQEND
  5
DC
330
BA
100
AcDbEntity
  8
Layer 1
370
    18
  0
SPLINE
  5
DD
330
1F
100
AcDbEntity
  8
Layer 1
 62
   250
420
  1842203
370
    18
100
AcDbSpline
210
0.0
220
0.0
230
1.0
 70
    11
 71
     3
 72
    17
 73
    13
 74
     0
 42
0.0000000001
 43
0.0000000001
 40
0.0
 40
0.0
 40
0.0
 40
0.0
 40
1.0
 40
1.0
 40
1.0
 40
2.0
 40
2.0
 40
2.0
 40
3.0
 40
3.0
 40
3.0
 40
4.0
 40
4.0
 40
4.0
 40
4.0
 10
130.8504109373395
 20
-23.50002983353471
 30
0.0
 10
130.8504109373395
 20
-22.75451117052665
 30
0.0
 10
130.2459689344524
 20
-22.14989691286531
 30
0.0
 10
129.5002780166701
 20
-22.14989691286531
 30
0.0
 10
128.754759353662
 20
-22.14989691286531
 30
0.0
 10
128.1503173507749
 20
-22.75451117052665
 30
0.0
 10
128.1503173507749
 20
-23.50002983353471
 30
0.0
 10
128.1503173507749
 20
-24.2458930060913
 30
0.0
 10
128.754759353662
 20
-24.85016275420413
 30
0.0
 10
129.5002780166701
 20
-24.85016275420413
 30
0.0
 10
130.2459689344524
 20
-24.85016275420413
 30
0.0
 10
130.8504109373395
 20
-24.2458930060913
 30
0.0
 10
130.8504109373395
 20
-23.50002983353471
 30
0.0
  0
SPLINE
  5
DE
330
1F
100
AcDbEntity
  8
Layer 1
 62
   250
420
  1842203
370
    18
100
AcDbSpline
210
0.0
220
0.0
230
1.0
 70
    11
 71
     3
 72
    17
 73
    13
 74
     0
 42
0.0000000001
 43
0.0000000001
 40
0.0
 40
0.0
 40
0.0
 40
0.0
 40
1.0
 40
1.0
 40
1.0
 40
2.0
 40
2.0
 40
2.0
 40
3.0
 40
3.0
 40
3.0
 40
4.0
 40
4.0
 40
4.0
 40
4.0
 10
130.8504109373395
 20
-72.49996742979168
 30
0.0
 10
130.8504109373395
 20
-71.75444876678361
 30
0.0
 10
130.2459689344524
 20
-71.1501790186708
 30
0.0
 10
129.5002780166701
 20
-71.1501790186708
 30
0.0
 10
128.754759353662
 20
-71.1501790186708
 30
0.0
 10
128.1503173507749
 20
-71.75444876678361
 30
0.0
 10
128.1503173507749
 20
-72.49996742979168
 30
0.0
 10
128.1503173507749
 20
-73.24583060234826
 30
0.0
 10
128.754759353662
 20
-73.85044486000962
 30
0.0
 10
129.5002780166701
 20
-73.85044486000962
 30
0.0
 10
130.2459689344524
 20
-73.85044486000962
 30
0.0
 10
130.8504109373395
 20
-73.24583060234826
 30
0.0
 10
130.8504109373395
 20
-72.49996742979168
 30
0.0
  0
SPLINE
  5
DF
330
1F
100
AcDbEntity
  8
Layer 1
 62
   250
420
  1842203
370
    18
100
AcDbSpline
210
0.0
220
0.0
230
1.0
 70
    11
 71
     3
 72
    17
 73
    13
 74
     0
 42
0.0000000001
 43
0.0000000001
 40
0.0
 40
0.0
 40
0.0
 40
0.0
 40
1.0
 40
1.0
 40
1.0
 40
2.0
 40
2.0
 40
2.0
 40
3.0
 40
3.0
 40
3.0
 40
4.0
 40
4.0
 40
4.0
 40
4.0
 10
188.8504882340374
 20
-23.50002983353471
 30
0.0
 10
188.8504882340374
 20
-22.75451117052665
 30
0.0
 10
188.245873976376
 20
-22.14989691286531
 30
0.0
 10
187.500355313368
 20
-22.14989691286531
 30
0.0
 10
186.7548366503599
 20
-22.14989691286531
 30
0.0
 10
186.1505669022471
 20
-22.75451117052665
 30
0.0
 10
186.1505669022471
 20
-23.50002983353471
 30
0.0
 10
186.1505669022471
 20
-24.2458930060913
 30
0.0
 10
186.7548366503599
 20
-24.85016275420413
 30
0.0
 10
187.500355313368
 20
-24.85016275420413
 30
0.0
 10
188.245873976376
 20
-24.85016275420413
 30
0.0
 10
188.8504882340374
 20
-24.2458930060913
 30
0.0
 10
188.8504882340374
 20
-23.50002983353471
 30
0.0
  0
SPLINE
  5
E0
330
1F
100
AcDbEntity
  8
Layer 1
 62
   250
420
  1842203
370
    18
100
AcDbSpline
210
0.0
220
0.0
230
1.0
 70
    11
 71
     3
 72
    17
 73
    13
 74
     0
 42
0.0000000001
 43
0.0000000001
 40
0.0
 40
0.0
 40
0.0
 40
0.0
 40
1.0
 40
1.0
 40
1.0
 40
2.0
 40
2.0
 40
2.0
 40
3.0
 40
3.0
 40
3.0
 40
4.0
 40
4.0
 40
4.0
 40
4.0
 10
188.8504882340374
 20
-72.49996742979168
 30
0.0
 10
188.8504882340374
 20
-71.75444876678361
 30
0.0
 10
188.245873976376
 20
-71.1501790186708
 30
0.0
 10
187.500355313368
 20
-71.1501790186708
 30
0.0
 10
186.7548366503599
 20
-71.1501790186708
 30
0.0
 10
186.1505669022471
 20
-71.75444876678361
 30
0.0
 10
186.1505669022471
 20
-72.49996742979168
 30
0.0
 10
186.1505669022471
 20
-73.24583060234826
 30
0.0
 10
186.7548366503599
 20
-73.85044486000962
 30
0.0
 10
187.500355313368
 20
-73.85044486000962
 30
0.0
 10
188.245873976376
 20
-73.85044486000962
 30
0.0
 10
188.8504882340374
 20
-73.24583060234826
 30
0.0
 10
188.8504882340374
 20
-72.49996742979168
 30
0.0
  0
SPLINE
  5
E1
330
1F
100
AcDbEntity
  8
Layer 1
 62
   250
420
  1842203
370
    18
100
AcDbSpline
210
0.0
220
0.0
230
1.0
 70
    11
 71
     3
 72
   125
 73
   121
 74
     0
 42
0.0000000001
 43
0.0000000001
 40
0.0
 40
0.0
 40
0.0
 40
0.0
 40
1.0
 40
1.0
 40
1.0
 40
2.0
 40
2.0
 40
2.0
 40
3.0
 40
3.0
 40
3.0
 40
4.0
 40
4.0
 40
4.0
 40
5.0
 40
5.0
 40
5.0
 40
6.0
 40
6.0
 40
6.0
 40
7.0
 40
7.0
 40
7.0
 40
8.0
 40
8.0
 40
8.0
 40
9.0
 40
9.0
 40
9.0
 40
10.0
 40
10.0
 40
10.0
 40
11.0
 40
11.0
 40
11.0
 40
12.0
 40
12.0
 40
12.0
 40
13.0
 40
13.0
 40
13.0
 40
14.0
 40
14.0
 40
14.0
 40
15.0
 40
15.0
 40
15.0
 40
16.0
 40
16.0
 40
16.0
 40
17.0
 40
17.0
 40
17.0
 40
18.0
 40
18.0
 40
18.0
 40
19.0
 40
19.0
 40
19.0
 40
20.0
 40
20.0
 40
20.0
 40
21.0
 40
21.0
 40
21.0
 40
22.0
 40
22.0
 40
22.0
 40
23.0
 40
23.0
 40
23.0
 40
24.0
 40
24.0
 40
24.0
 40
25.0
 40
25.0
 40
25.0
 40
26.0
 40
26.0
 40
26.0
 40
27.0
 40
27.0
 40
27.0
 40
28.0
 40
28.0
 40
28.0
 40
29.0
 40
29.0
 40
29.0
 40
30.0
 40
30.0
 40
30.0
 40
31.0
 40
31.0
 40
31.0
 40
32.0
 40
32.0
 40
32.0
 40
33.0
 40
33.0
 40
33.0
 40
34.0
 40
34.0
 40
34.0
 40
35.0
 40
35.0
 40
35.0
 40
36.0
 40
36.0
 40
36.0
 40
37.0
 40
37.0
 40
37.0
 40
38.0
 40
38.0
 40
38.0
 40
39.0
 40
39.0
 40
39.0
 40
40.0
 40
40.0
 40
40.0
 40
40.0
 10
120.0004272160937
 20
-20.00015733006941
 30
0.0
 10
120.0004272160937
 20
-14.00017903295829
 30
0.0
 10
120.0004272160937
 20
-14.00017903295829
 30
0.0
 10
126.0004055132048
 20
-14.00017903295829
 30
0.0
 10
126.8480712573505
 20
-14.00017903295829
 30
0.0
 10
135.9999674139167
 20
-14.00017903295829
 30
0.0
 10
135.9999674139167
 20
-14.00017903295829
 30
0.0
 10
135.9999674139167
 20
-14.00017903295829
 30
0.0
 10
135.9999674139167
 20
-16.00005696214582
 30
0.0
 10
135.9999674139167
 20
-16.00005696214582
 30
0.0
 10
135.9999674139167
 20
-16.00005696214582
 30
0.0
 10
141.000006746434
 20
-16.00005696214582
 30
0.0
 10
141.000006746434
 20
-16.00005696214582
 30
0.0
 10
141.000006746434
 20
-16.00005696214582
 30
0.0
 10
140.9998344916598
 20
-14.00017903295829
 30
0.0
 10
140.9998344916598
 20
-14.00017903295829
 30
0.0
 10
140.9998344916598
 20
-14.00017903295829
 30
0.0
 10
165.9998588994723
 20
-14.00017903295829
 30
0.0
 10
165.9998588994723
 20
-14.00017903295829
 30
0.0
 10
165.9998588994723
 20
-14.00017903295829
 30
0.0
 10
166.0002034090208
 20
-16.00005696214582
 30
0.0
 10
166.0002034090208
 20
-16.00005696214582
 30
0.0
 10
166.0002034090208
 20
-16.00005696214582
 30
0.0
 10
171.0000704867639
 20
-16.00005696214582
 30
0.0
 10
171.0000704867639
 20
-16.00005696214582
 30
0.0
 10
171.0000704867639
 20
-16.00005696214582
 30
0.0
 10
171.0000704867639
 20
-14.00017903295829
 30
0.0
 10
171.0000704867639
 20
-14.00017903295829
 30
0.0
 10
171.0000704867639
 20
-14.00017903295829
 30
0.0
 10
196.0000948945764
 20
-14.00017903295829
 30
0.0
 10
196.0000948945764
 20
-14.00017903295829
 30
0.0
 10
196.0000948945764
 20
-14.00017903295829
 30
0.0
 10
196.0000948945764
 20
-16.00005696214582
 30
0.0
 10
196.0000948945764
 20
-16.00005696214582
 30
0.0
 10
196.0000948945764
 20
-16.00005696214582
 30
0.0
 10
200.9999619723195
 20
-16.00005696214582
 30
0.0
 10
200.9999619723195
 20
-16.00005696214582
 30
0.0
 10
200.9999619723195
 20
-16.00005696214582
 30
0.0
 10
200.9999619723195
 20
-14.00017903295829
 30
0.0
 10
200.9999619723195
 20
-14.00017903295829
 30
0.0
 10
200.9999619723195
 20
-14.00017903295829
 30
0.0
 10
210.8439778118723
 20
-14.00017903295829
 30
0.0
 10
211.0003851469027
 20
-14.00017903295829
 30
0.0
 10
217.0003634440138
 20
-14.00017903295829
 30
0.0
 10
217.0003634440138
 20
-14.00017903295829
 30
0.0
 10
217.0003634440138
 20
-20.00015733006941
 30
0.0
 10
217.0003634440138
 20
-22.00037976880546
 30
0.0
 10
217.0003634440138
 20
-73.00019529424995
 30
0.0
 10
217.0003634440138
 20
-76.00018444280552
 30
0.0
 10
217.0003634440138
 20
-82.00016273991663
 30
0.0
 10
217.0003634440138
 20
-82.00016273991663
 30
0.0
 10
211.0003851469027
 20
-82.00016273991663
 30
0.0
 10
210.8329535063195
 20
-82.00016273991663
 30
0.0
 10
199.9998507529514
 20
-82.00016273991663
 30
0.0
 10
199.9998507529514
 20
-82.00016273991663
 30
0.0
 10
199.9998507529514
 20
-82.00016273991663
 30
0.0
 10
199.9998507529514
 20
-79.99994030118057
 30
0.0
 10
199.9998507529514
 20
-79.99994030118057
 30
0.0
 10
199.9998507529514
 20
-79.99994030118057
 30
0.0
 10
194.9999836752083
 20
-79.99994030118057
 30
0.0
 10
194.9999836752083
 20
-79.99994030118057
 30
0.0
 10
194.9999836752083
 20
-79.99994030118057
 30
0.0
 10
194.9999836752083
 20
-82.00016273991663
 30
0.0
 10
194.9999836752083
 20
-82.00016273991663
 30
0.0
 10
194.9999836752083
 20
-82.00016273991663
 30
0.0
 10
171.0000704867639
 20
-82.00016273991663
 30
0.0
 10
171.0000704867639
 20
-82.00016273991663
 30
0.0
 10
171.0000704867639
 20
-82.00016273991663
 30
0.0
 10
171.0000704867639
 20
-79.99994030118057
 30
0.0
 10
171.0000704867639
 20
-79.99994030118057
 30
0.0
 10
171.0000704867639
 20
-79.99994030118057
 30
0.0
 10
166.0002034090208
 20
-79.99994030118057
 30
0.0
 10
166.0002034090208
 20
-79.99994030118057
 30
0.0
 10
166.0002034090208
 20
-79.99994030118057
 30
0.0
 10
165.9998588994723
 20
-82.00016273991663
 30
0.0
 10
165.9998588994723
 20
-82.00016273991663
 30
0.0
 10
165.9998588994723
 20
-82.00016273991663
 30
0.0
 10
140.9998344916598
 20
-82.00016273991663
 30
0.0
 10
140.9998344916598
 20
-82.00016273991663
 30
0.0
 10
140.9998344916598
 20
-82.00016273991663
 30
0.0
 10
141.000006746434
 20
-79.99994030118057
 30
0.0
 10
141.000006746434
 20
-79.99994030118057
 30
0.0
 10
141.000006746434
 20
-79.99994030118057
 30
0.0
 10
135.9999674139167
 20
-79.99994030118057
 30
0.0
 10
135.9999674139167
 20
-79.99994030118057
 30
0.0
 10
135.9999674139167
 20
-79.99994030118057
 30
0.0
 10
136.0001396686909
 20
-82.00016273991663
 30
0.0
 10
136.0001396686909
 20
-82.00016273991663
 30
0.0
 10
136.0001396686909
 20
-82.00016273991663
 30
0.0
 10
126.4170898121457
 20
-82.00016273991663
 30
0.0
 10
126.0004055132048
 20
-82.00016273991663
 30
0.0
 10
120.0004272160937
 20
-82.00016273991663
 30
0.0
 10
120.0004272160937
 20
-82.00016273991663
 30
0.0
 10
120.0004272160937
 20
-76.00018444280552
 30
0.0
 10
120.0004272160937
 20
-72.83793129689468
 30
0.0
 10
120.0002549613194
 20
-73.2360120802153
 30
0.0
 10
120.0002549613194
 20
-71.00014511028816
 30
0.0
 10
120.0002549613194
 20
-68.9999226715521
 30
0.0
 10
120.0000827065451
 20
-69.00009492632637
 30
0.0
 10
122.0001328905069
 20
-69.00009492632637
 30
0.0
 10
124.0001830744687
 20
-69.00009492632637
 30
0.0
 10
131.7640502600277
 20
-69.00009492632637
 30
0.0
 10
134.0002617395034
 20
-69.00009492632637
 30
0.0
 10
136.0001396686909
 20
-69.00009492632637
 30
0.0
 10
136.0001396686909
 20
-68.9999226715521
 30
0.0
 10
136.0001396686909
 20
-67.00004474236458
 30
0.0
 10
136.0001396686909
 20
-65.58548853612099
 30
0.0
 10
135.9999674139167
 20
-56.41412759006314
 30
0.0
 10
135.9999674139167
 20
-54.99991589336808
 30
0.0
 10
135.9999674139167
 20
-53.00003796418055
 30
0.0
 10
135.9999674139167
 20
-53.00003796418055
 30
0.0
 10
134.0000894847292
 20
-53.00003796418055
 30
0.0
 10
131.7638780052535
 20
-53.00003796418055
 30
0.0
 10
122.9998996003264
 20
-53.00003796418055
 30
0.0
 10
121.9999606357326
 20
-53.00003796418055
 30
0.0
 10
119.9999104517709
 20
-53.00003796418055
 30
0.0
 10
120.0000827065451
 20
-53.00021021895481
 30
0.0
 10
120.0000827065451
 20
-50.99998778021875
 30
0.0
 10
120.0000827065451
 20
-48.76412081029161
 30
0.0
 10
120.0004272160937
 20
-20.00015733006941
 30
0.0
 10
120.0004272160937
 20
-20.00015733006941
 30
0.0
  0
POLYLINE
  5
E2
330
1F
100
AcDbEntity
  8
Layer 1
 62
   250
420
  1842203
370
    18
100
AcDb2dPolyline
 66
     1
 10
0.0
 20
0.0
 30
0.0
  0
VERTEX
  5
E3
330
E2
100
AcDbEntity
  8
Layer 1
 62
   250
420
  1842203
370
    18
100
AcDbVertex
100
AcDb2dVertex
 10
146.0005628432742
 20
-17.00016818151385
 30
0.0
  0
VERTEX
  5
E4
330
E2
100
AcDbEntity
  8
Layer 1
 62
   250
420
  1842203
370
    18
100
AcDbVertex
100
AcDb2dVertex
 10
156.0004692535346
 20
-17.00016818151385
 30
0.0
  0
VERTEX
  5
E5
330
E2
100
AcDbEntity
  8
Layer 1
 62
   250
420
  1842203
370
    18
100
AcDbVertex
100
AcDb2dVertex
 10
156.0004692535346
 20
-20.00015733006941
 30
0.0
  0
VERTEX
  5
E6
330
E2
100
AcDbEntity
  8
Layer 1
 62
   250
420
  1842203
370
    18
100
AcDbVertex
100
AcDb2dVertex
 10
146.0005628432742
 20
-20.00015733006941
 30
0.0
  0
VERTEX
  5
E7
330
E2
100
AcDbEntity
  8
Layer 1
 62
   250
420
  1842203
370
    18
100
AcDbVertex
100
AcDb2dVertex
 10
146.0005628432742
 20
-17.00016818151385
 30
0.0
  0
SEQEND
  5
E8
330
E2
100
AcDbEntity
  8
Layer 1
370
    18
  0
POLYLINE
  5
E9
330
1F
100
AcDbEntity
  8
Layer 1
 62
   250
420
  1842203
370
    18
100
AcDb2dPolyline
 66
     1
 10
0.0
 20
0.0
 30
0.0
  0
VERTEX
  5
EA
330
E9
100
AcDbEntity
  8
Layer 1
 62
   250
420
  1842203
370
    18
100
AcDbVertex
100
AcDb2dVertex
 10
191.0005723263818
 20
-17.00016818151385
 30
0.0
  0
VERTEX
  5
EB
330
E9
100
AcDbEntity
  8
Layer 1
 62
   250
420
  1842203
370
    18
100
AcDbVertex
100
AcDb2dVertex
 10
191.0005723263818
 20
-20.00015733006941
 30
0.0
  0
VERTEX
  5
EC
330
E9
100
AcDbEntity
  8
Layer 1
 62
   250
420
  1842203
370
    18
100
AcDbVertex
100
AcDb2dVertex
 10
181.0008381708956
 20
-20.00015733006941
 30
0.0
  0
VERTEX
  5
ED
330
E9
100
AcDbEntity
  8
Layer 1
 62
   250
420
  1842203
370
    18
100
AcDbVertex
100
AcDb2dVertex
 10
181.0008381708956
 20
-17.00016818151385
 30
0.0
  0
VERTEX
  5
EE
330
E9
100
AcDbEntity
  8
Layer 1
 62
   250
420
  1842203
370
    18
100
AcDbVertex
100
AcDb2dVertex
 10
191.0005723263818
 20
-17.00016818151385
 30
0.0
  0
SEQEND
  5
EF
330
E9
100
AcDbEntity
  8
Layer 1
370
    18
  0
POLYLINE
  5
F0
330
1F
100
AcDbEntity
  8
Layer 1
 62
   250
420
  1842203
370
    18
100
AcDb2dPolyline
 66
     1
 10
0.0
 20
0.0
 30
0.0
  0
VERTEX
  5
F1
330
F0
100
AcDbEntity
  8
Layer 1
 62
   250
420
  1842203
370
    18
100
AcDbVertex
100
AcDb2dVertex
 10
126.0002332584305
 20
-49.00010985103123
 30
0.0
  0
VERTEX
  5
F2
330
F0
100
AcDbEntity
  8
Layer 1
 62
   250
420
  1842203
370
    18
100
AcDbVertex
100
AcDb2dVertex
 10
123.0002441098749
 20
-49.00010985103123
 30
0.0
  0
VERTEX
  5
F3
330
F0
100
AcDbEntity
  8
Layer 1
 62
   250
420
  1842203
370
    18
100
AcDbVertex
100
AcDb2dVertex
 10
123.0002441098749
 20
-39.00003118599652
 30
0.0
  0
VERTEX
  5
F4
330
F0
100
AcDbEntity
  8
Layer 1
 62
   250
420
  1842203
370
    18
100
AcDbVertex
100
AcDb2dVertex
 10
126.0002332584305
 20
-39.00003118599652
 30
0.0
  0
VERTEX
  5
F5
330
F0
100
AcDbEntity
  8
Layer 1
 62
   250
420
  1842203
370
    18
100
AcDbVertex
100
AcDb2dVertex
 10
126.0002332584305
 20
-49.00010985103123
 30
0.0
  0
SEQEND
  5
F6
330
F0
100
AcDbEntity
  8
Layer 1
370
    18
  0
POLYLINE
  5
F7
330
1F
100
AcDbEntity
  8
Layer 1
 62
   250
420
  1842203
370
    18
100
AcDb2dPolyline
 66
     1
 10
0.0
 20
0.0
 30
0.0
  0
VERTEX
  5
F8
330
F7
100
AcDbEntity
  8
Layer 1
 62
   250
420
  1842203
370
    18
100
AcDbVertex
100
AcDb2dVertex
 10
191.0005723263818
 20
-76.00018444280552
 30
0.0
  0
VERTEX
  5
F9
330
F7
100
AcDbEntity
  8
Layer 1
 62
   250
420
  1842203
370
    18
100
AcDbVertex
100
AcDb2dVertex
 10
191.0005723263818
 20
-79.00017359136108
 30
0.0
  0
VERTEX
  5
FA
330
F7
100
AcDbEntity
  8
Layer 1
 62
   250
420
  1842203
370
    18
100
AcDbVertex
100
AcDb2dVertex
 10
181.0008381708956
 20
-79.00017359136108
 30
0.0
  0
VERTEX
  5
FB
330
F7
100
AcDbEntity
  8
Layer 1
 62
   250
420
  1842203
370
    18
100
AcDbVertex
100
AcDb2dVertex
 10
181.0008381708956
 20
-76.00018444280552
 30
0.0
  0
VERTEX
  5
FC
330
F7
100
AcDbEntity
  8
Layer 1
 62
   250
420
  1842203
370
    18
100
AcDbVertex
100
AcDb2dVertex
 10
191.0005723263818
 20
-76.00018444280552
 30
0.0
  0
SEQEND
  5
FD
330
F7
100
AcDbEntity
  8
Layer 1
370
    18
  0
POLYLINE
  5
FE
330
1F
100
AcDbEntity
  8
Layer 1
 62
   250
420
  1842203
370
    18
100
AcDb2dPolyline
 66
     1
 10
0.0
 20
0.0
 30
0.0
  0
VERTEX
  5
FF
330
FE
100
AcDbEntity
  8
Layer 1
 62
   250
420
  1842203
370
    18
100
AcDbVertex
100
AcDb2dVertex
 10
40.00014240536455
 20
-115.0000433740278
 30
0.0
  0
VERTEX
  5
100
330
FE
100
AcDbEntity
  8
Layer 1
 62
   250
420
  1842203
370
    18
100
AcDbVertex
100
AcDb2dVertex
 10
40.00014240536455
 20
-112.0000542254722
 30
0.0
  0
VERTEX
  5
101
330
FE
100
AcDbEntity
  8
Layer 1
 62
   250
420
  1842203
370
    18
100
AcDbVertex
100
AcDb2dVertex
 10
25.0000244078125
 20
-112.0000542254722
 30
0.0
  0
VERTEX
  5
102
330
FE
100
AcDbEntity
  8
Layer 1
 62
   250
420
  1842203
370
    18
100
AcDbVertex
100
AcDb2dVertex
 10
25.0000244078125
 20
-115.0000433740278
 30
0.0
  0
VERTEX
  5
103
330
FE
100
AcDbEntity
  8
Layer 1
 62
   250
420
  1842203
370
    18
100
AcDbVertex
100
AcDb2dVertex
 10
19.99998507529514
 20
-115.0000433740278
 30
0.0
  0
VERTEX
  5
104
330
FE
100
AcDbEntity
  8
Layer 1
 62
   250
420
  1842203
370
    18
100
AcDbVertex
100
AcDb2dVertex
 10
19.99998507529514
 20
-101.0005533601665
 30
0.0
  0
VERTEX
  5
105
330
FE
100
AcDbEntity
  8
Layer 1
 62
   250
420
  1842203
370
    18
100
AcDbVertex
100
AcDb2dVertex
 10
16.99999592673959
 20
-101.0005533601665
 30
0.0
  0
VERTEX
  5
106
330
FE
100
AcDbEntity
  8
Layer 1
 62
   250
420
  1842203
370
    18
100
AcDbVertex
100
AcDb2dVertex
 10
17.00016818151385
 20
-87.00020207243398
 30
0.0
  0
VERTEX
  5
107
330
FE
100
AcDbEntity
  8
Layer 1
 62
   250
420
  1842203
370
    18
100
AcDbVertex
100
AcDb2dVertex
 10
25.0000244078125
 20
-87.00020207243398
 30
0.0
  0
VERTEX
  5
108
330
FE
100
AcDbEntity
  8
Layer 1
 62
   250
420
  1842203
370
    18
100
AcDbVertex
100
AcDb2dVertex
 10
25.0000244078125
 20
-90.00019122098954
 30
0.0
  0
VERTEX
  5
109
330
FE
100
AcDbEntity
  8
Layer 1
 62
   250
420
  1842203
370
    18
100
AcDbVertex
100
AcDb2dVertex
 10
40.00014240536455
 20
-90.00019122098954
 30
0.0
  0
VERTEX
  5
10A
330
FE
100
AcDbEntity
  8
Layer 1
 62
   250
420
  1842203
370
    18
100
AcDbVertex
100
AcDb2dVertex
 10
40.00014240536455
 20
-87.00020207243398
 30
0.0
  0
VERTEX
  5
10B
330
FE
100
AcDbEntity
  8
Layer 1
 62
   250
420
  1842203
370
    18
100
AcDbVertex
100
AcDb2dVertex
 10
50.00004881562499
 20
-87.00020207243398
 30
0.0
  0
VERTEX
  5
10C
330
FE
100
AcDbEntity
  8
Layer 1
 62
   250
420
  1842203
370
    18
100
AcDbVertex
100
AcDb2dVertex
 10
50.00004881562499
 20
-90.00019122098954
 30
0.0
  0
VERTEX
  5
10D
330
FE
100
AcDbEntity
  8
Layer 1
 62
   250
420
  1842203
370
    18
100
AcDbVertex
100
AcDb2dVertex
 10
75.00007322343748
 20
-90.00019122098954
 30
0.0
  0
VERTEX
  5
10E
330
FE
100
AcDbEntity
  8
Layer 1
 62
   250
420
  1842203
370
    18
100
AcDbVertex
100
AcDb2dVertex
 10
75.00007322343748
 20
-87.00020207243398
 30
0.0
  0
VERTEX
  5
10F
330
FE
100
AcDbEntity
  8
Layer 1
 62
   250
420
  1842203
370
    18
100
AcDbVertex
100
AcDb2dVertex
 10
85.00015188847219
 20
-87.00020207243398
 30
0.0
  0
VERTEX
  5
110
330
FE
100
AcDbEntity
  8
Layer 1
 62
   250
420
  1842203
370
    18
100
AcDbVertex
100
AcDb2dVertex
 10
85.00015188847219
 20
-90.00019122098954
 30
0.0
  0
VERTEX
  5
111
330
FE
100
AcDbEntity
  8
Layer 1
 62
   250
420
  1842203
370
    18
100
AcDbVertex
100
AcDb2dVertex
 10
100.00009763125
 20
-90.00019122098954
 30
0.0
  0
VERTEX
  5
112
330
FE
100
AcDbEntity
  8
Layer 1
 62
   250
420
  1842203
370
    18
100
AcDbVertex
100
AcDb2dVertex
 10
100.00009763125
 20
-87.00020207243398
 30
0.0
  0
VERTEX
  5
113
330
FE
100
AcDbEntity
  8
Layer 1
 62
   250
420
  1842203
370
    18
100
AcDbVertex
100
AcDb2dVertex
 10
108.0002983670972
 20
-87.00020207243398
 30
0.0
  0
VERTEX
  5
114
330
FE
100
AcDbEntity
  8
Layer 1
 62
   250
420
  1842203
370
    18
100
AcDbVertex
100
AcDb2dVertex
 10
107.9997816027744
 20
-101.0005533601665
 30
0.0
  0
VERTEX
  5
115
330
FE
100
AcDbEntity
  8
Layer 1
 62
   250
420
  1842203
370
    18
100
AcDbVertex
100
AcDb2dVertex
 10
104.9997924542188
 20
-101.0005533601665
 30
0.0
  0
VERTEX
  5
116
330
FE
100
AcDbEntity
  8
Layer 1
 62
   250
420
  1842203
370
    18
100
AcDbVertex
100
AcDb2dVertex
 10
105.0001369637673
 20
-115.0000433740278
 30
0.0
  0
VERTEX
  5
117
330
FE
100
AcDbEntity
  8
Layer 1
 62
   250
420
  1842203
370
    18
100
AcDbVertex
100
AcDb2dVertex
 10
100.00009763125
 20
-115.0000433740278
 30
0.0
  0
VERTEX
  5
118
330
FE
100
AcDbEntity
  8
Layer 1
 62
   250
420
  1842203
370
    18
100
AcDbVertex
100
AcDb2dVertex
 10
100.00009763125
 20
-112.0000542254722
 30
0.0
  0
VERTEX
  5
119
330
FE
100
AcDbEntity
  8
Layer 1
 62
   250
420
  1842203
370
    18
100
AcDbVertex
100
AcDb2dVertex
 10
85.00015188847219
 20
-112.0000542254722
 30
0.0
  0
VERTEX
  5
11A
330
FE
100
AcDbEntity
  8
Layer 1
 62
   250
420
  1842203
370
    18
100
AcDbVertex
100
AcDb2dVertex
 10
85.00015188847219
 20
-115.0000433740278
 30
0.0
  0
VERTEX
  5
11B
330
FE
100
AcDbEntity
  8
Layer 1
 62
   250
420
  1842203
370
    18
100
AcDbVertex
100
AcDb2dVertex
 10
75.00007322343748
 20
-115.0000433740278
 30
0.0
  0
VERTEX
  5
11C
330
FE
100
AcDbEntity
  8
Layer 1
 62
   250
420
  1842203
370
    18
100
AcDbVertex
100
AcDb2dVertex
 10
75.00007322343748
 20
-112.0000542254722
 30
0.0
  0
VERTEX
  5
11D
330
FE
100
AcDbEntity
  8
Layer 1
 62
   250
420
  1842203
370
    18
100
AcDbVertex
100
AcDb2dVertex
 10
50.00004881562499
 20
-112.0000542254722
 30
0.0
  0
VERTEX
  5
11E
330
FE
100
AcDbEntity
  8
Layer 1
 62
   250
420
  1842203
370
    18
100
AcDbVertex
100
AcDb2dVertex
 10
50.00004881562499
 20
-115.0000433740278
 30
0.0
  0
VERTEX
  5
11F
330
FE
100
AcDbEntity
  8
Layer 1
 62
   250
420
  1842203
370
    18
100
AcDbVertex
100
AcDb2dVertex
 10
40.00014240536455
 20
-115.0000433740278
 30
0.0
  0
SEQEND
  5
120
330
FE
100
AcDbEntity
  8
Layer 1
370
    18
  0
POLYLINE
  5
121
330
1F
100
AcDbEntity
  8
Layer 1
 62
   250
420
  1842203
370
    18
100
AcDb2dPolyline
 66
     1
 10
0.0
 20
0.0
 30
0.0
  0
VERTEX
  5
122
330
121
100
AcDbEntity
  8
Layer 1
 62
   250
420
  1842203
370
    18
100
AcDbVertex
100
AcDb2dVertex
 10
156.0004692535346
 20
-76.00018444280552
 30
0.0
  0
VERTEX
  5
123
330
121
100
AcDbEntity
  8
Layer 1
 62
   250
420
  1842203
370
    18
100
AcDbVertex
100
AcDb2dVertex
 10
156.0004692535346
 20
-79.00017359136108
 30
0.0
  0
VERTEX
  5
124
330
121
100
AcDbEntity
  8
Layer 1
 62
   250
420
  1842203
370
    18
100
AcDbVertex
100
AcDb2dVertex
 10
146.0007350980484
 20
-79.00017359136108
 30
0.0
  0
VERTEX
  5
125
330
121
100
AcDbEntity
  8
Layer 1
 62
   250
420
  1842203
370
    18
100
AcDbVertex
100
AcDb2dVertex
 10
146.0007350980484
 20
-76.00018444280552
 30
0.0
  0
VERTEX
  5
126
330
121
100
AcDbEntity
  8
Layer 1
 62
   250
420
  1842203
370
    18
100
AcDbVertex
100
AcDb2dVertex
 10
156.0004692535346
 20
-76.00018444280552
 30
0.0
  0
SEQEND
  5
127
330
121
100
AcDbEntity
  8
Layer 1
370
    18
  0
SPLINE
  5
128
330
1F
100
AcDbEntity
  8
Layer 1
 62
   250
420
  1842203
370
    18
100
AcDbSpline
210
0.0
220
0.0
230
1.0
 70
    11
 71
     3
 72
    17
 73
    13
 74
     0
 42
0.0000000001
 43
0.0000000001
 40
0.0
 40
0.0
 40
0.0
 40
0.0
 40
1.0
 40
1.0
 40
1.0
 40
2.0
 40
2.0
 40
2.0
 40
3.0
 40
3.0
 40
3.0
 40
4.0
 40
4.0
 40
4.0
 40
4.0
 10
78.00006237199304
 20
-104.0008870182706
 30
0.0
 10
78.00006237199304
 20
-101.7912027740314
 30
0.0
 10
76.20912948398592
 20
-100.0002698860242
 30
0.0
 10
73.99996200406946
 20
-100.0002698860242
 30
0.0
 10
71.79096677892726
 20
-100.0002698860242
 30
0.0
 10
70.00003389092014
 20
-101.7912027740314
 30
0.0
 10
70.00003389092014
 20
-104.0008870182706
 30
0.0
 10
70.00003389092014
 20
-106.2095377338643
 30
0.0
 10
71.79096677892726
 20
-108.0002983670972
 30
0.0
 10
73.99996200406946
 20
-108.0002983670972
 30
0.0
 10
76.20912948398592
 20
-108.0002983670972
 30
0.0
 10
78.00006237199304
 20
-106.2095377338643
 30
0.0
 10
78.00006237199304
 20
-104.0008870182706
 30
0.0
  0
SPLINE
  5
129
330
1F
100
AcDbEntity
  8
Layer 1
 62
   250
420
  1842203
370
    18
100
AcDbSpline
210
0.0
220
0.0
230
1.0
 70
    11
 71
     3
 72
    29
 73
    25
 74
     0
 42
0.0000000001
 43
0.0000000001
 40
0.0
 40
0.0
 40
0.0
 40
0.0
 40
1.0
 40
1.0
 40
1.0
 40
2.0
 40
2.0
 40
2.0
 40
3.0
 40
3.0
 40
3.0
 40
4.0
 40
4.0
 40
4.0
 40
5.0
 40
5.0
 40
5.0
 40
6.0
 40
6.0
 40
6.0
 40
7.0
 40
7.0
 40
7.0
 40
8.0
 40
8.0
 40
8.0
 40
8.0
 10
23.99991318844447
 20
-102.000320069986
 30
0.0
 10
23.99991318844447
 20
-100.0002698860242
 30
0.0
 10
23.99991318844447
 20
-100.0002698860242
 30
0.0
 10
25.99996337240626
 20
-100.0002698860242
 30
0.0
 10
28.00001355636805
 20
-100.0002698860242
 30
0.0
 10
62.00034991939575
 20
-100.0006143955728
 30
0.0
 10
64.00022784858328
 20
-100.0006143955728
 30
0.0
 10
66.00010577777081
 20
-100.0006143955728
 30
0.0
 10
66.00010577777081
 20
-100.0006143955728
 30
0.0
 10
66.00010577777081
 20
-102.0010090890831
 30
0.0
 10
66.00010577777081
 20
-104.0005425087221
 30
0.0
 10
66.00010577777081
 20
-108.0006428766457
 30
0.0
 10
66.00010577777081
 20
-109.0004095864652
 30
0.0
 10
66.00010577777081
 20
-110.0001762962847
 30
0.0
 10
66.00027803254507
 20
-110.0001762962847
 30
0.0
 10
64.00022784858328
 20
-110.0001762962847
 30
0.0
 10
62.00017766462149
 20
-110.0001762962847
 30
0.0
 10
27.99966904681953
 20
-109.9998317867362
 30
0.0
 10
25.999791117632
 20
-109.9998317867362
 30
0.0
 10
23.99991318844447
 20
-109.9998317867362
 30
0.0
 10
23.99991318844447
 20
-109.9998317867362
 30
0.0
 10
23.99991318844447
 20
-108.0002983670972
 30
0.0
 10
23.99991318844447
 20
-106.0000759283611
 30
0.0
 10
23.99991318844447
 20
-104.0005425087221
 30
0.0
 10
23.99991318844447
 20
-102.000320069986
 30
0.0
  0
POLYLINE
  5
12A
330
1F
100
AcDbEntity
  8
Layer 1
 62
   250
420
  1842203
370
    18
100
AcDb2dPolyline
 66
     1
 10
0.0
 20
0.0
 30
0.0
  0
VERTEX
  5
12B
330
12A
100
AcDbEntity
  8
Layer 1
 62
   250
420
  1842203
370
    18
100
AcDbVertex
100
AcDb2dVertex
 10
50.00004881562499
 20
-76.00018444280552
 30
0.0
  0
VERTEX
  5
12C
330
12A
100
AcDbEntity
  8
Layer 1
 62
   250
420
  1842203
370
    18
100
AcDbVertex
100
AcDb2dVertex
 10
50.00004881562499
 20
-79.00017359136108
 30
0.0
  0
VERTEX
  5
12D
330
12A
100
AcDbEntity
  8
Layer 1
 62
   250
420
  1842203
370
    18
100
AcDbVertex
100
AcDb2dVertex
 10
39.99997015059029
 20
-79.00017359136108
 30
0.0
  0
VERTEX
  5
12E
330
12A
100
AcDbEntity
  8
Layer 1
 62
   250
420
  1842203
370
    18
100
AcDbVertex
100
AcDb2dVertex
 10
39.99997015059029
 20
-76.00018444280552
 30
0.0
  0
VERTEX
  5
12F
330
12A
100
AcDbEntity
  8
Layer 1
 62
   250
420
  1842203
370
    18
100
AcDbVertex
100
AcDb2dVertex
 10
50.00004881562499
 20
-76.00018444280552
 30
0.0
  0
SEQEND
  5
130
330
12A
100
AcDbEntity
  8
Layer 1
370
    18
  0
POLYLINE
  5
131
330
1F
100
AcDbEntity
  8
Layer 1
 62
   250
420
  1842203
370
    18
100
AcDb2dPolyline
 66
     1
 10
0.0
 20
0.0
 30
0.0
  0
VERTEX
  5
132
330
131
100
AcDbEntity
  8
Layer 1
 62
   250
420
  1842203
370
    18
100
AcDbVertex
100
AcDb2dVertex
 10
123.0005886194235
 20
-71.00031736506243
 30
0.0
  0
VERTEX
  5
133
330
131
100
AcDbEntity
  8
Layer 1
 62
   250
420
  1842203
370
    18
100
AcDbVertex
100
AcDb2dVertex
 10
126.000577767979
 20
-71.00031736506243
 30
0.0
  0
VERTEX
  5
134
330
131
100
AcDbEntity
  8
Layer 1
 62
   250
420
  1842203
370
    18
100
AcDbVertex
100
AcDb2dVertex
 10
126.0007500227533
 20
-76.00018444280552
 30
0.0
  0
VERTEX
  5
135
330
131
100
AcDbEntity
  8
Layer 1
 62
   250
420
  1842203
370
    18
100
AcDbVertex
100
AcDb2dVertex
 10
131.0006171004964
 20
-76.00018444280552
 30
0.0
  0
VERTEX
  5
136
330
131
100
AcDbEntity
  8
Layer 1
 62
   250
420
  1842203
370
    18
100
AcDbVertex
100
AcDb2dVertex
 10
131.0006171004964
 20
-79.00017359136108
 30
0.0
  0
VERTEX
  5
137
330
131
100
AcDbEntity
  8
Layer 1
 62
   250
420
  1842203
370
    18
100
AcDbVertex
100
AcDb2dVertex
 10
123.0005886194235
 20
-79.00017359136108
 30
0.0
  0
VERTEX
  5
138
330
131
100
AcDbEntity
  8
Layer 1
 62
   250
420
  1842203
370
    18
100
AcDbVertex
100
AcDb2dVertex
 10
123.0005886194235
 20
-71.00031736506243
 30
0.0
  0
SEQEND
  5
139
330
131
100
AcDbEntity
  8
Layer 1
370
    18
  0
POLYLINE
  5
13A
330
1F
100
AcDbEntity
  8
Layer 1
 62
   250
420
  1842203
370
    18
100
AcDb2dPolyline
 66
     1
 10
0.0
 20
0.0
 30
0.0
  0
VERTEX
  5
13B
330
13A
100
AcDbEntity
  8
Layer 1
 62
   250
420
  1842203
370
    18
100
AcDbVertex
100
AcDb2dVertex
 10
126.000577767979
 20
-25.00036891736102
 30
0.0
  0
VERTEX
  5
13C
330
13A
100
AcDbEntity
  8
Layer 1
 62
   250
420
  1842203
370
    18
100
AcDbVertex
100
AcDb2dVertex
 10
123.0005886194235
 20
-25.00036891736102
 30
0.0
  0
VERTEX
  5
13D
330
13A
100
AcDbEntity
  8
Layer 1
 62
   250
420
  1842203
370
    18
100
AcDbVertex
100
AcDb2dVertex
 10
123.0005886194235
 20
-17.00016818151385
 30
0.0
  0
VERTEX
  5
13E
330
13A
100
AcDbEntity
  8
Layer 1
 62
   250
420
  1842203
370
    18
100
AcDbVertex
100
AcDb2dVertex
 10
131.0006171004964
 20
-17.00016818151385
 30
0.0
  0
VERTEX
  5
13F
330
13A
100
AcDbEntity
  8
Layer 1
 62
   250
420
  1842203
370
    18
100
AcDbVertex
100
AcDb2dVertex
 10
131.0006171004964
 20
-20.00015733006941
 30
0.0
  0
VERTEX
  5
140
330
13A
100
AcDbEntity
  8
Layer 1
 62
   250
420
  1842203
370
    18
100
AcDbVertex
100
AcDb2dVertex
 10
126.000577767979
 20
-20.00015733006941
 30
0.0
  0
VERTEX
  5
141
330
13A
100
AcDbEntity
  8
Layer 1
 62
   250
420
  1842203
370
    18
100
AcDbVertex
100
AcDb2dVertex
 10
126.000577767979
 20
-25.00036891736102
 30
0.0
  0
SEQEND
  5
142
330
13A
100
AcDbEntity
  8
Layer 1
370
    18
  0
POLYLINE
  5
143
330
1F
100
AcDbEntity
  8
Layer 1
 62
   250
420
  1842203
370
    18
100
AcDb2dPolyline
 66
     1
 10
0.0
 20
0.0
 30
0.0
  0
VERTEX
  5
144
330
143
100
AcDbEntity
  8
Layer 1
 62
   250
420
  1842203
370
    18
100
AcDbVertex
100
AcDb2dVertex
 10
211.0003851469027
 20
-74.00013425884372
 30
0.0
  0
VERTEX
  5
145
330
143
100
AcDbEntity
  8
Layer 1
 62
   250
420
  1842203
370
    18
100
AcDbVertex
100
AcDb2dVertex
 10
214.0003742954582
 20
-74.00013425884372
 30
0.0
  0
VERTEX
  5
146
330
143
100
AcDbEntity
  8
Layer 1
 62
   250
420
  1842203
370
    18
100
AcDbVertex
100
AcDb2dVertex
 10
214.0003742954582
 20
-79.00017359136108
 30
0.0
  0
VERTEX
  5
147
330
143
100
AcDbEntity
  8
Layer 1
 62
   250
420
  1842203
370
    18
100
AcDbVertex
100
AcDb2dVertex
 10
206.0005180691596
 20
-79.00017359136108
 30
0.0
  0
VERTEX
  5
148
330
143
100
AcDbEntity
  8
Layer 1
 62
   250
420
  1842203
370
    18
100
AcDbVertex
100
AcDb2dVertex
 10
206.0005180691596
 20
-76.00018444280552
 30
0.0
  0
VERTEX
  5
149
330
143
100
AcDbEntity
  8
Layer 1
 62
   250
420
  1842203
370
    18
100
AcDbVertex
100
AcDb2dVertex
 10
211.0007296564512
 20
-76.00018444280552
 30
0.0
  0
VERTEX
  5
14A
330
143
100
AcDbEntity
  8
Layer 1
 62
   250
420
  1842203
370
    18
100
AcDbVertex
100
AcDb2dVertex
 10
211.0003851469027
 20
-74.00013425884372
 30
0.0
  0
SEQEND
  5
14B
330
143
100
AcDbEntity
  8
Layer 1
370
    18
  0
POLYLINE
  5
14C
330
1F
100
AcDbEntity
  8
Layer 1
 62
   250
420
  1842203
370
    18
100
AcDb2dPolyline
 66
     1
 10
0.0
 20
0.0
 30
0.0
  0
VERTEX
  5
14D
330
14C
100
AcDbEntity
  8
Layer 1
 62
   250
420
  1842203
370
    18
100
AcDbVertex
100
AcDb2dVertex
 10
206.0005180691596
 20
-17.00016818151385
 30
0.0
  0
VERTEX
  5
14E
330
14C
100
AcDbEntity
  8
Layer 1
 62
   250
420
  1842203
370
    18
100
AcDbVertex
100
AcDb2dVertex
 10
214.0007188050068
 20
-17.00016818151385
 30
0.0
  0
VERTEX
  5
14F
330
14C
100
AcDbEntity
  8
Layer 1
 62
   250
420
  1842203
370
    18
100
AcDbVertex
100
AcDb2dVertex
 10
214.0007188050068
 20
-22.00037976880546
 30
0.0
  0
VERTEX
  5
150
330
14C
100
AcDbEntity
  8
Layer 1
 62
   250
420
  1842203
370
    18
100
AcDbVertex
100
AcDb2dVertex
 10
211.0007296564512
 20
-22.00037976880546
 30
0.0
  0
VERTEX
  5
151
330
14C
100
AcDbEntity
  8
Layer 1
 62
   250
420
  1842203
370
    18
100
AcDbVertex
100
AcDb2dVertex
 10
211.0007296564512
 20
-20.00015733006941
 30
0.0
  0
VERTEX
  5
152
330
14C
100
AcDbEntity
  8
Layer 1
 62
   250
420
  1842203
370
    18
100
AcDbVertex
100
AcDb2dVertex
 10
206.0005180691596
 20
-20.00015733006941
 30
0.0
  0
VERTEX
  5
153
330
14C
100
AcDbEntity
  8
Layer 1
 62
   250
420
  1842203
370
    18
100
AcDbVertex
100
AcDb2dVertex
 10
206.0005180691596
 20
-17.00016818151385
 30
0.0
  0
SEQEND
  5
154
330
14C
100
AcDbEntity
  8
Layer 1
370
    18
  0
SPLINE
  5
155
330
1F
100
AcDbEntity
  8
Layer 1
 62
   250
420
  1842203
370
    18
100
AcDbSpline
210
0.0
220
0.0
230
1.0
 70
    11
 71
     3
 72
    29
 73
    25
 74
     0
 42
0.0000000001
 43
0.0000000001
 40
0.0
 40
0.0
 40
0.0
 40
0.0
 40
1.0
 40
1.0
 40
1.0
 40
2.0
 40
2.0
 40
2.0
 40
3.0
 40
3.0
 40
3.0
 40
4.0
 40
4.0
 40
4.0
 40
5.0
 40
5.0
 40
5.0
 40
6.0
 40
6.0
 40
6.0
 40
7.0
 40
7.0
 40
7.0
 40
8.0
 40
8.0
 40
8.0
 40
8.0
 10
149.0000352275069
 20
-99.4998697667917
 30
0.0
 10
149.0000352275069
 20
-98.67132430258911
 30
0.0
 10
148.3284138626575
 20
-97.99987519251393
 30
0.0
 10
147.5000406532291
 20
-97.99987519251393
 30
0.0
 10
147.5000406532291
 20
-97.99987519251393
 30
0.0
 10
138.5000732075625
 20
-97.99987519251393
 30
0.0
 10
138.5000732075625
 20
-97.99987519251393
 30
0.0
 10
137.6716999981342
 20
-97.99987519251393
 30
0.0
 10
137.0000786332847
 20
-98.67132430258911
 30
0.0
 10
137.0000786332847
 20
-99.4998697667917
 30
0.0
 10
137.0000786332847
 20
-99.4998697667917
 30
0.0
 10
137.0000786332847
 20
-99.4998697667917
 30
0.0
 10
137.0000786332847
 20
-99.4998697667917
 30
0.0
 10
137.0000786332847
 20
-100.3284152309943
 30
0.0
 10
137.6716999981342
 20
-100.9998643410695
 30
0.0
 10
138.5000732075625
 20
-100.9998643410695
 30
0.0
 10
138.5000732075625
 20
-100.9998643410695
 30
0.0
 10
147.5000406532291
 20
-100.9998643410695
 30
0.0
 10
147.5000406532291
 20
-100.9998643410695
 30
0.0
 10
148.3284138626575
 20
-100.9998643410695
 30
0.0
 10
149.0000352275069
 20
-100.3284152309943
 30
0.0
 10
149.0000352275069
 20
-99.4998697667917
 30
0.0
 10
149.0000352275069
 20
-99.4998697667917
 30
0.0
 10
149.0000352275069
 20
-99.4998697667917
 30
0.0
 10
149.0000352275069
 20
-99.4998697667917
 30
0.0
  0
SPLINE
  5
156
330
1F
100
AcDbEntity
  8
Layer 1
 62
   250
420
  1842203
370
    18
100
AcDbSpline
210
0.0
220
0.0
230
1.0
 70
    11
 71
     3
 72
    29
 73
    25
 74
     0
 42
0.0000000001
 43
0.0000000001
 40
0.0
 40
0.0
 40
0.0
 40
0.0
 40
1.0
 40
1.0
 40
1.0
 40
2.0
 40
2.0
 40
2.0
 40
3.0
 40
3.0
 40
3.0
 40
4.0
 40
4.0
 40
4.0
 40
5.0
 40
5.0
 40
5.0
 40
6.0
 40
6.0
 40
6.0
 40
7.0
 40
7.0
 40
7.0
 40
8.0
 40
8.0
 40
8.0
 40
8.0
 10
184.9999050101736
 20
-104.5004258636318
 30
0.0
 10
184.9999050101736
 20
-103.6715358898807
 30
0.0
 10
184.3284559000984
 20
-103.0000867798055
 30
0.0
 10
183.4999104358959
 20
-103.0000867798055
 30
0.0
 10
183.4999104358959
 20
-103.0000867798055
 30
0.0
 10
174.4999429902292
 20
-103.0000867798055
 30
0.0
 10
174.4999429902292
 20
-103.0000867798055
 30
0.0
 10
173.6713975260266
 20
-103.0000867798055
 30
0.0
 10
172.9999484159514
 20
-103.6715358898807
 30
0.0
 10
172.9999484159514
 20
-104.5004258636318
 30
0.0
 10
172.9999484159514
 20
-104.5004258636318
 30
0.0
 10
172.9999484159514
 20
-104.5004258636318
 30
0.0
 10
172.9999484159514
 20
-104.5004258636318
 30
0.0
 10
172.9999484159514
 20
-105.3286268182859
 30
0.0
 10
173.6713975260266
 20
-106.0004204379096
 30
0.0
 10
174.4999429902292
 20
-106.0004204379096
 30
0.0
 10
174.4999429902292
 20
-106.0004204379096
 30
0.0
 10
183.4999104358959
 20
-106.0004204379096
 30
0.0
 10
183.4999104358959
 20
-106.0004204379096
 30
0.0
 10
184.3284559000984
 20
-106.0004204379096
 30
0.0
 10
184.9999050101736
 20
-105.3286268182859
 30
0.0
 10
184.9999050101736
 20
-104.5004258636318
 30
0.0
 10
184.9999050101736
 20
-104.5004258636318
 30
0.0
 10
184.9999050101736
 20
-104.5004258636318
 30
0.0
 10
184.9999050101736
 20
-104.5004258636318
 30
0.0
  0
SPLINE
  5
157
330
1F
100
AcDbEntity
  8
Layer 1
 62
   250
420
  1842203
370
    18
100
AcDbSpline
210
0.0
220
0.0
230
1.0
 70
    11
 71
     3
 72
    29
 73
    25
 74
     0
 42
0.0000000001
 43
0.0000000001
 40
0.0
 40
0.0
 40
0.0
 40
0.0
 40
1.0
 40
1.0
 40
1.0
 40
2.0
 40
2.0
 40
2.0
 40
3.0
 40
3.0
 40
3.0
 40
4.0
 40
4.0
 40
4.0
 40
5.0
 40
5.0
 40
5.0
 40
6.0
 40
6.0
 40
6.0
 40
7.0
 40
7.0
 40
7.0
 40
8.0
 40
8.0
 40
8.0
 40
8.0
 10
149.0000352275069
 20
-104.5000813540833
 30
0.0
 10
149.0000352275069
 20
-103.6715358898807
 30
0.0
 10
148.3285861174317
 20
-103.0000867798055
 30
0.0
 10
147.5000406532291
 20
-103.0000867798055
 30
0.0
 10
147.5000406532291
 20
-103.0000867798055
 30
0.0
 10
138.5000732075625
 20
-103.0000867798055
 30
0.0
 10
138.5000732075625
 20
-103.0000867798055
 30
0.0
 10
137.6716999981342
 20
-103.0000867798055
 30
0.0
 10
137.0000786332847
 20
-103.6715358898807
 30
0.0
 10
137.0000786332847
 20
-104.5000813540833
 30
0.0
 10
137.0000786332847
 20
-104.5000813540833
 30
0.0
 10
137.0000786332847
 20
-104.5000813540833
 30
0.0
 10
137.0000786332847
 20
-104.5000813540833
 30
0.0
 10
137.0000786332847
 20
-105.3286268182859
 30
0.0
 10
137.6716999981342
 20
-106.0000759283611
 30
0.0
 10
138.5000732075625
 20
-106.0000759283611
 30
0.0
 10
138.5000732075625
 20
-106.0000759283611
 30
0.0
 10
147.5000406532291
 20
-106.0000759283611
 30
0.0
 10
147.5000406532291
 20
-106.0000759283611
 30
0.0
 10
148.3285861174317
 20
-106.0000759283611
 30
0.0
 10
149.0000352275069
 20
-105.3286268182859
 30
0.0
 10
149.0000352275069
 20
-104.5000813540833
 30
0.0
 10
149.0000352275069
 20
-104.5000813540833
 30
0.0
 10
149.0000352275069
 20
-104.5000813540833
 30
0.0
 10
149.0000352275069
 20
-104.5000813540833
 30
0.0
  0
SPLINE
  5
158
330
1F
100
AcDbEntity
  8
Layer 1
 62
   250
420
  1842203
370
    18
100
AcDbSpline
210
0.0
220
0.0
230
1.0
 70
    11
 71
     3
 72
    29
 73
    25
 74
     0
 42
0.0000000001
 43
0.0000000001
 40
0.0
 40
0.0
 40
0.0
 40
0.0
 40
1.0
 40
1.0
 40
1.0
 40
2.0
 40
2.0
 40
2.0
 40
3.0
 40
3.0
 40
3.0
 40
4.0
 40
4.0
 40
4.0
 40
5.0
 40
5.0
 40
5.0
 40
6.0
 40
6.0
 40
6.0
 40
7.0
 40
7.0
 40
7.0
 40
8.0
 40
8.0
 40
8.0
 40
8.0
 10
184.9999050101736
 20
-99.50038653111449
 30
0.0
 10
184.9999050101736
 20
-98.67149655736338
 30
0.0
 10
184.3284559000984
 20
-98.00004744728818
 30
0.0
 10
183.4999104358959
 20
-98.00004744728818
 30
0.0
 10
183.4999104358959
 20
-98.00004744728818
 30
0.0
 10
174.4999429902292
 20
-98.00004744728818
 30
0.0
 10
174.4999429902292
 20
-98.00004744728818
 30
0.0
 10
173.6713975260266
 20
-98.00004744728818
 30
0.0
 10
172.9999484159514
 20
-98.67149655736338
 30
0.0
 10
172.9999484159514
 20
-99.50038653111449
 30
0.0
 10
172.9999484159514
 20
-99.50038653111449
 30
0.0
 10
172.9999484159514
 20
-99.50038653111449
 30
0.0
 10
172.9999484159514
 20
-99.50038653111449
 30
0.0
 10
172.9999484159514
 20
-100.3287597405428
 30
0.0
 10
173.6713975260266
 20
-101.0005533601665
 30
0.0
 10
174.4999429902292
 20
-101.0005533601665
 30
0.0
 10
174.4999429902292
 20
-101.0005533601665
 30
0.0
 10
183.4999104358959
 20
-101.0005533601665
 30
0.0
 10
183.4999104358959
 20
-101.0005533601665
 30
0.0
 10
184.3284559000984
 20
-101.0005533601665
 30
0.0
 10
184.9999050101736
 20
-100.3287597405428
 30
0.0
 10
184.9999050101736
 20
-99.50038653111449
 30
0.0
 10
184.9999050101736
 20
-99.50038653111449
 30
0.0
 10
184.9999050101736
 20
-99.50038653111449
 30
0.0
 10
184.9999050101736
 20
-99.50038653111449
 30
0.0
  0
SPLINE
  5
159
330
1F
100
AcDbEntity
  8
Layer 1
 62
   250
420
  1842203
370
    18
100
AcDbSpline
210
0.0
220
0.0
230
1.0
 70
    11
 71
     3
 72
    29
 73
    25
 74
     0
 42
0.0000000001
 43
0.0000000001
 40
0.0
 40
0.0
 40
0.0
 40
0.0
 40
1.0
 40
1.0
 40
1.0
 40
2.0
 40
2.0
 40
2.0
 40
3.0
 40
3.0
 40
3.0
 40
4.0
 40
4.0
 40
4.0
 40
5.0
 40
5.0
 40
5.0
 40
6.0
 40
6.0
 40
6.0
 40
7.0
 40
7.0
 40
7.0
 40
8.0
 40
8.0
 40
8.0
 40
8.0
 10
70.9999728555139
 20
-43.00013155392011
 30
0.0
 10
70.9999728555139
 20
-42.4477104928603
 30
0.0
 10
70.51645370415909
 20
-42.00002033455208
 30
0.0
 10
69.91976316611381
 20
-42.00002033455208
 30
0.0
 10
69.91976316611381
 20
-42.00002033455208
 30
0.0
 10
45.08028020791396
 20
-42.00002033455208
 30
0.0
 10
45.08028020791396
 20
-42.00002033455208
 30
0.0
 10
44.48358966986869
 20
-42.00002033455208
 30
0.0
 10
44.00007051851387
 20
-42.4477104928603
 30
0.0
 10
44.00007051851387
 20
-43.00013155392011
 30
0.0
 10
44.00007051851387
 20
-43.00013155392011
 30
0.0
 10
44.00007051851387
 20
-43.00013155392011
 30
0.0
 10
44.00007051851387
 20
-43.00013155392011
 30
0.0
 10
44.00007051851387
 20
-43.55238036020566
 30
0.0
 10
44.48358966986869
 20
-44.00007051851387
 30
0.0
 10
45.08028020791396
 20
-44.00007051851387
 30
0.0
 10
45.08028020791396
 20
-44.00007051851387
 30
0.0
 10
69.91976316611381
 20
-44.00007051851387
 30
0.0
 10
69.91976316611381
 20
-44.00007051851387
 30
0.0
 10
70.51645370415909
 20
-44.00007051851387
 30
0.0
 10
70.9999728555139
 20
-43.55238036020566
 30
0.0
 10
70.9999728555139
 20
-43.00013155392011
 30
0.0
 10
70.9999728555139
 20
-43.00013155392011
 30
0.0
 10
70.9999728555139
 20
-43.00013155392011
 30
0.0
 10
70.9999728555139
 20
-43.00013155392011
 30
0.0
  0
SPLINE
  5
15A
330
1F
100
AcDbEntity
  8
Layer 1
 62
   250
420
  1842203
370
    18
100
AcDbSpline
210
0.0
220
0.0
230
1.0
 70
    11
 71
     3
 72
    29
 73
    25
 74
     0
 42
0.0000000001
 43
0.0000000001
 40
0.0
 40
0.0
 40
0.0
 40
0.0
 40
1.0
 40
1.0
 40
1.0
 40
2.0
 40
2.0
 40
2.0
 40
3.0
 40
3.0
 40
3.0
 40
4.0
 40
4.0
 40
4.0
 40
5.0
 40
5.0
 40
5.0
 40
6.0
 40
6.0
 40
6.0
 40
7.0
 40
7.0
 40
7.0
 40
8.0
 40
8.0
 40
8.0
 40
8.0
 10
70.9999728555139
 20
-48.00017088643746
 30
0.0
 10
70.9999728555139
 20
-47.44774982537765
 30
0.0
 10
70.51645370415909
 20
-47.00005966706943
 30
0.0
 10
69.91993542088808
 20
-47.00005966706943
 30
0.0
 10
69.91993542088808
 20
-47.00005966706943
 30
0.0
 10
45.0801079531397
 20
-47.00005966706943
 30
0.0
 10
45.0801079531397
 20
-47.00005966706943
 30
0.0
 10
44.48358966986869
 20
-47.00005966706943
 30
0.0
 10
44.00007051851387
 20
-47.44774982537765
 30
0.0
 10
44.00007051851387
 20
-48.00017088643746
 30
0.0
 10
44.00007051851387
 20
-48.00017088643746
 30
0.0
 10
44.00007051851387
 20
-48.00017088643746
 30
0.0
 10
44.00007051851387
 20
-48.00017088643746
 30
0.0
 10
44.00007051851387
 20
-48.55241969272301
 30
0.0
 10
44.48358966986869
 20
-49.00010985103123
 30
0.0
 10
45.0801079531397
 20
-49.00010985103123
 30
0.0
 10
45.0801079531397
 20
-49.00010985103123
 30
0.0
 10
69.91993542088808
 20
-49.00010985103123
 30
0.0
 10
69.91993542088808
 20
-49.00010985103123
 30
0.0
 10
70.51645370415909
 20
-49.00010985103123
 30
0.0
 10
70.9999728555139
 20
-48.55241969272301
 30
0.0
 10
70.9999728555139
 20
-48.00017088643746
 30
0.0
 10
70.9999728555139
 20
-48.00017088643746
 30
0.0
 10
70.9999728555139
 20
-48.00017088643746
 30
0.0
 10
70.9999728555139
 20
-48.00017088643746
 30
0.0
  0
SPLINE
  5
15B
330
1F
100
AcDbEntity
  8
Layer 1
 62
   250
420
  1842203
370
    18
100
AcDbSpline
210
0.0
220
0.0
230
1.0
 70
    11
 71
     3
 72
    29
 73
    25
 74
     0
 42
0.0000000001
 43
0.0000000001
 40
0.0
 40
0.0
 40
0.0
 40
0.0
 40
1.0
 40
1.0
 40
1.0
 40
2.0
 40
2.0
 40
2.0
 40
3.0
 40
3.0
 40
3.0
 40
4.0
 40
4.0
 40
4.0
 40
5.0
 40
5.0
 40
5.0
 40
6.0
 40
6.0
 40
6.0
 40
7.0
 40
7.0
 40
7.0
 40
8.0
 40
8.0
 40
8.0
 40
8.0
 10
70.9999728555139
 20
-53.00003796418055
 30
0.0
 10
70.9999728555139
 20
-52.44761690312074
 30
0.0
 10
70.51645370415909
 20
-51.99992674481252
 30
0.0
 10
69.91993542088808
 20
-51.99992674481252
 30
0.0
 10
69.91993542088808
 20
-51.99992674481252
 30
0.0
 10
45.0801079531397
 20
-51.99992674481252
 30
0.0
 10
45.0801079531397
 20
-51.99992674481252
 30
0.0
 10
44.48358966986869
 20
-51.99992674481252
 30
0.0
 10
44.00007051851387
 20
-52.44761690312074
 30
0.0
 10
44.00007051851387
 20
-53.00003796418055
 30
0.0
 10
44.00007051851387
 20
-53.00003796418055
 30
0.0
 10
44.00007051851387
 20
-53.00003796418055
 30
0.0
 10
44.00007051851387
 20
-53.00003796418055
 30
0.0
 10
44.00007051851387
 20
-53.5522867704661
 30
0.0
 10
44.48358966986869
 20
-53.99997692877432
 30
0.0
 10
45.0801079531397
 20
-53.99997692877432
 30
0.0
 10
45.0801079531397
 20
-53.99997692877432
 30
0.0
 10
69.91993542088808
 20
-53.99997692877432
 30
0.0
 10
69.91993542088808
 20
-53.99997692877432
 30
0.0
 10
70.51645370415909
 20
-53.99997692877432
 30
0.0
 10
70.9999728555139
 20
-53.5522867704661
 30
0.0
 10
70.9999728555139
 20
-53.00003796418055
 30
0.0
 10
70.9999728555139
 20
-53.00003796418055
 30
0.0
 10
70.9999728555139
 20
-53.00003796418055
 30
0.0
 10
70.9999728555139
 20
-53.00003796418055
 30
0.0
  0
SPLINE
  5
15C
330
1F
100
AcDbEntity
  8
Layer 1
 62
   250
420
  1842203
370
    18
100
AcDbSpline
210
0.0
220
0.0
230
1.0
 70
    11
 71
     3
 72
    29
 73
    25
 74
     0
 42
0.0000000001
 43
0.0000000001
 40
0.0
 40
0.0
 40
0.0
 40
0.0
 40
1.0
 40
1.0
 40
1.0
 40
2.0
 40
2.0
 40
2.0
 40
3.0
 40
3.0
 40
3.0
 40
4.0
 40
4.0
 40
4.0
 40
5.0
 40
5.0
 40
5.0
 40
6.0
 40
6.0
 40
6.0
 40
7.0
 40
7.0
 40
7.0
 40
8.0
 40
8.0
 40
8.0
 40
8.0
 10
70.9999728555139
 20
-58.0000772966979
 30
0.0
 10
70.9999728555139
 20
-57.44765623563809
 30
0.0
 10
70.51645370415909
 20
-56.99996607732987
 30
0.0
 10
69.91993542088808
 20
-56.99996607732987
 30
0.0
 10
69.91993542088808
 20
-56.99996607732987
 30
0.0
 10
45.0801079531397
 20
-56.99996607732987
 30
0.0
 10
45.0801079531397
 20
-56.99996607732987
 30
0.0
 10
44.48358966986869
 20
-56.99996607732987
 30
0.0
 10
44.00007051851387
 20
-57.44765623563809
 30
0.0
 10
44.00007051851387
 20
-58.0000772966979
 30
0.0
 10
44.00007051851387
 20
-58.0000772966979
 30
0.0
 10
44.00007051851387
 20
-58.0000772966979
 30
0.0
 10
44.00007051851387
 20
-58.0000772966979
 30
0.0
 10
44.00007051851387
 20
-58.55232610298345
 30
0.0
 10
44.48358966986869
 20
-59.00001626129166
 30
0.0
 10
45.0801079531397
 20
-59.00001626129166
 30
0.0
 10
45.0801079531397
 20
-59.00001626129166
 30
0.0
 10
69.91993542088808
 20
-59.00001626129166
 30
0.0
 10
69.91993542088808
 20
-59.00001626129166
 30
0.0
 10
70.51645370415909
 20
-59.00001626129166
 30
0.0
 10
70.9999728555139
 20
-58.55232610298345
 30
0.0
 10
70.9999728555139
 20
-58.0000772966979
 30
0.0
 10
70.9999728555139
 20
-58.0000772966979
 30
0.0
 10
70.9999728555139
 20
-58.0000772966979
 30
0.0
 10
70.9999728555139
 20
-58.0000772966979
 30
0.0
  0
SPLINE
  5
15D
330
1F
100
AcDbEntity
  8
Layer 1
 62
   250
420
  1842203
370
    18
100
AcDbSpline
210
0.0
220
0.0
230
1.0
 70
    11
 71
     3
 72
    29
 73
    25
 74
     0
 42
0.0000000001
 43
0.0000000001
 40
0.0
 40
0.0
 40
0.0
 40
0.0
 40
1.0
 40
1.0
 40
1.0
 40
2.0
 40
2.0
 40
2.0
 40
3.0
 40
3.0
 40
3.0
 40
4.0
 40
4.0
 40
4.0
 40
5.0
 40
5.0
 40
5.0
 40
6.0
 40
6.0
 40
6.0
 40
7.0
 40
7.0
 40
7.0
 40
8.0
 40
8.0
 40
8.0
 40
8.0
 10
71.00014511028816
 20
-38.00009222140276
 30
0.0
 10
71.00014511028816
 20
-37.44767116034294
 30
0.0
 10
70.51662595893335
 20
-36.99998100203473
 30
0.0
 10
69.92010767566234
 20
-36.99998100203473
 30
0.0
 10
69.92010767566234
 20
-36.99998100203473
 30
0.0
 10
45.08028020791396
 20
-36.99998100203473
 30
0.0
 10
45.08028020791396
 20
-36.99998100203473
 30
0.0
 10
44.48358966986869
 20
-36.99998100203473
 30
0.0
 10
44.00007051851387
 20
-37.44767116034294
 30
0.0
 10
44.00007051851387
 20
-38.00009222140276
 30
0.0
 10
44.00007051851387
 20
-38.00009222140276
 30
0.0
 10
44.00007051851387
 20
-38.00009222140276
 30
0.0
 10
44.00007051851387
 20
-38.00009222140276
 30
0.0
 10
44.00007051851387
 20
-38.55234102768831
 30
0.0
 10
44.48358966986869
 20
-39.00003118599652
 30
0.0
 10
45.08028020791396
 20
-39.00003118599652
 30
0.0
 10
45.08028020791396
 20
-39.00003118599652
 30
0.0
 10
69.92010767566234
 20
-39.00003118599652
 30
0.0
 10
69.92010767566234
 20
-39.00003118599652
 30
0.0
 10
70.51662595893335
 20
-39.00003118599652
 30
0.0
 10
71.00014511028816
 20
-38.55234102768831
 30
0.0
 10
71.00014511028816
 20
-38.00009222140276
 30
0.0
 10
71.00014511028816
 20
-38.00009222140276
 30
0.0
 10
71.00014511028816
 20
-38.00009222140276
 30
0.0
 10
71.00014511028816
 20
-38.00009222140276
 30
0.0
  0
SPLINE
  5
15E
330
1F
100
AcDbEntity
  8
Layer 1
 62
   250
420
  1842203
370
    18
100
AcDbSpline
210
0.0
220
0.0
230
1.0
 70
    11
 71
     3
 72
    29
 73
    25
 74
     0
 42
0.0000000001
 43
0.0000000001
 40
0.0
 40
0.0
 40
0.0
 40
0.0
 40
1.0
 40
1.0
 40
1.0
 40
2.0
 40
2.0
 40
2.0
 40
3.0
 40
3.0
 40
3.0
 40
4.0
 40
4.0
 40
4.0
 40
5.0
 40
5.0
 40
5.0
 40
6.0
 40
6.0
 40
6.0
 40
7.0
 40
7.0
 40
7.0
 40
8.0
 40
8.0
 40
8.0
 40
8.0
 10
166.9999701188403
 20
-99.50004202156596
 30
0.0
 10
166.9999701188403
 20
-98.67149655736338
 30
0.0
 10
166.3285210087651
 20
-98.00004744728818
 30
0.0
 10
165.4999755445625
 20
-98.00004744728818
 30
0.0
 10
165.4999755445625
 20
-98.00004744728818
 30
0.0
 10
156.5000080988958
 20
-98.00004744728818
 30
0.0
 10
156.5000080988958
 20
-98.00004744728818
 30
0.0
 10
155.6714626346933
 20
-98.00004744728818
 30
0.0
 10
155.0000135246181
 20
-98.67149655736338
 30
0.0
 10
155.0000135246181
 20
-99.50004202156596
 30
0.0
 10
155.0000135246181
 20
-99.50004202156596
 30
0.0
 10
155.0000135246181
 20
-99.50004202156596
 30
0.0
 10
155.0000135246181
 20
-99.50004202156596
 30
0.0
 10
155.0000135246181
 20
-100.3287597405428
 30
0.0
 10
155.6714626346933
 20
-100.9998643410695
 30
0.0
 10
156.5000080988958
 20
-100.9998643410695
 30
0.0
 10
156.5000080988958
 20
-100.9998643410695
 30
0.0
 10
165.4999755445625
 20
-100.9998643410695
 30
0.0
 10
165.4999755445625
 20
-100.9998643410695
 30
0.0
 10
166.3285210087651
 20
-100.9998643410695
 30
0.0
 10
166.9999701188403
 20
-100.3287597405428
 30
0.0
 10
166.9999701188403
 20
-99.50004202156596
 30
0.0
 10
166.9999701188403
 20
-99.50004202156596
 30
0.0
 10
166.9999701188403
 20
-99.50004202156596
 30
0.0
 10
166.9999701188403
 20
-99.50004202156596
 30
0.0
  0
SPLINE
  5
15F
330
1F
100
AcDbEntity
  8
Layer 1
 62
   250
420
  1842203
370
    18
100
AcDbSpline
210
0.0
220
0.0
230
1.0
 70
    11
 71
     3
 72
    29
 73
    25
 74
     0
 42
0.0000000001
 43
0.0000000001
 40
0.0
 40
0.0
 40
0.0
 40
0.0
 40
1.0
 40
1.0
 40
1.0
 40
2.0
 40
2.0
 40
2.0
 40
3.0
 40
3.0
 40
3.0
 40
4.0
 40
4.0
 40
4.0
 40
5.0
 40
5.0
 40
5.0
 40
6.0
 40
6.0
 40
6.0
 40
7.0
 40
7.0
 40
7.0
 40
8.0
 40
8.0
 40
8.0
 40
8.0
 10
154.0002468147985
 20
-34.00016410825344
 30
0.0
 10
154.0002468147985
 20
-33.44774304719362
 30
0.0
 10
153.5523844017161
 20
-33.00005288888541
 30
0.0
 10
153.0001355954305
 20
-33.00005288888541
 30
0.0
 10
153.0001355954305
 20
-33.00005288888541
 30
0.0
 10
153.0001355954305
 20
-33.00005288888541
 30
0.0
 10
153.0001355954305
 20
-33.00005288888541
 30
0.0
 10
152.447886789145
 20
-33.00005288888541
 30
0.0
 10
152.0000243760625
 20
-33.44774304719362
 30
0.0
 10
152.0000243760625
 20
-34.00016410825344
 30
0.0
 10
152.0000243760625
 20
-34.00016410825344
 30
0.0
 10
152.0000243760625
 20
-45.99994844770141
 30
0.0
 10
152.0000243760625
 20
-45.99994844770141
 30
0.0
 10
152.0000243760625
 20
-46.55236950876122
 30
0.0
 10
152.447886789145
 20
-47.00005966706943
 30
0.0
 10
153.0001355954305
 20
-47.00005966706943
 30
0.0
 10
153.0001355954305
 20
-47.00005966706943
 30
0.0
 10
153.0001355954305
 20
-47.00005966706943
 30
0.0
 10
153.0001355954305
 20
-47.00005966706943
 30
0.0
 10
153.5523844017161
 20
-47.00005966706943
 30
0.0
 10
154.0002468147985
 20
-46.55236950876122
 30
0.0
 10
154.0002468147985
 20
-45.99994844770141
 30
0.0
 10
154.0002468147985
 20
-45.99994844770141
 30
0.0
 10
154.0002468147985
 20
-34.00016410825344
 30
0.0
 10
154.0002468147985
 20
-34.00016410825344
 30
0.0
  0
SPLINE
  5
160
330
1F
100
AcDbEntity
  8
Layer 1
 62
   250
420
  1842203
370
    18
100
AcDbSpline
210
0.0
220
0.0
230
1.0
 70
    11
 71
     3
 72
    29
 73
    25
 74
     0
 42
0.0000000001
 43
0.0000000001
 40
0.0
 40
0.0
 40
0.0
 40
0.0
 40
1.0
 40
1.0
 40
1.0
 40
2.0
 40
2.0
 40
2.0
 40
3.0
 40
3.0
 40
3.0
 40
4.0
 40
4.0
 40
4.0
 40
5.0
 40
5.0
 40
5.0
 40
6.0
 40
6.0
 40
6.0
 40
7.0
 40
7.0
 40
7.0
 40
8.0
 40
8.0
 40
8.0
 40
8.0
 10
153.99990230525
 20
-62.99994437444099
 30
0.0
 10
153.99990230525
 20
-63.5523654355008
 30
0.0
 10
153.5520398921676
 20
-64.00005559380902
 30
0.0
 10
152.999791085882
 20
-64.00005559380902
 30
0.0
 10
152.999791085882
 20
-64.00005559380902
 30
0.0
 10
152.999791085882
 20
-64.00005559380902
 30
0.0
 10
152.999791085882
 20
-64.00005559380902
 30
0.0
 10
152.4475422795965
 20
-64.00005559380902
 30
0.0
 10
151.999679866514
 20
-63.5523654355008
 30
0.0
 10
151.999679866514
 20
-62.99994437444099
 30
0.0
 10
151.999679866514
 20
-62.99994437444099
 30
0.0
 10
151.999679866514
 20
-51.00016003499302
 30
0.0
 10
151.999679866514
 20
-51.00016003499302
 30
0.0
 10
151.999679866514
 20
-50.44773897393321
 30
0.0
 10
152.4475422795965
 20
-50.00004881562499
 30
0.0
 10
152.999791085882
 20
-50.00004881562499
 30
0.0
 10
152.999791085882
 20
-50.00004881562499
 30
0.0
 10
152.999791085882
 20
-50.00004881562499
 30
0.0
 10
152.999791085882
 20
-50.00004881562499
 30
0.0
 10
153.5520398921676
 20
-50.00004881562499
 30
0.0
 10
153.99990230525
 20
-50.44773897393321
 30
0.0
 10
153.99990230525
 20
-51.00016003499302
 30
0.0
 10
153.99990230525
 20
-51.00016003499302
 30
0.0
 10
153.99990230525
 20
-62.99994437444099
 30
0.0
 10
153.99990230525
 20
-62.99994437444099
 30
0.0
  0
SPLINE
  5
161
330
1F
100
AcDbEntity
  8
Layer 1
 62
   250
420
  1842203
370
    18
100
AcDbSpline
210
0.0
220
0.0
230
1.0
 70
    11
 71
     3
 72
    29
 73
    25
 74
     0
 42
0.0000000001
 43
0.0000000001
 40
0.0
 40
0.0
 40
0.0
 40
0.0
 40
1.0
 40
1.0
 40
1.0
 40
2.0
 40
2.0
 40
2.0
 40
3.0
 40
3.0
 40
3.0
 40
4.0
 40
4.0
 40
4.0
 40
5.0
 40
5.0
 40
5.0
 40
6.0
 40
6.0
 40
6.0
 40
7.0
 40
7.0
 40
7.0
 40
8.0
 40
8.0
 40
8.0
 40
8.0
 10
149.0000352275069
 20
-31.99994166951738
 30
0.0
 10
149.0000352275069
 20
-31.44769286323183
 30
0.0
 10
148.5523450691987
 20
-31.00000270492361
 30
0.0
 10
147.9999240081389
 20
-31.00000270492361
 30
0.0
 10
147.9999240081389
 20
-31.00000270492361
 30
0.0
 10
135.0002007040972
 20
-31.00000270492361
 30
0.0
 10
135.0002007040972
 20
-31.00000270492361
 30
0.0
 10
134.4477796430374
 20
-31.00000270492361
 30
0.0
 10
134.0000894847292
 20
-31.44769286323183
 30
0.0
 10
134.0000894847292
 20
-31.99994166951738
 30
0.0
 10
134.0000894847292
 20
-31.99994166951738
 30
0.0
 10
134.0000894847292
 20
-31.99994166951738
 30
0.0
 10
134.0000894847292
 20
-31.99994166951738
 30
0.0
 10
134.0000894847292
 20
-32.55236273057719
 30
0.0
 10
134.4477796430374
 20
-33.00005288888541
 30
0.0
 10
135.0002007040972
 20
-33.00005288888541
 30
0.0
 10
135.0002007040972
 20
-33.00005288888541
 30
0.0
 10
147.9999240081389
 20
-33.00005288888541
 30
0.0
 10
147.9999240081389
 20
-33.00005288888541
 30
0.0
 10
148.5523450691987
 20
-33.00005288888541
 30
0.0
 10
149.0000352275069
 20
-32.55236273057719
 30
0.0
 10
149.0000352275069
 20
-31.99994166951738
 30
0.0
 10
149.0000352275069
 20
-31.99994166951738
 30
0.0
 10
149.0000352275069
 20
-31.99994166951738
 30
0.0
 10
149.0000352275069
 20
-31.99994166951738
 30
0.0
  0
SPLINE
  5
162
330
1F
100
AcDbEntity
  8
Layer 1
 62
   250
420
  1842203
370
    18
100
AcDbSpline
210
0.0
220
0.0
230
1.0
 70
    11
 71
     3
 72
    29
 73
    25
 74
     0
 42
0.0000000001
 43
0.0000000001
 40
0.0
 40
0.0
 40
0.0
 40
0.0
 40
1.0
 40
1.0
 40
1.0
 40
2.0
 40
2.0
 40
2.0
 40
3.0
 40
3.0
 40
3.0
 40
4.0
 40
4.0
 40
4.0
 40
5.0
 40
5.0
 40
5.0
 40
6.0
 40
6.0
 40
6.0
 40
7.0
 40
7.0
 40
7.0
 40
8.0
 40
8.0
 40
8.0
 40
8.0
 10
193.0001057460208
 20
-66.99987248759031
 30
0.0
 10
193.0001057460208
 20
-67.55229354865013
 30
0.0
 10
192.5522433329383
 20
-67.99998370695835
 30
0.0
 10
191.9999945266528
 20
-67.99998370695835
 30
0.0
 10
191.9999945266528
 20
-67.99998370695835
 30
0.0
 10
191.9999945266528
 20
-67.99998370695835
 30
0.0
 10
191.9999945266528
 20
-67.99998370695835
 30
0.0
 10
191.4477457203672
 20
-67.99998370695835
 30
0.0
 10
190.9998833072848
 20
-67.55229354865013
 30
0.0
 10
190.9998833072848
 20
-66.99987248759031
 30
0.0
 10
190.9998833072848
 20
-66.99987248759031
 30
0.0
 10
190.9998833072848
 20
-55.00008814814234
 30
0.0
 10
190.9998833072848
 20
-55.00008814814234
 30
0.0
 10
190.9998833072848
 20
-54.44766708708253
 30
0.0
 10
191.4477457203672
 20
-53.99997692877432
 30
0.0
 10
191.9999945266528
 20
-53.99997692877432
 30
0.0
 10
191.9999945266528
 20
-53.99997692877432
 30
0.0
 10
191.9999945266528
 20
-53.99997692877432
 30
0.0
 10
191.9999945266528
 20
-53.99997692877432
 30
0.0
 10
192.5522433329383
 20
-53.99997692877432
 30
0.0
 10
193.0001057460208
 20
-54.44766708708253
 30
0.0
 10
193.0001057460208
 20
-55.00008814814234
 30
0.0
 10
193.0001057460208
 20
-55.00008814814234
 30
0.0
 10
193.0001057460208
 20
-66.99987248759031
 30
0.0
 10
193.0001057460208
 20
-66.99987248759031
 30
0.0
  0
SPLINE
  5
163
330
1F
100
AcDbEntity
  8
Layer 1
 62
   250
420
  1842203
370
    18
100
AcDbSpline
210
0.0
220
0.0
230
1.0
 70
    11
 71
     3
 72
    29
 73
    25
 74
     0
 42
0.0000000001
 43
0.0000000001
 40
0.0
 40
0.0
 40
0.0
 40
0.0
 40
1.0
 40
1.0
 40
1.0
 40
2.0
 40
2.0
 40
2.0
 40
3.0
 40
3.0
 40
3.0
 40
4.0
 40
4.0
 40
4.0
 40
5.0
 40
5.0
 40
5.0
 40
6.0
 40
6.0
 40
6.0
 40
7.0
 40
7.0
 40
7.0
 40
8.0
 40
8.0
 40
8.0
 40
8.0
 10
193.0001057460208
 20
-50.99981552544449
 30
0.0
 10
193.0001057460208
 20
-51.55223658650431
 30
0.0
 10
192.5522433329383
 20
-51.99992674481252
 30
0.0
 10
191.9999945266528
 20
-51.99992674481252
 30
0.0
 10
191.9999945266528
 20
-51.99992674481252
 30
0.0
 10
191.9999945266528
 20
-51.99992674481252
 30
0.0
 10
191.9999945266528
 20
-51.99992674481252
 30
0.0
 10
191.4477457203672
 20
-51.99992674481252
 30
0.0
 10
190.9998833072848
 20
-51.55223658650431
 30
0.0
 10
190.9998833072848
 20
-50.99981552544449
 30
0.0
 10
190.9998833072848
 20
-50.99981552544449
 30
0.0
 10
190.9998833072848
 20
-39.00003118599652
 30
0.0
 10
190.9998833072848
 20
-39.00003118599652
 30
0.0
 10
190.9998833072848
 20
-38.44761012493671
 30
0.0
 10
191.4477457203672
 20
-37.9999199666285
 30
0.0
 10
191.9999945266528
 20
-37.9999199666285
 30
0.0
 10
191.9999945266528
 20
-37.9999199666285
 30
0.0
 10
191.9999945266528
 20
-37.9999199666285
 30
0.0
 10
191.9999945266528
 20
-37.9999199666285
 30
0.0
 10
192.5522433329383
 20
-37.9999199666285
 30
0.0
 10
193.0001057460208
 20
-38.44761012493671
 30
0.0
 10
193.0001057460208
 20
-39.00003118599652
 30
0.0
 10
193.0001057460208
 20
-39.00003118599652
 30
0.0
 10
193.0001057460208
 20
-50.99981552544449
 30
0.0
 10
193.0001057460208
 20
-50.99981552544449
 30
0.0
  0
ENDSEC
  0
SECTION
  2
OBJECTS
  0
DICTIONARY
  5
C
330
0
100
AcDbDictionary
281
     1
  3
ACAD_GROUP
350
D
  3
ACAD_LAYOUT
350
1A
  3
ACAD_MLINESTYLE
350
17
  3
ACAD_PLOTSETTINGS
350
19
  3
ACAD_PLOTSTYLENAME
350
E
  3
ACAD_TABLESTYLE
350
166
  3
ACAD_VISUALSTYLE
350
2A
  0
DICTIONARY
  5
D
102
{ACAD_REACTORS
330
C
102
}
330
C
100
AcDbDictionary
281
     1
  0
DICTIONARY
  5
1A
102
{ACAD_REACTORS
330
C
102
}
330
C
100
AcDbDictionary
281
     1
  3
Layout1
350
1E
  3
Layout2
350
26
  3
Model
350
22
  0
DICTIONARY
  5
17
102
{ACAD_REACTORS
330
C
102
}
330
C
100
AcDbDictionary
281
     1
  3
Standard
350
18
  0
DICTIONARY
  5
19
102
{ACAD_REACTORS
330
C
102
}
330
C
100
AcDbDictionary
281
     1
  0
ACDBDICTIONARYWDFLT
  5
E
102
{ACAD_REACTORS
330
C
102
}
330
C
100
AcDbDictionary
281
     1
  3
Normal
350
F
100
AcDbDictionaryWithDefault
340
F
  0
DICTIONARY
  5
166
102
{ACAD_REACTORS
330
C
102
}
330
C
100
AcDbDictionary
281
     1
  0
DICTIONARY
  5
2A
102
{ACAD_REACTORS
330
C
102
}
330
C
100
AcDbDictionary
281
     1
  3
2dWireframe
350
2F
  3
3D Hidden
350
31
  3
3dWireframe
350
30
  3
Basic
350
32
  3
Brighten
350
36
  3
ColorChange
350
3A
  3
Conceptual
350
34
  3
Dim
350
35
  3
Facepattern
350
39
  3
Flat
350
2B
  3
FlatWithEdges
350
2C
  3
Gouraud
350
2D
  3
GouraudWithEdges
350
2E
  3
Linepattern
350
38
  3
Realistic
350
33
  3
Thicken
350
37
  0
LAYOUT
  5
1E
102
{ACAD_REACTORS
330
1A
102
}
330
1A
100
AcDbPlotSettings
  1

  2
none_device
  4

  6

 40
0.0
 41
0.0
 42
0.0
 43
0.0
 44
0.0
 45
0.0
 46
0.0
 47
0.0
 48
0.0
 49
0.0
140
0.0
141
0.0
142
1.0
143
1.0
 70
   688
 72
     0
 73
     0
 74
     5
  7

 75
    16
 76
     0
 77
     2
 78
   300
147
1.0
148
0.0
149
0.0
100
AcDbLayout
  1
Layout1
 70
     1
 71
     1
 10
0.0
 20
0.0
 11
12.0
 21
9.0
 12
0.0
 22
0.0
 32
0.0
 14
1.000000000000000E+20
 24
1.000000000000000E+20
 34
1.000000000000000E+20
 15
-1.000000000000000E+20
 25
-1.000000000000000E+20
 35
-1.000000000000000E+20
146
0.0
 13
0.0
 23
0.0
 33
0.0
 16
1.0
 26
0.0
 36
0.0
 17
0.0
 27
1.0
 37
0.0
 76
     0
330
1B
  0
LAYOUT
  5
26
102
{ACAD_REACTORS
330
1A
102
}
330
1A
100
AcDbPlotSettings
  1

  2
none_device
  4

  6

 40
0.0
 41
0.0
 42
0.0
 43
0.0
 44
0.0
 45
0.0
 46
0.0
 47
0.0
 48
0.0
 49
0.0
140
0.0
141
0.0
142
1.0
143
1.0
 70
   688
 72
     0
 73
     0
 74
     5
  7

 75
    16
 76
     0
 77
     2
 78
   300
147
1.0
148
0.0
149
0.0
100
AcDbLayout
  1
Layout2
 70
     1
 71
     2
 10
0.0
 20
0.0
 11
0.0
 21
0.0
 12
0.0
 22
0.0
 32
0.0
 14
0.0
 24
0.0
 34
0.0
 15
0.0
 25
0.0
 35
0.0
146
0.0
 13
0.0
 23
0.0
 33
0.0
 16
1.0
 26
0.0
 36
0.0
 17
0.0
 27
1.0
 37
0.0
 76
     0
330
23
  0
LAYOUT
  5
22
102
{ACAD_REACTORS
330
1A
102
}
330
1A
100
AcDbPlotSettings
  1

  2
none_device
  4

  6

 40
0.0
 41
0.0
 42
0.0
 43
0.0
 44
0.0
 45
0.0
 46
0.0
 47
0.0
 48
0.0
 49
0.0
140
0.0
141
0.0
142
1.0
143
1.0
 70
  1712
 72
     0
 73
     0
 74
     0
  7

 75
     0
 76
     0
 77
     2
 78
   300
147
1.0
148
0.0
149
0.0
100
AcDbLayout
  1
Model
 70
     1
 71
     0
 10
0.0
 20
0.0
 11
12.0
 21
9.0
 12
0.0
 22
0.0
 32
0.0
 14
1.000000000000000E+20
 24
1.000000000000000E+20
 34
1.000000000000000E+20
 15
-1.000000000000000E+20
 25
-1.000000000000000E+20
 35
-1.000000000000000E+20
146
0.0
 13
0.0
 23
0.0
 33
0.0
 16
1.0
 26
0.0
 36
0.0
 17
0.0
 27
1.0
 37
0.0
 76
     0
330
1F
331
29
  0
MLINESTYLE
  5
18
102
{ACAD_REACTORS
330
17
102
}
330
17
100
AcDbMlineStyle
  2
Standard
 70
     0
  3

 62
   256
 51
90.0
 52
90.0
 71
     2
 49
0.5
 62
   256
  6
BYLAYER
 49
-0.5
 62
   256
  6
BYLAYER
  0
ACDBPLACEHOLDER
  5
F
102
{ACAD_REACTORS
330
E
102
}
330
E
  0
VISUALSTYLE
  5
2F
102
{ACAD_REACTORS
330
2A
102
}
330
2A
100
AcDbVisualStyle
  2
2dWireframe
 70
     4
 71
     0
 72
     2
 73
     0
 90
        0
 40
-0.6
 41
-30.0
 62
     5
 63
     7
421
 16777215
 74
     1
 91
        4
 64
     7
 65
   257
 75
     1
175
     1
 42
1.0
 92
        0
 66
   257
 43
1.0
 76
     1
 77
     6
 78
     2
 67
     7
 79
     5
170
     0
171
     0
290
     0
174
     0
 93
        1
 44
0.0
173
     0
291
     0
 45
0.0
1001
ACAD
1000
AcDbSavedByObjectVersion
1070
     0
  0
VISUALSTYLE
  5
31
102
{ACAD_REACTORS
330
2A
102
}
330
2A
100
AcDbVisualStyle
  2
3D Hidden
 70
     6
 71
     1
 72
     2
 73
     2
 90
        0
 40
-0.6
 41
-30.0
 62
     5
 63
     7
421
 16777215
 74
     2
 91
        2
 64
     7
 65
   257
 75
     2
175
     1
 42
40.0
 92
        0
 66
   257
 43
1.0
 76
     1
 77
     6
 78
     2
 67
     7
 79
     3
170
     0
171
     0
290
     0
174
     0
 93
        1
 44
0.0
173
     0
291
     0
 45
0.0
1001
ACAD
1000
AcDbSavedByObjectVersion
1070
     0
  0
VISUALSTYLE
  5
30
102
{ACAD_REACTORS
330
2A
102
}
330
2A
100
AcDbVisualStyle
  2
3dWireframe
 70
     5
 71
     0
 72
     2
 73
     0
 90
        0
 40
-0.6
 41
-30.0
 62
     5
 63
     7
421
 16777215
 74
     1
 91
        4
 64
     7
 65
   257
 75
     1
175
     1
 42
1.0
 92
        0
 66
   257
 43
1.0
 76
     1
 77
     6
 78
     2
 67
     7
 79
     5
170
     0
171
     0
290
     0
174
     0
 93
        1
 44
0.0
173
     0
291
     0
 45
0.0
1001
ACAD
1000
AcDbSavedByObjectVersion
1070
     0
  0
VISUALSTYLE
  5
32
102
{ACAD_REACTORS
330
2A
102
}
330
2A
100
AcDbVisualStyle
  2
Basic
 70
     7
 71
     1
 72
     0
 73
     1
 90
        0
 40
-0.6
 41
-30.0
 62
     5
 63
     7
421
 16777215
 74
     0
 91
        4
 64
     7
 65
   257
 75
     1
175
     1
 42
1.0
 92
        8
 66
     7
 43
1.0
 76
     1
 77
     6
 78
     2
 67
     7
 79
     5
170
     0
171
     0
290
     0
174
     0
 93
        1
 44
0.0
173
     0
291
     1
 45
0.0
1001
ACAD
1000
AcDbSavedByObjectVersion
1070
     0
  0
VISUALSTYLE
  5
36
102
{ACAD_REACTORS
330
2A
102
}
330
2A
100
AcDbVisualStyle
  2
Brighten
 70
    12
 71
     2
 72
     2
 73
     0
 90
        0
 40
-0.6
 41
-30.0
 62
     5
 63
     7
421
 16777215
 74
     1
 91
        4
 64
     7
 65
   257
 75
     1
175
     1
 42
1.0
 92
        8
 66
     7
 43
1.0
 76
     1
 77
     6
 78
     2
 67
     7
 79
     5
170
     0
171
     0
290
     0
174
     0
 93
        1
 44
50.0
173
     0
291
     1
 45
0.0
1001
ACAD
1000
AcDbSavedByObjectVersion
1070
     0
  0
VISUALSTYLE
  5
3A
102
{ACAD_REACTORS
330
2A
102
}
330
2A
100
AcDbVisualStyle
  2
ColorChange
 70
    16
 71
     2
 72
     2
 73
     3
 90
        0
 40
-0.6
 41
-30.0
 62
     5
 63
     8
421
  8421504
 74
     1
 91
        4
 64
     7
 65
   257
 75
     1
175
     1
 42
1.0
 92
        8
 66
     8
424
  8421504
 43
1.0
 76
     1
 77
     6
 78
     2
 67
     7
 79
     5
170
     0
171
     0
290
     0
174
     0
 93
        1
 44
0.0
173
     0
291
     1
 45
0.0
1001
ACAD
1000
AcDbSavedByObjectVersion
1070
     0
  0
VISUALSTYLE
  5
34
102
{ACAD_REACTORS
330
2A
102
}
330
2A
100
AcDbVisualStyle
  2
Conceptual
 70
     9
 71
     3
 72
     2
 73
     0
 90
        0
 40
-0.6
 41
-30.0
 62
     5
 63
     7
421
 16777215
 74
     2
 91
        2
 64
     7
 65
   257
 75
     1
175
     1
 42
40.0
 92
        8
 66
     7
 43
1.0
 76
     1
 77
     6
 78
     2
 67
     7
 79
     3
170
     0
171
     0
290
     0
174
     0
 93
        1
 44
0.0
173
     0
291
     0
 45
0.0
1001
ACAD
1000
AcDbSavedByObjectVersion
1070
     0
  0
VISUALSTYLE
  5
35
102
{ACAD_REACTORS
330
2A
102
}
330
2A
100
AcDbVisualStyle
  2
Dim
 70
    11
 71
     2
 72
     2
 73
     0
 90
        0
 40
-0.6
 41
-30.0
 62
     5
 63
     7
421
 16777215
 74
     1
 91
        4
 64
     7
 65
   257
 75
     1
175
     1
 42
1.0
 92
        8
 66
     7
 43
1.0
 76
     1
 77
     6
 78
     2
 67
     7
 79
     5
170
     0
171
     0
290
     0
174
     0
 93
        1
 44
-50.0
173
     0
291
     1
 45
0.0
1001
ACAD
1000
AcDbSavedByObjectVersion
1070
     0
  0
VISUALSTYLE
  5
39
102
{ACAD_REACTORS
330
2A
102
}
330
2A
100
AcDbVisualStyle
  2
Facepattern
 70
    15
 71
     2
 72
     2
 73
     0
 90
        0
 40
-0.6
 41
-30.0
 62
     5
 63
     7
421
 16777215
 74
     1
 91
        4
 64
     7
 65
   257
 75
     1
175
     1
 42
1.0
 92
        8
 66
     7
 43
1.0
 76
     1
 77
     6
 78
     2
 67
     7
 79
     5
170
     0
171
     0
290
     0
174
     0
 93
        1
 44
0.0
173
     0
291
     1
 45
0.0
1001
ACAD
1000
AcDbSavedByObjectVersion
1070
     0
  0
VISUALSTYLE
  5
2B
102
{ACAD_REACTORS
330
2A
102
}
330
2A
100
AcDbVisualStyle
  2
Flat
 70
     0
 71
     2
 72
     1
 73
     1
 90
        2
 40
-0.6
 41
30.0
 62
     5
 63
     7
421
 16777215
 74
     0
 91
        4
 64
     7
 65
   257
 75
     1
175
     1
 42
1.0
 92
        8
 66
     7
 43
1.0
 76
     1
 77
     6
 78
     2
 67
     7
 79
     5
170
     0
171
     0
290
     0
174
     0
 93
       13
 44
0.0
173
     0
291
     1
 45
0.0
1001
ACAD
1000
AcDbSavedByObjectVersion
1070
     0
  0
VISUALSTYLE
  5
2C
102
{ACAD_REACTORS
330
2A
102
}
330
2A
100
AcDbVisualStyle
  2
FlatWithEdges
 70
     1
 71
     2
 72
     1
 73
     1
 90
        2
 40
-0.6
 41
30.0
 62
     5
 63
     7
421
 16777215
 74
     1
 91
        4
 64
     7
 65
   257
 75
     1
175
     1
 42
1.0
 92
        0
 66
   257
 43
1.0
 76
     1
 77
     6
 78
     2
 67
     7
 79
     5
170
     0
171
     0
290
     0
174
     0
 93
       13
 44
0.0
173
     0
291
     1
 45
0.0
1001
ACAD
1000
AcDbSavedByObjectVersion
1070
     0
  0
VISUALSTYLE
  5
2D
102
{ACAD_REACTORS
330
2A
102
}
330
2A
100
AcDbVisualStyle
  2
Gouraud
 70
     2
 71
     2
 72
     2
 73
     1
 90
        2
 40
-0.6
 41
30.0
 62
     5
 63
     7
421
 16777215
 74
     0
 91
        4
 64
     7
 65
   257
 75
     1
175
     1
 42
1.0
 92
        0
 66
     7
 43
1.0
 76
     1
 77
     6
 78
     2
 67
     7
 79
     5
170
     0
171
     0
290
     0
174
     0
 93
       13
 44
0.0
173
     0
291
     1
 45
0.0
1001
ACAD
1000
AcDbSavedByObjectVersion
1070
     0
  0
VISUALSTYLE
  5
2E
102
{ACAD_REACTORS
330
2A
102
}
330
2A
100
AcDbVisualStyle
  2
GouraudWithEdges
 70
     3
 71
     2
 72
     2
 73
     1
 90
        2
 40
-0.6
 41
30.0
 62
     5
 63
     7
421
 16777215
 74
     1
 91
        4
 64
     7
 65
   257
 75
     1
175
     1
 42
1.0
 92
        0
 66
   257
 43
1.0
 76
     1
 77
     6
 78
     2
 67
     7
 79
     5
170
     0
171
     0
290
     0
174
     0
 93
       13
 44
0.0
173
     0
291
     1
 45
0.0
1001
ACAD
1000
AcDbSavedByObjectVersion
1070
     0
  0
VISUALSTYLE
  5
38
102
{ACAD_REACTORS
330
2A
102
}
330
2A
100
AcDbVisualStyle
  2
Linepattern
 70
    14
 71
     2
 72
     2
 73
     0
 90
        0
 40
-0.6
 41
-30.0
 62
     5
 63
     7
421
 16777215
 74
     1
 91
        4
 64
     7
 65
   257
 75
     7
175
     7
 42
1.0
 92
        8
 66
     7
 43
1.0
 76
     1
 77
     6
 78
     2
 67
     7
 79
     5
170
     0
171
     0
290
     0
174
     0
 93
        1
 44
0.0
173
     0
291
     1
 45
0.0
1001
ACAD
1000
AcDbSavedByObjectVersion
1070
     0
  0
VISUALSTYLE
  5
33
102
{ACAD_REACTORS
330
2A
102
}
330
2A
100
AcDbVisualStyle
  2
Realistic
 70
     8
 71
     2
 72
     2
 73
     0
 90
        0
 40
-0.6
 41
-30.0
 62
     5
 63
     7
421
 16777215
 74
     1
 91
        0
 64
     7
 65
   257
 75
     1
175
     1
 42
1.0
 92
        8
 66
     8
424
  7895160
 43
1.0
 76
     1
 77
     6
 78
     2
 67
     7
 79
     5
170
     0
171
     0
290
     0
174
     0
 93
       13
 44
0.0
173
     0
291
     0
 45
0.0
1001
ACAD
1000
AcDbSavedByObjectVersion
1070
     0
  0
VISUALSTYLE
  5
37
102
{ACAD_REACTORS
330
2A
102
}
330
2A
100
AcDbVisualStyle
  2
Thicken
 70
    13
 71
     2
 72
     2
 73
     0
 90
        0
 40
-0.6
 41
-30.0
 62
     5
 63
     7
421
 16777215
 74
     1
 91
        4
 64
     7
 65
   257
 75
     1
175
     1
 42
1.0
 92
       12
 66
     7
 43
1.0
 76
     1
 77
     6
 78
     2
 67
     7
 79
     5
170
     0
171
     0
290
     0
174
     0
 93
        1
 44
0.0
173
     0
291
     1
 45
0.0
1001
ACAD
1000
AcDbSavedByObjectVersion
1070
     0
  0
ENDSEC
  0
EOF
